<?xml version="1.0" standalone="no"?>
<!DOCTYPE svg PUBLIC "-//W3C//DTD SVG 1.1//EN" "http://www.w3.org/Graphics/SVG/1.1/DTD/svg11.dtd" >
<svg>
<metadata>
Created by FontForge 20110222 at Mon Mar  7 08:15:00 2011
 By www-data
</metadata>
<defs>
<font id="Renaissance-Regular" horiz-adv-x="336" >
  <font-face 
    font-family="Renaissance "
    font-weight="400"
    font-stretch="normal"
    units-per-em="1000"
    panose-1="0 0 0 0 0 0 0 0 0 0"
    ascent="800"
    descent="-200"
    x-height="339"
    cap-height="723"
    bbox="-221 -261 1453 867"
    underline-thickness="20"
    underline-position="-145"
    unicode-range="U+0020-2122"
  />
    <missing-glyph />
    <glyph glyph-name="space" unicode=" " horiz-adv-x="306" 
 />
    <glyph glyph-name="exclam" unicode="!" horiz-adv-x="315" 
d="M436 618q16 0 25.5 -5t9.5 -19q0 -10 -50 -88q-23 -37 -45.5 -72t-52.5 -78l-69 -105l-32 -62q-22 -43 -35 -56l-9 -1l-6 6l45 85q39 75 84 174l77 177q9 23 22 33.5t36 10.5zM144 88q15 0 21.5 -9.5t8.5 -26.5q0 -17 -17.5 -38.5t-35.5 -21.5q-11 0 -21 9t-10 22
q0 22 15.5 43.5t38.5 21.5z" />
    <glyph glyph-name="quotedbl" unicode="&#x22;" horiz-adv-x="483" 
d="M400 515l11 7l12 5q20 9 37 29q6 7 13 17q4 6 13 22l1 9l-2 6l-19 13q-8 6 -10 21q0 19 15.5 39t35.5 20q12 0 21.5 -9.5t10.5 -23.5q0 -46 -46 -96q-36 -41 -88 -68l-7 5zM513 515q21 12 34 21.5t19 14.5q34 29 34 51l-2 8l-3 5q-14 7 -19.5 11.5t-6.5 19.5
q0 18 16.5 38t34.5 20q14 0 23 -9.5t9 -26.5q0 -37 -51.5 -99.5t-86.5 -62.5l-4 4z" />
    <glyph glyph-name="numbersign" unicode="#" horiz-adv-x="513" 
d="M117 197h-93v64h102l25 184h-102v66h112l27 196h66l-27 -196h118l28 196h66l-28 -196h79v-65h-88l-26 -185h88v-64h-97l-28 -197h-66l28 197h-118l-28 -197h-66zM218 446l-26 -185h118l26 185h-118z" />
    <glyph glyph-name="dollar" unicode="$" horiz-adv-x="482" 
d="M54 123q0 58 44 90.5t104 32.5q24 0 46 -6.5t47 -18.5l24 43q-28 22 -48 52.5t-20 64.5q0 60 53 97q49 32 113 32l42 -3q21 30 35.5 42t27.5 17.5t27 5.5l15 -3q5 -3 5 -10l-1 -3l-4 -2l-4 -2l-12 2l-10 3q-12 0 -26 -11t-39 -42q32 -11 52 -28q25 -22 25 -51
q0 -38 -34 -63q-15 -10 -32.5 -16t-37.5 -6q-34 0 -63 16l-22 -44q45 -45 68 -73q37 -49 37 -89q0 -77 -70 -120q-59 -36 -141 -36l-42 3l-35 4q-15 -19 -26 -31t-21 -20q-31 -26 -62 -26q-16 0 -25 5q-10 3 -22 17l-2 7q3 7 11 11l5 -4q3 -8 10 -15t16 -9q30 0 59 21
q17 14 43 48q-45 15 -75 42q-35 32 -35 76zM373 364l-14 18q-6 11 -6 22q0 7 6.5 20.5t13.5 13.5q3 0 6 -1q0 -1 1 -1l2 -4l-1 -3q-19 -6 -19 -32q0 -6 7 -16l8 -8l74 123l-16 3l-11 2q-49 0 -84 -19q-44 -23 -44 -67q0 -31 25 -62l28 -32zM425 353q36 0 63 17q34 22 34 54
q0 24 -17 41q-9 10 -38 26l-40 -62l-36 -64q17 -12 34 -12zM254 3q63 0 105 23q55 31 55 86q0 38 -28 78q-13 20 -57 63l-23 -40q16 -11 25 -26t9 -35q0 -36 -36 -56q-29 -15 -72 -15l-47 -70l39 -6zM219 84q-20 3 -40 15q-24 15 -24 33q0 7 6 18q6 8 15 13l8 -5l1 -4l-3 -4
l-7 -4q-11 -6 -12 -13q0 -20 22 -30l40 -10l62 111l-28 11q-12 4 -23 6t-26 2q-52 0 -93 -24q-48 -29 -48 -80q0 -41 32 -70q26 -23 71 -35zM249 91q31 0 55.5 16.5t24.5 47.5q0 11 -9 23t-22 19l-60 -106h11z" />
    <glyph glyph-name="percent" unicode="%" horiz-adv-x="650" 
d="M611 480l7 3q5 -5 5 -9l-1 -7q-88 -87 -169 -184q-39 -47 -75 -94t-77 -104l-44 -63q-36 -51 -43 -52l-4 2l-3 5q0 19 92 136q80 101 182 221q96 112 130 146zM96 211q0 64 37.5 126.5t94.5 96.5l30 15q18 9 31 9q30 0 46 -29q3 -5 8 -20.5t5 -35.5q0 -82 -55 -165
q-62 -94 -139 -94q-33 0 -48 34q-10 25 -10 63zM153 123q47 0 110 123q58 116 58 171q0 11 -8.5 21t-22.5 11q-44 0 -110 -120q-60 -111 -60 -166q0 -18 8 -29t25 -11zM638 327q30 0 46 -32q11 -25 11 -59q0 -75 -58 -160q-63 -93 -135 -93q-33 0 -49 31q-11 24 -11 62
q0 77 59 160q64 91 137 91zM501 -7q45 0 108 123q59 115 59 168q0 12 -8.5 24t-22.5 12q-41 0 -106 -118.5t-65 -166.5q0 -16 9 -29t26 -13z" />
    <glyph glyph-name="ampersand" unicode="&#x26;" horiz-adv-x="629" 
d="M559 530q0 21 -24 30t-26 24q0 16 12.5 26.5t28.5 10.5q18 0 30.5 -12.5t12.5 -32.5q0 -114 -147 -224q-120 -88 -255 -123q-22 -42 -41.5 -97t-19.5 -100q0 -65 41.5 -105t107.5 -40q52 0 105 30q37 21 86 69q57 57 100 128q54 87 54 149q0 27 -12.5 46.5t-38.5 19.5
q-42 0 -95 -40q-45 -34 -74 -76l64 1l20 1q16 0 24 -2t8 -8l-4 -6l-22 -3l-23 -1l-45 2l-32 2q-29 -38 -52 -76q-30 -53 -30 -84q0 -32 26 -32q22 0 51 32q23 26 35 53l8 6l5 -2l1 -5q-9 -28 -40 -60.5t-58 -32.5q-24 0 -35.5 16.5t-11.5 44.5q0 35 17 73.5t40 66.5h-42
l-20 -1q-14 0 -17 6q0 9 7 10l84 -1l67 64q73 61 140 61q38 0 59 -31q17 -26 17 -68q0 -126 -115 -244t-241 -118q-92 0 -149 60q-27 30 -41 68t-14 86q0 92 63 194q60 94 143 149q18 12 28 17l30 15q39 17 63 17q31 0 50 -19.5t19 -52.5l-1 -15q37 39 52 60q27 39 27 74z
M445 441q0 12 -8 23q-5 10 -20 11q-51 0 -124 -92q-16 -19 -38.5 -53t-54.5 -87q82 18 153 68q92 63 92 130z" />
    <glyph glyph-name="quotesingle" unicode="'" horiz-adv-x="356" 
d="M560 703l4 -7q-41 -25 -66.5 -49t-25.5 -52l6 -10l19 -11q6 -6 8 -21q0 -21 -18.5 -42t-40.5 -21q-14 0 -21 10t-9 27q0 36 55 106t89 70z" />
    <glyph glyph-name="parenleft" unicode="(" horiz-adv-x="441" 
d="M552 586q7 0 8 -7q-7 -5 -12 -7l-12 -2q-35 -9 -67 -34q-87 -62 -185 -214q-80 -127 -130 -255q-6 -16 -12 -35t-11 -39q-11 -46 -11 -77q0 -18 2 -25l2 -14l-4 -5h-6q-5 2 -11 40l-3 55q0 149 90 312t218 248q25 16 72 37.5t72 21.5z" />
    <glyph glyph-name="parenright" unicode=")" horiz-adv-x="442" 
d="M330 536l-2 41q0 7 8 6l4 -6l7 -46l3 -48q0 -153 -93 -317.5t-226 -249.5q-50 -30 -110 -46l-20 -5q-5 0 -8 8l8 5q38 9 61 21q21 9 50 35q92 77 203 280q115 212 115 322z" />
    <glyph glyph-name="asterisk" unicode="*" horiz-adv-x="272" 
d="M135 616q0 6 6 10.5t17 6.5q5 -1 9 -3t12 -6.5t20 -6.5q8 0 14 11l-4 9q-4 6 -26 13t-22 19q0 9 9 19t21 10h7q15 -11 15 -24l-1 -14l3 -18q3 -6 13 -7l5 2l7 9l-3 43q0 7 5 11t17 6q10 0 19.5 -6.5t9.5 -16.5q0 -9 -22 -21.5t-22 -28.5q0 -6 14 -7l5 1l19 15
q14 12 25 14q9 0 13 -6t6 -20q0 -9 -6.5 -16t-14.5 -8q-1 0 -4.5 1t-12 7t-19.5 8l-7 -2q-8 -4 -10 -9q3 -12 11 -15.5t23 -3.5q11 -4 14 -16q0 -8 -12 -19q-12 -9 -23 -9q-12 0 -16 25q0 22 -12 31l-6 -2q-8 -8 -10 -16q0 -8 5 -19l5 -15q0 -6 -6.5 -11.5t-15.5 -5.5
t-19 6.5t-11 17.5q0 9 19 20.5t19 27.5q0 6 -10 7q-12 0 -33 -21q-9 -9 -19 -11q-9 0 -15 11q-5 13 -5 23z" />
    <glyph glyph-name="plus" unicode="+" horiz-adv-x="482" 
d="M77 193h165v165h27v-165h164v-27h-163v-166h-27v166h-166v27z" />
    <glyph glyph-name="comma" unicode="," horiz-adv-x="147" 
d="M-13 -111l2 3q27 13 50 30.5t36 43.5l7 17v4q-3 9 -16.5 17.5t-15.5 24.5q0 21 17 44q19 22 40 22q33 0 33 -37q0 -35 -55 -106t-90 -71q-7 0 -8 8z" />
    <glyph glyph-name="hyphen" unicode="-" horiz-adv-x="315" 
d="M84 190q3 9 16 13l27 4q27 0 93 -7l57 -4l16 2l13 3l4 -2l1 -4q0 -10 -9.5 -13.5t-26.5 -3.5q-10 0 -28 1t-41 4l-63 6l-27 -4l-24 -3z" />
    <glyph glyph-name="period" unicode="." horiz-adv-x="147" 
d="M106 92q13 0 20 -10t9 -25q0 -20 -20 -43q-9 -10 -18.5 -16t-19.5 -6q-14 0 -22 8q-5 8 -7 25q0 22 18.5 44.5t39.5 22.5z" />
    <glyph glyph-name="slash" unicode="/" 
d="M408 536l4 1l4 -1q2 -2 2 -8q-6 -9 -10 -16q-9 -14 -33 -46l-53 -69q-104 -137 -193 -298l-31 -55q-23 -39 -33 -49q-10 0 -11 10q6 12 11 21q10 17 36 60l91 145l59 92l43 67l46 66l31 42q23 29 37 38z" />
    <glyph glyph-name="zero" unicode="0" horiz-adv-x="356" 
d="M347 455q41 0 62 -42q15 -32 15 -79q0 -108 -79 -227q-87 -131 -190 -131q-45 0 -67 40q-17 32 -17 82q0 75 34 150t91 127q10 9 26 22q22 18 43 31q45 27 82 27zM148 -13l8 1q51 7 98 77q20 30 63 116q23 47 46 105q27 72 27 108q0 20 -12 38q-13 16 -34 16
q-33 0 -63 -31l-28 -35q-18 -24 -40.5 -65t-49.5 -99q-60 -128 -60 -172q0 -25 11 -42t34 -17z" />
    <glyph glyph-name="one" unicode="1" horiz-adv-x="356" 
d="M287 386q-6 18 -28 18l-27 -2l-3 1q-6 0 -9 9l3 5l3 3l12 2l19 -2q36 0 61 6t51 26l10 8l6 -2l2 -4l-14 -32l-18 -39l-128 -293l-15 -32q-5 -14 -7 -31l2 -7q3 -7 8 -9l22 -2l14 1q6 -2 6 -9l-1 -4l-9 -5l-72 5l-55 -2l-39 -3l-6 2q-5 3 -4 10l3 4l4 3l18 -3q20 0 41 25
q7 8 12 17.5t14 27.5l105 251l11 28z" />
    <glyph glyph-name="two" unicode="2" horiz-adv-x="356" 
d="M112 82q24 0 57 -12q72 -27 94 -27q21 0 38 20q12 14 24 39l7 3l8 -5l-13 -25l-13 -22q-17 -28 -30 -43q-22 -22 -47 -22q-29 0 -82.5 36t-88.5 36q-13 0 -24 -9.5t-11 -22.5q0 -6 5 -14l12 -12q-3 -8 -9 -12l-16 -7q-17 2 -18 17q0 10 1.5 16t6 17.5t18.5 31.5
q34 56 99 94l109 52q61 30 86 65q3 5 10.5 19t12.5 26q11 28 11 48q0 30 -24.5 49.5t-56.5 19.5q-25 0 -50.5 -16t-25.5 -40q0 -10 21 -25q9 -5 11 -15q0 -14 -12 -26.5t-28 -14.5q-19 0 -31 12q-10 13 -10 33q0 45 43 73.5t92 28.5q56 0 91 -22q43 -28 43 -80
q0 -79 -77 -120l-161 -60q-101 -39 -140 -103l33 14q17 5 35 5z" />
    <glyph glyph-name="three" unicode="3" horiz-adv-x="356" 
d="M92 123q14 0 26 -8.5t12 -23.5q0 -17 -27 -29q-27 -9 -27 -28q0 -21 27 -36q22 -11 48 -11q53 0 96 58q20 28 30 54.5t10 55.5q0 28 -19 44t-48 16l-29 -5l-19 -2q-11 0 -11 15q0 14 22 14l22 -2l23 -2q57 0 105.5 43.5t48.5 101.5q0 29 -20.5 43.5t-51.5 14.5
q-26 0 -55 -14.5t-29 -40.5q0 -10 15 -18.5t15 -22.5q0 -16 -14 -27.5t-28 -11.5q-17 0 -28 11t-11 29q0 48 46 78q41 25 93 25q51 0 85 -19q44 -24 44 -71q0 -52 -52 -86q-39 -24 -100 -36l-28 -4q-15 -1 -16 -5l8 -5l14 -5q32 -10 54.5 -38.5t22.5 -60.5q0 -59 -65 -100
q-57 -36 -122 -36q-47 0 -78 20q-40 25 -40 66q0 24 13.5 41.5t37.5 17.5z" />
    <glyph glyph-name="four" unicode="4" horiz-adv-x="356" 
d="M256 173l134 272l4 -1l26 1l44 4q7 0 8 -5l-7 -5q-20 -6 -30 -25l-60 -120l-60 -120h53q18 0 24 7l11 16h5l5 -3q-4 -15 -11 -27l-13 -27l-3 -3l-89 -1l-36 -72l-16 -35l3 -10q12 -5 24 -7l30 -1l5 -2l3 -4v-4q-3 -4 -5 -5l-7 -3q-11 0 -17 2l-12 3l-60 3l-44 -3l-45 -3
l-4 2l-3 5l-2 2l1 4l3 3l5 1l18 -1q36 0 54 33l47 92h-190l-7 6q7 8 14 14.5t41 35.5q68 58 102 95q56 58 56 85q0 10 -4 18l-11 29q0 14 10 20.5t27 8.5q18 0 29 -8t11 -25q0 -35 -93 -127q-20 -20 -129 -115h161z" />
    <glyph glyph-name="five" unicode="5" horiz-adv-x="356" 
d="M368 428l49 1q16 0 33 12l13 14q5 7 8 8.5l5 2.5l7 -4q-2 -9 -8 -19l-13 -22q-22 -31 -41 -42q-22 -10 -57 -10l-58 1l-69 8q-29 -70 -72 -142q35 26 55 34q9 3 19 5t22 2q42 0 69 -27.5t27 -69.5q0 -75 -67.5 -138t-144.5 -63q-39 0 -65 17q-32 21 -32 57
q0 21 13.5 38.5t34.5 17.5q14 0 26 -11q12 -9 13 -23q0 -14 -12 -26q-12 -10 -26 -9l-6 -3l-5 -13q0 -16 15.5 -25t34.5 -9q58 0 110 80q47 73 47 136q0 23 -14 41q-12 18 -36 18q-30 0 -57 -28l-55 -64q-6 3 -8 5l-3 9q0 6 21 45l57 99q10 18 23 50l21 56l64 -6z" />
    <glyph glyph-name="six" unicode="6" horiz-adv-x="356" 
d="M286 291q34 0 56 -34q18 -29 18 -66q0 -77 -62 -144.5t-138 -67.5q-44 0 -65 41q-8 17 -12 36t-4 46q0 120 86 231q93 120 209 120q37 0 63 -15q31 -19 31 -54q0 -22 -15.5 -39t-36.5 -17q-15 0 -24 8.5t-9 22.5q0 16 11.5 24.5t28.5 8.5l7 4l4 13q0 15 -21 24.5t-36 9.5
q-79 0 -148 -102q-45 -67 -80 -176q35 54 57 79q42 47 80 47zM156 -13q54 0 108 99q49 90 49 150q0 19 -8 31.5t-25 12.5q-49 0 -108 -98q-55 -93 -55 -146q0 -18 9.5 -33.5t29.5 -15.5z" />
    <glyph glyph-name="seven" unicode="7" horiz-adv-x="356" 
d="M381 360q-22 0 -55 6q-76 14 -93 14q-39 0 -58 -19l-34 -52q-3 1 -4.5 3t-1.5 3q6 35 43.5 85.5t70.5 50.5q29 0 64 -24q76 -53 88 -55q11 0 20 10q5 8 7 24q-3 6 -12 9l-15 7l-3 4l-2 6q0 11 12 20t25 11q18 0 18 -20q0 -76 -78 -156l-134 -124q-18 -20 -31 -36t-22 -28
q-21 -33 -30 -78l-4 -22q-3 -8 -16 -17l-12 -5q-22 0 -33.5 9.5t-11.5 30.5q0 14 10 34l19 30q33 49 107 101q104 72 120 87q12 10 25 24l22.5 25t19.5 23l18 27l-20 -6z" />
    <glyph glyph-name="eight" unicode="8" horiz-adv-x="356" 
d="M182 333q0 52 45.5 87t99.5 35q42 0 70.5 -23t28.5 -65q0 -49 -74 -92q-7 -4 -28 -13t-39 -16q26 -31 42 -58q25 -42 25 -67q0 -64 -45.5 -105t-110.5 -41q-51 0 -93 24q-51 29 -51 78q0 51 59 94.5t116 49.5l-30 53q-15 32 -15 59zM387 381q0 26 -20 46t-47 20
q-35 0 -58.5 -24.5t-23.5 -60.5q0 -14 1 -21t7.5 -25.5t31.5 -57.5q63 30 88 62q21 27 21 61zM97 67q0 -35 25 -59q26 -21 63 -21q43 0 75 26t32 68q0 28 -17.5 64.5t-40.5 65.5q-56 -12 -94 -49q-43 -41 -43 -95z" />
    <glyph glyph-name="nine" unicode="9" horiz-adv-x="356" 
d="M200 141q-35 0 -55.5 31t-20.5 69q0 77 61.5 144.5t138.5 67.5q45 0 66 -39q16 -32 16 -81q0 -119 -86 -232q-92 -121 -207 -121q-37 0 -62 14q-34 19 -34 50q0 23 16 42t38 19q13 0 22 -9.5t9 -24.5q0 -19 -19 -26l-22 -3l-8 -6l-2 -9q0 -18 17 -28q20 -10 39 -10
q79 0 148 99q54 79 78 173q-18 -26 -30 -43q-16 -21 -26 -32q-42 -45 -77 -45zM206 152q51 0 109 101q53 92 53 150q0 18 -11.5 30.5t-28.5 12.5q-51 0 -106 -98q-49 -90 -49 -147q0 -21 6.5 -35t26.5 -14z" />
    <glyph glyph-name="colon" unicode=":" horiz-adv-x="189" 
d="M199 240q0 24 16.5 45.5t41.5 21.5q8 0 16 -9.5t8 -26.5q0 -22 -17 -42t-38 -20q-10 0 -17.5 9t-9.5 22zM75 30q0 20 18 43t38 23q12 0 20 -11q9 -9 9 -23q0 -22 -18.5 -45t-38.5 -23q-12 0 -21 10q-6 10 -7 26z" />
    <glyph glyph-name="semicolon" unicode=";" horiz-adv-x="189" 
d="M259 309q12 0 21 -9.5t9 -22.5q0 -20 -18.5 -43t-38.5 -23q-10 0 -19.5 11t-9.5 22q0 22 16.5 43.5t39.5 21.5zM11 -111v4q26 12 58 39q37 32 37 55q0 5 -22 23q-9 7 -11 19q0 25 17.5 45.5t42.5 20.5q15 0 22 -13.5t7 -28.5q0 -33 -56.5 -102t-87.5 -69q-6 0 -7 7z" />
    <glyph glyph-name="less" unicode="&#x3c;" horiz-adv-x="562" 
d="M521 426l-406 -184l406 -185v-65l-486 220v60l486 219v-65z" />
    <glyph glyph-name="equal" unicode="=" horiz-adv-x="482" 
d="M51 248h409v-28h-409v28zM52 141h408v-28h-408v28z" />
    <glyph glyph-name="greater" unicode="&#x3e;" horiz-adv-x="562" 
d="M41 57l406 185l-406 184v65l486 -219v-60l-486 -220v65z" />
    <glyph glyph-name="question" unicode="?" horiz-adv-x="462" 
d="M513 533q0 32 -22 53q-22 19 -56 19q-37 0 -72 -24.5t-35 -59.5q0 -10 13.5 -21t14.5 -23q0 -21 -15 -36t-36 -15q-16 0 -27.5 13t-11.5 31q0 56 57.5 99.5t116.5 43.5q53 0 91 -33.5t38 -86.5q0 -77 -91 -144q-20 -15 -169 -98q-91 -50 -91 -88q0 -5 6 -13l13 -9l2 -4
q-6 -21 -29 -21q-9 0 -16 8q-3 6 -5 19q0 31 84 99q131 106 156 131q84 84 84 160zM174 89q11 0 18.5 -9t9.5 -23q0 -20 -15.5 -41.5t-35.5 -21.5q-12 0 -22 10q-6 9 -8 25q0 19 16.5 39.5t36.5 20.5z" />
    <glyph glyph-name="at" unicode="@" horiz-adv-x="970" 
d="M506 478q-60 0 -105 -64q-40 -60 -40 -123q0 -39 21 -65.5t59 -26.5q57 0 103 68q21 32 30.5 61t9.5 62q0 34 -23 60q-22 28 -55 28zM632 532h65l-69 -235l-11 -43l-7 -34q0 -14 3.5 -20.5t17.5 -7.5q58 0 99 77q36 66 36 129q0 111 -77 179t-190 68q-126 0 -207.5 -88
t-81.5 -217q0 -127 85.5 -213t211.5 -86q67 0 128 28.5t104 80.5h64q-45 -78 -126 -123t-172 -45q-152 0 -259 105.5t-107 258.5q0 148 105.5 253.5t255.5 105.5q133 0 228 -82q101 -86 101 -217q0 -95 -65 -182q-71 -94 -163 -94q-26 0 -44 17t-18 43q-25 -26 -55.5 -43
t-61.5 -17q-59 0 -99.5 45t-40.5 108q0 100 59 178q65 86 162 86q39 0 66 -20q26 -17 44 -55z" />
    <glyph glyph-name="A" unicode="A" horiz-adv-x="923" 
d="M707 298l94 107q26 28 53.5 54.5t50.5 44.5q56 44 109 73q60 32 124 44l26 4q9 3 9 9l-3 5q-14 0 -25 4l-43 12q-99 24 -201 24q-116 0 -221 -48q-130 -60 -130 -164q0 -33 24 -54q12 -10 26 -15t32 -5q53 0 110 44t57 97q0 9 -7 17l-17 13l-4 7l3 4l4 2q11 0 23 -21
q8 -20 10 -37q0 -57 -52.5 -98t-111.5 -41q-51 0 -88.5 36t-37.5 86q0 98 108 155q87 45 198 45q59 0 118.5 -7t118.5 -22l72 -19q44 -11 74 -11q9 0 23 6l26 14q6 -4 8 -6l3 -10q0 -17 -12 -26q-12 -6 -32 -6l-24 1q-56 0 -121 -52q-41 -33 -95 -98l-41 -57l-61 -102
q47 0 81 10q56 15 56 47q0 6 -6 12l-10 12q0 11 7.5 17t19.5 8q19 0 19 -24q0 -50 -66 -76q-48 -18 -110 -18q-17 -34 -28 -59.5t-17 -44.5q-19 -60 -19 -112q0 -31 7 -49q11 -28 36 -28q31 0 54 38l34 62l6 3l4 -2l2 -3q-8 -32 -37 -67q-34 -40 -64 -40q-40 0 -67 59
q-21 48 -21 96q0 29 2 41t9 33l27 70l-72 -2l-83 -109q-42 -52 -84 -90q-52 -45 -116 -75q21 -20 46 -30.5t51 -10.5q33 0 51.5 11t35.5 38l5 2l3 -1l2 -3l1 -5l-2 -8q-22 -22 -42.5 -33.5t-49.5 -11.5q-15 0 -29.5 3t-31.5 10q-27 11 -53 36l-51 -12l-36 -2q-94 0 -156 50
q-70 55 -70 146q0 95 84 163q78 63 178 63q66 0 114 -32q56 -36 56 -98q36 3 73.5 5t79.5 2zM813 304q24 57 82 121q70 76 196 161l7 4q8 6 10 12l-26 -6q-31 -10 -64.5 -28t-64.5 -43q-51 -39 -113 -107q-34 -38 -95 -115zM393 144q-45 9 -63 19q-34 19 -34 52q0 13 6 22
t15 17l8 2l3 -1l4 -6l-16 -16q-9 -8 -11 -19q0 -30 34 -43q24 -9 60 -9q17 55 49.5 81.5t89.5 41.5l1 14q0 46 -39 73q-35 22 -84 22q-91 0 -180 -68q-97 -73 -97 -160q0 -65 59 -108q54 -39 122 -39h29q12 3 17 4q23 5 48 16q-22 44 -22 81zM695 287h-58l-48 -3l-34 -4
q-15 -66 -48.5 -93t-104.5 -42l-3 -25q0 -17 6 -39.5t17 -36.5q67 26 146 108zM533 274l1 9q-3 3 -5 3q-18 0 -74 -50.5t-56 -66.5q0 -5 11 -4q93 21 123 109z" />
    <glyph glyph-name="B" unicode="B" horiz-adv-x="943" 
d="M753 670q-115 0 -217 -65q-117 -74 -117 -182q0 -40 30 -66t70 -26q52 0 108.5 56t56.5 108q0 26 -15.5 42.5t-40.5 16.5q-29 0 -55.5 -21t-26.5 -51q2 -16 5 -24l-7 -6l-4 1q-6 11 -6 22q0 37 29 61.5t68 24.5q34 0 54 -23.5t20 -59.5q0 -69 -52.5 -112.5t-122.5 -43.5
q-56 0 -98.5 39t-42.5 98q0 110 117 175q97 53 217 53q34 0 60.5 -3t53.5 -11q52 -12 111 -46q48 39 105 66q67 32 119 32q30 0 49.5 -12.5t19.5 -42.5q0 -48 -48 -80.5t-96 -32.5q-16 0 -32 9t-18 26q0 15 13 21l7 -5l-7 -16q0 -7 8 -14q6 -3 18 -5q35 0 87 35t52 68
q0 17 -14.5 27t-34.5 10q-54 0 -112 -31q-33 -18 -99 -67q32 -24 49 -53q18 -27 18 -64q0 -77 -63 -121q-47 -31 -137 -43q47 -6 82.5 -45t35.5 -89q0 -73 -65 -138.5t-137 -65.5q-40 0 -63.5 26t-23.5 65q0 51 43.5 98t95.5 47q12 0 26 -6l4 -5l-5 -9q-9 0 -21 4l-16 5
q-32 0 -74 -54q-21 -28 -30.5 -49.5t-9.5 -39.5q0 -30 14 -48.5t43 -18.5q55 0 114 87q54 81 54 141q0 40 -23 64t-64 24l-12 -1l-16 1q-6 1 -8 9l2 9q9 15 18 15l12 -8q10 -8 26 -8q57 0 105 64q45 60 45 119q0 22 -7 40t-23 38q-49 -49 -102 -121q-41 -57 -88 -133
q-93 -153 -103 -165q-63 -90 -129 -135q-82 -56 -186 -56q-86 0 -155 36q-82 44 -82 125q0 77 69 131q64 47 146 47q33 0 61 -6t54 -20q62 -32 62 -92q0 -52 -47 -86q-41 -29 -97 -29q-38 0 -66 17q-35 21 -35 55q0 21 17 36.5t37 15.5q9 0 13 -5l-3 -8l-6 -1l-17 2
q-13 0 -23 -11q-6 -9 -8 -26q0 -28 29 -44q24 -12 56 -12q49 0 90 25q49 29 49 75q0 42 -48 66q-40 20 -87 20q-80 0 -149 -39q-81 -47 -81 -123q0 -60 61 -99q53 -33 118 -33q97 0 177 61q62 46 131 143l106 160q50 72 100 130q30 34 57.5 61t60.5 53q-88 50 -183 50z" />
    <glyph glyph-name="C" unicode="C" horiz-adv-x="608" 
d="M648 704q57 0 95.5 -33t38.5 -91q0 -69 -57 -131.5t-126 -62.5q-46 0 -75.5 25.5t-29.5 69.5q0 45 36.5 81t82.5 36q12 0 26 -5t18 -17l-5 -7l-3 1q-6 9 -14 13l-15 4q-40 0 -73 -42q-15 -21 -23 -42t-8 -44q0 -25 17 -42q19 -16 43 -16q60 0 118.5 72t58.5 133
q0 43 -26 63q-25 22 -68 22q-85 0 -183 -82q-80 -67 -164 -182q-64 -91 -109 -180q-18 -39 -35 -89t-17 -87q0 -63 42 -108t107 -45q99 0 193 124q89 118 89 219q0 36 -20.5 60t-57.5 24q-69 0 -127.5 -74.5t-58.5 -144.5q0 -27 15.5 -45.5t44.5 -18.5q30 0 48 24l28 50l4 3
l3 -1q6 -3 6 -9l-3 -7l-6 -6q-10 -17 -16.5 -25.5t-16.5 -18.5q-22 -19 -52 -19q-35 0 -59 31q-22 33 -22 71q0 73 63.5 136.5t139.5 63.5q54 0 87 -38.5t33 -94.5q0 -114 -95.5 -215.5t-209.5 -101.5q-88 0 -142 64t-54 155q0 112 85.5 250t204.5 230q130 100 244 100z" />
    <glyph glyph-name="D" unicode="D" horiz-adv-x="818" 
d="M755 511q-45 63 -124 96.5t-164 33.5q-113 0 -210 -61q-112 -70 -112 -177q0 -60 38.5 -97.5t99.5 -37.5q71 0 137 53t66 124q0 34 -23 54.5t-56 20.5q-41 0 -80 -29q-39 -27 -39 -67q0 -28 25 -37v-4l-6 -5q-11 0 -20.5 17t-9.5 30q0 44 39.5 73t85.5 29q47 0 77 -29
t30 -77q0 -68 -69 -122q-64 -49 -136 -49q-75 0 -128 48.5t-53 124.5q0 113 100 188q90 66 211 66q97 0 188 -40t143 -117q82 82 166 131q104 58 202 58q30 0 60 -5.5t30 -23.5q-8 -23 -30 -23q-3 2 -5.5 4t-7.5 9q-8 14 -14 18l-17 6l-20 2q-85 0 -186 -79
q-76 -58 -146 -150q19 -28 31 -79.5t12 -93.5q0 -119 -69 -206q-75 -93 -192 -93q-44 0 -97 15q-26 6 -94 34q-21 -9 -52 -20t-54 -18q-48 -12 -101 -12q-22 0 -40 8t-18 28q0 30 31.5 46t64.5 16q34 0 80 -10q49 -9 85 -22q72 39 160 164l78 114q51 74 80 110
q15 20 24.5 31t28.5 32zM565 22q111 0 184 100q66 90 66 206q0 38 -6 68q-4 30 -22 59l-168 -221q-96 -116 -211 -180q40 -15 79 -24q20 -4 38 -6t40 -2zM222 80q-29 0 -53 -10q-33 -14 -33 -38q0 -16 22 -22q16 -3 23 -4t23 -1q40 0 83 14q34 10 78 31q-71 30 -143 30z" />
    <glyph glyph-name="E" unicode="E" horiz-adv-x="608" 
d="M393 529q0 92 99 139q76 35 181 35q59 0 102 -23q56 -29 56 -81q0 -58 -55 -95q-49 -32 -111 -32q-38 0 -71 15q-41 20 -41 55q0 30 29 50q32 19 63 19q21 0 28 -2q11 -1 19 -10l1 -3l-1 -4l-3 -2l-3 -1l-19 6q-14 6 -24 6q-30 0 -53.5 -14.5t-23.5 -42.5
q0 -19 17.5 -32.5t54.5 -13.5q56 0 112 27q67 34 67 85q0 38 -41 59q-18 8 -35.5 12t-40.5 4q-83 0 -169 -61q-94 -67 -94 -146q0 -39 31 -57l25 2h22h28q51 0 74.5 -5t33.5 -16l2 -5q0 -10 -23 -14l-45 -2q-30 0 -53 5.5t-32 8.5t-28 13q-110 0 -211.5 -106t-101.5 -219
q0 -65 43.5 -100.5t111.5 -35.5q90 0 187.5 94.5t97.5 184.5q0 36 -25.5 55t-63.5 19q-63 0 -125.5 -64t-62.5 -126q0 -25 15 -44t42 -19q28 0 45.5 15.5t26.5 44.5l4 4l4 1l7 -5q-15 -32 -35 -50t-51 -18q-33 0 -57 24.5t-24 58.5q0 72 69 130t142 58q50 0 84 -34t34 -84
q0 -101 -99 -182q-93 -75 -201 -75q-93 0 -157.5 58t-64.5 151q0 120 117 198q95 63 229 78q-25 16 -42 47.5t-17 61.5z" />
    <glyph glyph-name="F" unicode="F" horiz-adv-x="776" 
d="M761 682q116 0 250 -39l99 -28q59 -15 103 -15q35 0 55 10q28 14 28 44q0 39 -45 60q-33 15 -81 15q-37 0 -59 -6.5t-36 -30.5l-7 -9l-4 -1q-9 0 -9 13q0 20 50 35q35 9 70 9q48 0 86 -19q48 -24 48 -68q0 -45 -49 -75q-43 -26 -90 -26q-61 0 -142 27l-161 54
q-80 27 -146 27q-21 0 -31.5 -1.5t-28.5 -6.5q65 -56 65 -143q0 -51 -24 -90q-29 -47 -77 -47q-45 0 -70.5 38.5t-25.5 84.5q0 53 30 95q24 32 77 68q-41 29 -100 29q-46 0 -81.5 -26t-35.5 -71q0 -12 5.5 -22.5t19.5 -21.5l2 -8l-3 -5h-4l-6 1q-25 25 -25 64
q0 46 41.5 72.5t90.5 26.5q20 0 29 -1t26.5 -7.5t52.5 -26.5l55 16q16 3 26.5 4t31.5 1zM538 494q0 -40 22 -77q23 -35 62 -35q43 0 65 43q16 35 16 82q0 43 -12.5 78t-42.5 61q-49 -21 -79.5 -60t-30.5 -92zM518 112q0 72 60 123q44 38 127 64q17 33 35 65q15 27 28 48
q43 68 88 107q56 48 115 48l24 -3l18 -2q5 -2 8 -9l-1 -4l-10 -3q-7 0 -19.5 5.5t-18.5 5.5q-75 0 -136 -88q-35 -51 -76 -156q34 6 64 22q45 21 45 44q0 5 -6 17l-5 15q0 8 6.5 12.5t16.5 5.5q23 0 23 -23q0 -36 -57 -71q-37 -21 -92 -35q-35 -114 -65 -166
q-48 -87 -126 -120q17 -22 45 -38q29 -13 59 -13q19 0 39 12l22 11q5 0 10 -9q0 -8 -27 -16l-42 -7q-69 0 -117 55q-33 -14 -72 -21q-19 -4 -36 -6t-37 -2q-117 0 -200 61q-93 68 -93 181q0 93 69 156t163 63q76 0 129 -41q60 -45 60 -118q0 -61 -42.5 -105t-103.5 -44
q-44 0 -82 24q-40 28 -40 71q0 36 25.5 60t63.5 24l17 -3l3 -3l-1 -3q-2 -4 -4 -5l-4 -2l-19 4q-28 0 -49 -20t-21 -49q0 -34 26 -54.5t60 -20.5q61 0 109 40.5t48 99.5q0 53 -48 89q-42 30 -101 30q-88 0 -164 -61.5t-76 -149.5q0 -86 75 -146q70 -53 160 -53q43 0 83.5 12
t75.5 39l-6 28zM697 285q-66 -19 -113 -57q-57 -47 -57 -109l1 -30q2 -12 8 -24q47 32 94 99q34 50 67 121z" />
    <glyph glyph-name="G" unicode="G" horiz-adv-x="756" 
d="M79 86q0 54 45 94t100 40q62 0 114 -40q26 -20 39 -44t13 -56q0 -38 -27 -64q-27 -24 -68 -24q-24 0 -48 18q-22 19 -22 44q0 12 9 12l4 -3l1 -4l-1 -12q0 -22 23.5 -33.5t47.5 -11.5q26 0 48 23.5t22 48.5q0 54 -42.5 87t-96.5 33q-58 0 -101 -41.5t-43 -99.5
q0 -84 89 -145q80 -54 169 -54q75 0 138 42q52 33 102 103q33 45 79 125l40 72q23 42 43 71l10 15l8 15l-5 3l-4 -1q-10 -7 -25 -25l-24 -30q-43 -54 -95 -93q-69 -52 -117 -52q-52 0 -84 51q-27 44 -27 101q0 175 188 321q177 138 357 138q46 0 75 -19q35 -23 35 -66
q0 -81 -84 -150q-79 -64 -164 -64q-38 0 -65 17t-27 54q0 46 44 84t91 38q22 0 37.5 -6.5t19.5 -26.5l-3 -4l-8 -3l-2 3q0 12 -8 19q-12 10 -34 10q-45 0 -86.5 -35.5t-41.5 -80.5q0 -27 20.5 -40.5t47.5 -13.5q74 0 156 67q87 71 87 142q0 33 -21.5 48.5t-54.5 15.5
q-96 0 -224 -85q-119 -80 -206 -196q-92 -124 -92 -221q0 -35 18 -62q19 -25 54 -25q60 0 131 65l111 121q57 65 84 65q11 0 14 -11l-2 -8l-9 -9l-9 -7q-24 -19 -42 -46.5t-33 -60.5l-87 -228q-54 -113 -185 -146l-36 -7l-38 -3q-126 0 -217 61q-105 69 -105 190z" />
    <glyph glyph-name="H" unicode="H" horiz-adv-x="987" 
d="M467 89q0 75 86 140q59 46 155 81l52 97q30 55 66.5 104.5t71.5 77.5q19 15 44 31l51 31q-3 12 -93 23.5t-125 11.5q-43 0 -70 -3q-10 0 -26.5 -3t-35.5 -8q-76 -18 -133 -72q-64 -61 -64 -134q0 -32 18 -59q17 -23 52 -35q-6 26 -6 52q0 60 44 112t102 52q35 0 57 -23.5
t22 -57.5q0 -67 -59 -111q-55 -40 -124 -40l-17 1q14 -18 30 -31q17 -10 38 -10q9 0 18 5l10 6q3 -1 5 -9q-9 -11 -29 -11q-57 0 -84 53q-50 17 -82 56.5t-32 91.5q0 99 111 153q89 43 199 43l83 -3q21 0 45 -5t34 -7l63 -13q22 -4 36 -6t29 -2q13 0 27 13l16 13
q16 0 16 -19q0 -20 -20 -29l-39 -8q-76 -18 -143 -124q-47 -73 -82 -180l147 38l51 81q28 40 59 77q51 58 120 112q88 67 143 67q34 0 34 -32q0 -18 -12 -39q-11 -23 -26 -40q-55 -73 -133 -126q-57 -39 -161 -88l-80 -159q-46 -104 -46 -168q0 -27 8.5 -40.5t22.5 -15.5
q25 0 48 32l44 80h6l2 -8l-12 -26q-18 -36 -34 -55q-27 -32 -54 -32q-33 0 -49 49q-12 36 -12 77q0 44 12 87t60 153l-144 -37q-58 -130 -105 -186q-60 -72 -175 -123q24 -32 55 -50q16 -8 32 -12t39 -4q39 0 67 15.5t44 50.5l7 3q6 -6 7 -10q-6 -29 -48.5 -49.5
t-76.5 -20.5q-43 0 -78 19t-59 56q-58 -14 -110 -14q-100 0 -175 41q-93 51 -93 142q0 82 65 132.5t149 50.5q65 0 110 -29q53 -33 53 -95q0 -48 -43.5 -79t-92.5 -31q-38 0 -66 14q-38 18 -38 51l2 7l2 5l4 1h4l3 -1l1 -13v-11q0 -21 32 -33q12 -3 23 -5t27 -2q47 0 88 27
q45 30 45 76q0 47 -47 73q-19 10 -41.5 16t-47.5 6q-81 0 -145 -40q-74 -45 -74 -123t73 -124q62 -38 147 -38q32 0 61 6t69 21l-4 22zM1327 672q0 27 -29 27q-62 0 -159 -121q-42 -54 -124 -180q97 47 157 90q74 53 128 126l18 30q9 18 9 28zM556 364q55 0 105.5 48
t50.5 105q0 27 -17 44t-43 17q-51 0 -91.5 -56.5t-40.5 -109.5l1 -22l8 -24l13 -2h14zM700 296q-80 -22 -146 -76q-39 -32 -59 -65.5t-20 -70.5v-14q0 -9 5 -25q53 18 125 108q48 61 95 143z" />
    <glyph glyph-name="I" unicode="I" horiz-adv-x="776" 
d="M341 379q68 0 117 -31q58 -37 58 -101q0 -56 -44.5 -93.5t-100.5 -37.5q-40 0 -71 20q-37 25 -37 61q0 17 14.5 28.5t34.5 16.5l14 -6l1 -3q-4 -5 -6 -6h-15q-13 0 -23 -9t-11 -23q0 -26 25 -44q27 -16 55 -16q51 0 99 36q26 20 39 41t13 47q0 44 -38 66.5t-86 22.5
q-83 0 -156 -52q-81 -57 -81 -137q0 -75 77 -119q66 -37 146 -37q124 0 225 94q71 65 159 208q107 175 139 215q46 58 109 97l68 36l1 3q-3 3 -14 6l-37 11q-42 11 -97.5 19t-97.5 8q-127 0 -233 -56q-130 -70 -130 -185q0 -41 36 -71q36 -27 81 -27q61 0 119 50t58 109
q0 26 -18 46.5t-46 20.5q-37 0 -75 -32t-38 -68q0 -28 26 -35l4 -5l1 -3q-2 -4 -4 -4l-3 -1q-14 0 -25 14q-8 14 -10 30q0 41 40 76.5t85 35.5q37 0 60 -26t23 -64q0 -65 -57 -112t-125 -47q-62 0 -112 44t-50 106q0 113 108 176q89 51 213 51q134 0 254 -33l41 -13
q5 -1 19.5 -4t22.5 -4q12 0 26 10l25 16l5 -2q9 -5 9 -14q0 -17 -12 -26q-7 -4 -30 -9q-73 -12 -129 -59q-43 -36 -86 -108q-14 -23 -26.5 -48t-38.5 -81q-59 -127 -99 -187q-57 -83 -135.5 -126.5t-203.5 -43.5q-104 0 -184 45q-95 54 -95 154q0 87 73 141q66 48 157 48z
" />
    <glyph glyph-name="J" unicode="J" horiz-adv-x="839" 
d="M625 396q0 112 155 179q64 27 253 69l52 13q31 9 46 26l12 14q9 9 15 9q9 0 13 -7l4 -18q0 -14 -8 -21q-3 -5 -22 -9l-32 -5l-26 -9q-20 -8 -41 -23t-37 -31q-50 -47 -107 -158q-45 -89 -75 -178l12 -1q41 0 73 33l15 18l3 1l4 -2l3 -6q-4 -25 -47 -41q-33 -12 -66 -12
q-37 -111 -75 -182q-48 -87 -112 -136q-71 -54 -182 -76l-37 -6l-37 -3q-119 0 -201 53q-99 63 -99 174t98 191q92 75 206 75q75 0 130 -35q66 -42 66 -112q0 -78 -76 -129q-69 -46 -150 -46q-40 0 -73 18q-40 22 -40 60q0 28 21 49t52 21q30 0 40 -22v-5l-2 -4l-6 -3l-4 4
q-3 13 -11 18l-16 3q-26 0 -46 -15.5t-20 -40.5q0 -33 30 -53q30 -18 67 -18q71 0 140.5 55.5t69.5 126.5q0 53 -41 81q-36 24 -92 24q-106 0 -207 -85q-106 -89 -106 -192q0 -84 81 -135q69 -42 161 -42q55 0 102.5 15t90.5 47q68 50 131 149q31 51 95 183q-58 14 -99 53
q-48 45 -48 99zM1038 626l1 3l-4 2q-15 0 -30 -4l-31 -8q-81 -21 -131 -43q-73 -31 -115 -76q-50 -55 -50 -126q0 -44 27 -80q27 -32 72 -40q49 99 71 136q43 78 82 126q44 57 108 110z" />
    <glyph glyph-name="K" unicode="K" horiz-adv-x="1007" 
d="M817 355q66 0 167 96l183 180q118 97 228 97q22 0 37.5 -3.5t19.5 -19.5q-3 -9 -8.5 -14.5t-16.5 -9.5q-6 0 -20 14q-12 15 -35 15q-67 0 -195 -116l-98 -94q-22 -19 -41 -36q-24 -21 -36 -30q-47 -36 -86 -54l-36 -14l-41 -14l-11 -4h-9l-2 -4l26 -13q45 -25 60 -111
l12 -139q9 -69 49 -69q26 0 49 36q6 10 13 26q4 10 13 35l4 3l4 1l6 -4l-1 -4q-3 -10 -5 -15l-6 -14q-18 -37 -36 -55q-24 -24 -60 -24q-13 0 -26 5t-24 13q-33 23 -47 61q-11 39 -11 91v32l1 33q0 42 -5 61q-9 35 -35 47l-11 -3l-4 1l-6 8v4l2 6l5 4h6l12 -4zM290 376
q64 0 111 -31q57 -36 57 -97q0 -53 -44 -91t-99 -38q-38 0 -66 16q-36 20 -36 56q0 21 14.5 35.5t35.5 14.5l9 -4q0 -8 -7 -9l-11 3q-14 0 -23.5 -13t-9.5 -28q0 -25 25 -39.5t53 -14.5q52 0 100 36t48 88q0 42 -42 66t-89 24q-79 0 -152 -52q-79 -58 -79 -134
q0 -70 75 -115q64 -38 140 -38q138 0 248 111q52 55 170 241q101 163 180 227q20 16 46 28t66 23l1 3l-15 7l-13 4q-57 17 -121 28q-27 5 -57 8t-61 3q-56 0 -108.5 -11t-99.5 -38q-56 -31 -90 -71q-22 -25 -33 -50.5t-11 -52.5q0 -45 35 -80t80 -35q57 0 115.5 51.5
t58.5 111.5q0 55 -55 55q-38 0 -78 -31t-40 -66q0 -27 24 -27l3 -2l2 -3q-5 -6 -9 -7l-6 1q-12 8 -19 18t-7 25q0 41 39.5 73.5t82.5 32.5q35 0 58 -23t23 -58q0 -62 -55 -112.5t-120 -50.5t-111 46t-46 112q0 107 109 165q89 47 207 47q43 0 60.5 -1.5t64.5 -8t99 -20.5
l74 -22q43 -10 72 -10q9 0 20 4l18 6q7 -3 8 -11l-4 -13q-3 -9 -7 -12t-20 -3l-25 4l-23 5q-69 0 -134 -68q-47 -50 -98 -149l-70 -146q-71 -142 -145 -201q-91 -73 -236 -73q-104 0 -182 41q-98 51 -98 147q0 82 71 140q67 53 152 53z" />
    <glyph glyph-name="L" unicode="L" horiz-adv-x="650" 
d="M572 356l-29 -2h-24q-84 0 -150 28q-89 36 -89 108t67 120q60 42 137 42q90 0 145 -68q9 -11 9 -17l-4 -5l-7 3q-12 28 -52 43t-80 15q-71 0 -128 -29q-71 -36 -71 -100q0 -72 88 -105q63 -22 151 -22h17h14l14 2q48 116 145 218q114 120 223 120q24 0 37 -10t13 -31
q0 -50 -85 -134q-63 -62 -132 -106q-26 -16 -66 -34l-71 -25q-66 -106 -113 -161q-16 -19 -38 -41t-46 -42q20 -13 39 -27t41 -32l75 -64q71 -63 117 -97q83 -60 132 -60q43 0 55 30l11 43l6 -1l2 -3l2 -9q0 -43 -41 -66q-34 -20 -81 -20q-66 0 -137 45q-6 4 -49.5 43.5
t-134.5 123.5l-76 61l-84 -49q-85 -47 -154 -47q-41 0 -70 20q-33 23 -33 62q0 54 58 91q25 15 51.5 23t57.5 8q51 0 102 -19q36 -13 94 -45q43 49 77.5 103.5t64.5 118.5zM986 666q0 30 -33 30q-78 0 -174 -123l-126 -192q81 21 158 76t131 125l27 40q15 27 17 44zM200 171
q-42 0 -81.5 -26.5t-39.5 -68.5q0 -35 30 -56q27 -16 65 -16q57 0 116 29q45 21 103 67q-30 27 -89 49t-104 22z" />
    <glyph glyph-name="M" unicode="M" horiz-adv-x="1029" 
d="M664 -1q-10 0 -16.5 9.5t-6.5 22.5q0 78 63 198q37 70 133 211q90 132 118 188l1 6q0 8 -7 9l-5 -2l-13 -10l-29 -30l-43 -52l-112 -146l-131 -181q-82 -105 -159 -160q-98 -69 -207 -69q-88 0 -154 42q-76 49 -76 133q0 79 69 132q63 48 146 48q64 0 113 -29
q58 -35 58 -95q0 -50 -47 -85q-21 -16 -44 -24t-50 -8q-20 0 -29 1t-24 7q-33 12 -33 37q0 11 2.5 16.5t10.5 10.5l5 1l4 -8l-5 -6l-5 -5l-2 -7q0 -18 23.5 -28t42.5 -10q47 0 92 27q50 30 50 77q0 48 -45 77q-38 23 -92 23q-78 0 -144 -47q-75 -53 -75 -127q0 -60 57 -99
q52 -35 114 -35q143 0 317 167q90 85 265 312q129 168 163 168q21 0 21 -23q0 -73 -83 -215q-26 -46 -154 -239q-83 -127 -83 -157l2 -8l5 -4h4l11 8l11 15l182 275q130 184 238 279q147 127 286 127l32 -3q12 -3 20 -14q0 -12 -6.5 -18t-19.5 -9l-27 21q-8 5 -19 7
q-63 0 -135 -65q-49 -44 -101 -118q-60 -86 -133 -230q-88 -176 -88 -240q0 -16 6.5 -28t24.5 -12q27 0 53 39l51 81l4 -5q0 -27 -43 -76.5t-68 -49.5q-34 0 -52 38q-13 31 -13 69q0 125 129 310q117 168 237 249q-87 -39 -175 -124q-73 -70 -149 -172q-20 -27 -51 -74
q-26 -39 -71 -107l-48 -75l-49 -75l-18 -22q-15 -15 -24 -15zM1066 704q12 -1 15 -6l2 -9q3 -12 -12 -18t-30 -6l-44 3l-34 5l-114 10l-112 5q-121 0 -229 -54q-132 -66 -132 -177q0 -44 37 -71q0 76 51 139t128 63q39 0 66 -23.5t27 -62.5q0 -64 -62 -110q-56 -41 -124 -41
l-36 3q-20 3 -34 10q3 -31 31 -55.5t62 -24.5q25 0 39 14l14 15q5 -5 6 -9q0 -11 -23 -20.5t-37 -9.5q-51 0 -78 42l-27 53q-40 25 -60.5 57t-20.5 78q0 103 129 160q50 21 104.5 32t115.5 11q46 0 94 -3t106 -10l87 -11l62 -4l12 1l5 3l4 4l-1 6q0 10 13 11zM479 365
q57 0 119 45q66 48 66 106q0 29 -21 45.5t-51 16.5q-66 0 -118 -55t-52 -125l1 -22l27 -8q12 -3 29 -3z" />
    <glyph glyph-name="N" unicode="N" horiz-adv-x="987" 
d="M691 698l151 -4l140 -3l43 1q12 1 17.5 2.5t19.5 6.5t21 25q3 7 14 11q7 0 13 -9v-4q-1 -2 -2 -4.5t-4 -6.5l-12 -11q-18 -15 -66 -21q-43 -4 -66.5 -4.5t-37.5 -0.5h-13h-11h-36l-30 1q-146 0 -220 -20q-121 -30 -177 -120q-11 -17 -18 -37t-7 -41q0 -42 32.5 -73.5
t75.5 -31.5q67 0 122 52.5t55 120.5q0 26 -15.5 43t-42.5 17q-42 0 -78 -36.5t-36 -80.5q0 -18 4 -22l19 -12l1 -6l-7 -3q-14 0 -26 19q-10 22 -10 37q0 41 40.5 77t83.5 36q39 0 64 -26.5t25 -65.5q0 -65 -56.5 -114t-122.5 -49t-112.5 45t-46.5 109q0 108 107 162
q84 41 205 41zM295 342q61 0 107 -28q54 -33 54 -93q0 -53 -43 -92.5t-99 -39.5q-38 0 -68 17q-37 22 -37 57q0 20 11 32t34 25h5q6 0 9 -8l-30 -16q-15 -11 -15 -29q0 -29 24 -46q21 -13 52 -13q53 0 97 31q49 35 49 86q0 45 -43 70q-18 10 -38.5 15t-47.5 5
q-78 0 -145 -43q-77 -48 -77 -123q0 -66 63 -110q56 -37 127 -37q56 0 102 19.5t95 57.5q30 24 61 54t64 66q54 60 109 134l101 141l91 123l29 39q22 27 34 29q14 0 18 -17l4 -37q0 -62 -25 -141q-21 -69 -56 -145l-61 -134q-24 -53 -37 -96q-4 -17 -7 -34.5t-3 -29.5l4 -18
l5 -4l7 4q18 21 45 78l39 86q84 170 114 222q79 135 162 211q105 94 220 94q24 0 37 -5.5t13 -15.5q0 -8 -9 -17q-8 -6 -20 -7l-3 2l-12 14q-12 12 -29 12q-81 0 -177 -97q-71 -71 -157 -208q-45 -72 -108 -189l-61 -111l-19 -36l-23 -36l-8 -10q-5 -6 -12 -8q-18 0 -25 35
q-4 33 -4.5 47t-0.5 23q0 63 20 132q16 60 49 132q23 51 30 66q19 36 29 56q34 67 49 103.5t15 56.5l-2 5q-5 0 -16 -9q-45 -57 -116 -163l-109 -167q-65 -98 -118 -163q-61 -76 -131 -117q-82 -50 -168 -50q-89 0 -156 46q-76 52 -76 137q0 80 68 132q63 48 146 48z" />
    <glyph glyph-name="O" unicode="O" horiz-adv-x="650" 
d="M727 686q42 0 67 -32.5t25 -77.5q0 -108 -84.5 -247t-205.5 -231q-130 -101 -240 -101q-75 0 -124 60t-49 135q0 152 153 314q77 80 153 120t154 40q28 0 47 -8l53 19q27 9 51 9zM676 596q0 -57 -50 -92q-44 -30 -104 -30q-11 0 -15 11q4 5 12 7l6 -2q9 -6 18 -6
q39 0 76.5 38.5t37.5 77.5q0 30 -25 42q-89 -68 -172 -168q-103 -127 -103 -209q0 -30 14 -51.5t42 -21.5q13 0 22 8l12 8l6 -5v-4q-14 -16 -35 -16q-39 0 -65 33q-11 16 -17 35t-6 41q0 95 96 209q84 99 184 150l-20 2q-74 0 -181 -100q-97 -91 -174 -217.5t-77 -198.5
q0 -54 34.5 -91.5t88.5 -37.5q67 0 144 58q49 38 115 111q50 58 99 127q67 94 102 163q47 92 47 146q0 27 -17.5 45t-45.5 18q-21 0 -40.5 -6.5t-41.5 -19.5q33 -20 33 -54z" />
    <glyph glyph-name="P" unicode="P" horiz-adv-x="902" 
d="M433 438q0 -45 24.5 -71t71.5 -26q57 0 116.5 54t59.5 111q0 24 -18.5 41.5t-43.5 17.5q-36 0 -72.5 -30.5t-36.5 -67.5q0 -30 30 -36l4 -5l-3 -5l-4 -1q-16 0 -27 18q-9 18 -9 36q0 40 38 69.5t78 29.5q35 0 58.5 -24.5t23.5 -59.5q0 -64 -55 -112t-121 -48
q-64 0 -105.5 43t-41.5 108q0 108 111 171q93 52 210 52q68 0 125 -14t115 -52q75 50 105 66q64 32 119 32q26 0 44 -11t18 -36q0 -43 -45 -77.5t-90 -34.5q-24 0 -45 11t-21 35q0 20 15 18l4 -6l-6 -12v-5q0 -9 14 -17q15 -6 27 -6q37 0 81 32q49 35 49 69q0 11 -11 20
t-36 9q-49 0 -111 -31q-53 -26 -99 -64q56 -53 73.5 -88t17.5 -72q0 -80 -58 -138t-138 -58q-26 0 -48 9t-35 31l3 10l4 2q9 -13 21 -24q12 -9 32 -9q61 0 118 79q52 73 52 139q0 65 -53 111q-40 -35 -83 -95q-16 -24 -33.5 -52t-37.5 -61l-61 -114q-54 -106 -87 -153
q-50 -73 -111 -109q-72 -42 -173 -42q-97 0 -168 40q-88 49 -88 138q0 77 72 128q64 44 147 44q62 0 111 -29q61 -35 61 -91q0 -53 -48 -89q-43 -31 -99 -31q-30 0 -58 17q-34 20 -34 47l1 10q4 13 14 14l4 -2l1 -4q-9 -11 -11 -22q0 -21 27 -31t50 -10q48 0 92 25
q52 29 52 73t-49 71q-40 20 -90 20q-78 0 -146 -40q-80 -47 -80 -120q0 -63 65 -104q59 -37 125 -37q56 0 105 17t87 52q66 61 146 180l128 197q78 111 157 172q-77 51 -170 51l-39 -2q-62 0 -120 -23.5t-106 -68.5q-33 -30 -56 -67q-26 -43 -26 -82z" />
    <glyph glyph-name="Q" unicode="Q" horiz-adv-x="650" 
d="M726 684q45 0 69 -32.5t24 -78.5q0 -79 -54 -189q-45 -93 -108.5 -166t-124.5 -122q-29 -21 -66 -43q-33 -19 -79 -40l56 -79q65 -94 127 -94q28 0 51.5 15.5t23.5 44.5q0 9 -7 22l-9 17l6 4q19 -10 19 -36q0 -42 -41.5 -71.5t-85.5 -29.5q-67 0 -119 67q-23 28 -70 126
l-27 -4l-32 -1q-69 0 -119 63q-44 58 -44 131q0 155 153 314t310 159l44 -3l50 17q30 9 53 9zM251 95q-16 0 -24 -14l-13 -27l-4 1l-4 8q0 15 19.5 27t36.5 14q28 0 62.5 -23t50.5 -51q65 37 166 151t169 229q77 131 77 206q0 24 -20 41q-18 18 -44 18q-13 0 -20 -1t-21 -7
q-20 -6 -40 -19q33 -21 33 -61q0 -50 -52 -86q-45 -30 -101 -30q-12 5 -15 9l7 8l29 -8q38 0 75.5 39.5t37.5 81.5q0 12 -6 20.5t-19 18.5q-60 -48 -115 -103q-71 -72 -111 -137q-50 -80 -50 -142q0 -30 15 -51q16 -19 45 -19q7 0 12 4l12 9l5 2q6 -2 6 -7q-6 -8 -16 -12
l-19 -4q-39 0 -63 33t-24 75q0 99 97 211q81 95 186 150h-17q-78 0 -186 -99q-98 -89 -175 -215.5t-77 -201.5q0 -51 34.5 -90t85.5 -39h23q14 0 33 8q-15 33 -31 52q-25 31 -50 31z" />
    <glyph glyph-name="R" unicode="R" horiz-adv-x="1007" 
d="M742 677q-172 0 -280 -135q-25 -31 -36 -56q-16 -35 -16 -64q0 -39 31 -66q31 -25 71 -25q57 0 116.5 59.5t59.5 116.5q0 20 -15.5 36.5t-36.5 16.5q-25 0 -45 -15.5t-20 -38.5l1 -12l-1 -5l-6 -3l-3 1l-3 2l-2 5l1 5q0 28 24.5 48.5t52.5 20.5q31 0 52.5 -24.5
t21.5 -57.5q0 -66 -58 -115t-128 -49q-63 0 -102.5 40.5t-39.5 103.5q0 108 113 175q96 57 214 57q63 0 127 -17.5t116 -52.5q45 29 77 49q24 15 37 22q68 35 130 35q38 0 64.5 -18.5t26.5 -55.5q0 -49 -47.5 -86t-98.5 -37q-27 0 -45 9q-25 13 -25 36q0 13 10.5 27.5
t22.5 14.5l4 -7l-13 -10q-12 -10 -14 -25q0 -13 13 -22q11 -5 28 -7q43 0 93 39t50 81q0 25 -21.5 37.5t-48.5 12.5q-58 0 -121 -33q-45 -23 -105 -73q39 -29 58 -65t19 -81q0 -68 -75 -113q-65 -37 -138 -37l-32 2q69 -32 89 -117l10 -134q0 -31 12 -47.5t33 -16.5
q29 0 50 45l16 41l8 3l6 -3v-6q0 -25 -34.5 -59.5t-59.5 -34.5q-52 0 -83 38q-29 38 -29 93l2 63l2 47q0 16 -1 28t-4 21q-9 31 -33 31l-12 -2l-12 8q-72 -125 -101 -166q-62 -86 -127 -126q-81 -49 -189 -49q-93 0 -159 38q-83 47 -83 132q0 80 67 132q62 48 145 48
q66 0 119 -28q64 -34 64 -96q0 -52 -47 -84q-42 -28 -96 -28q-35 0 -68 16q-41 20 -41 51q0 15 10.5 28.5t26.5 14.5l4 -5l-16 -10q-6 -4 -9 -7q-7 -8 -7 -21q0 -22 33 -37q27 -11 54 -11q51 0 94 25q51 30 51 77q0 39 -47 64q-40 19 -84 19q-73 0 -148 -41
q-87 -48 -87 -115q0 -71 62 -109q26 -16 57 -24t71 -8q89 0 164 51q60 42 120 123l97 147l73 104q46 64 84 107q49 55 92 88q-37 30 -90.5 43t-106.5 13zM823 334q61 0 114 62t53 124q0 29 -8 46.5t-26 40.5q-50 -51 -99 -128l-85 -139l4 1l29 -5z" />
    <glyph glyph-name="S" unicode="S" horiz-adv-x="734" 
d="M421 507q0 59 66 97q58 32 121 32q46 0 84 -17q37 -14 68 -48l12 -16q3 -4 5 -15l-6 -7l-6 4q-3 13 -7 18.5t-13 13.5l-17 14q-21 14 -59 23q-18 4 -33.5 6t-34.5 2q-63 0 -111 -27q-58 -34 -58 -91v-14q63 -6 104.5 -33t64.5 -84l34 -3l35 -3q22 0 32.5 1t33.5 7
q36 61 85 131q68 96 123 150q74 72 124 72q15 0 24.5 -10.5t10.5 -26.5q0 -27 -28 -74q-21 -36 -48 -66q-53 -61 -108 -100.5t-130 -74.5q-62 -143 -81 -179q-51 -94 -111 -139q-76 -55 -189 -55q-107 0 -185 57q-86 63 -86 168q0 107 90 184q79 65 195 79zM1093 682
q0 28 -31 28q-63 0 -157 -133q-44 -63 -114 -194q75 27 152 92q72 60 118 134l20 35q12 24 12 38zM577 369q-6 39 -42 67.5t-77 28.5l-21 -1q23 -42 58 -65q24 -15 82 -30zM661 349l-35 1l-22 3l1 -30q0 -74 -57.5 -129.5t-135.5 -55.5q-48 0 -81 24q-37 28 -37 74
q0 49 42 82t90 33q11 0 26.5 -5t21.5 -16q-1 -6 -7 -7l-14 11q-8 6 -19 6q-37 0 -81 -38.5t-44 -77.5q0 -32 25 -52.5t59 -20.5q74 0 130 65t56 141q-58 14 -89 35q-36 24 -64 73l-32 -8q-85 -18 -158.5 -100.5t-73.5 -166.5q0 -75 58.5 -122.5t136.5 -47.5q94 0 166 53
q60 42 115 127l90 154l-40 -4z" />
    <glyph glyph-name="T" unicode="T" horiz-adv-x="839" 
d="M533 720q68 0 152 -24q18 -5 52 -17t94 -34l92 -30q54 -15 96 -15q25 0 46 12t21 37q0 34 -43 56q-36 17 -76 17q-30 0 -54 -11.5t-27 -38.5l-5 -5q-6 0 -9 11q11 27 35.5 40t60.5 13q46 0 82 -20q46 -25 46 -66q0 -42 -45 -72q-39 -27 -84 -27q-56 0 -139 34l-161 68
q-97 37 -158 37l-48 -2q18 -28 28 -54q4 -11 6 -24t2 -32q0 -48 -31 -95q-35 -52 -82 -52q-38 0 -61.5 30.5t-23.5 70.5q0 60 38 104q27 32 91 69q-23 23 -56 36t-64 13q-58 0 -99 -34t-41 -91q0 -29 14 -51t39 -30l15 -3l11 -3l3 -6l-5 -7q-36 0 -62 32q-25 34 -25 71
q0 54 43 92.5t100 38.5q54 0 91 -19l50 -34l50 11zM309 520q0 -32 20.5 -58t52.5 -26q46 0 72 50q21 41 21 93q0 30 -6 56t-22 45q-57 0 -98 -50q-20 -25 -30 -52t-10 -58zM784 559h28q15 -3 31.5 -5t29.5 -10l2 -6l-3 -4l-4 1q-15 0 -36 5l-33 6q-125 0 -252 -139
t-127 -266q0 -59 39 -101.5t102 -42.5q96 0 195.5 110t99.5 206q0 41 -22.5 65.5t-63.5 24.5q-69 0 -135 -67t-66 -137q0 -28 17.5 -51.5t44.5 -23.5q32 0 53.5 15.5t42.5 72.5l2 2h5q5 -4 5 -7l-14 -30q-16 -29 -35 -45t-52 -16q-39 0 -66 31q-25 31 -25 73
q0 77 62.5 136.5t140.5 59.5q59 0 94 -37t35 -98q0 -109 -98.5 -203t-209.5 -94q-84 0 -140 65q-51 60 -51 148q0 144 131 256q126 106 273 106z" />
    <glyph glyph-name="U" unicode="U" horiz-adv-x="756" 
d="M888 671l-1 -3q0 -10 7 -14t20 -6q8 0 19 7l19 15l6 1l-109 -188q-89 -157 -135 -254q-67 -140 -67 -182q0 -16 7.5 -26.5t23.5 -11.5q28 0 60 47l40 72l13 19l10 -6q-9 -32 -49 -86q-45 -59 -74 -59q-30 0 -46 31q-12 24 -12 58q0 57 45 164q7 18 28.5 62.5t48.5 96.5
l-102 -145q-86 -116 -146 -179q-85 -88 -131 -88q-32 0 -50 37q-13 31 -13 67q0 69 63 159l117 151q63 89 63 161q0 51 -43 82t-98 31q-97 0 -183 -74q-92 -78 -92 -173q0 -23 12 -44q12 -17 35 -35q-1 5 -2 19t-1 15q0 75 52.5 143.5t125.5 68.5q39 0 62 -26t23 -65
q0 -71 -61.5 -126.5t-133.5 -55.5q-15 0 -23 2l-28 8q9 -32 34 -58q27 -25 58 -25q24 0 41 14.5t21 41.5l6 4l6 -3l2 -5q-7 -26 -28 -44q-21 -16 -48 -16q-36 0 -66 30q-24 25 -37 65q-41 26 -62 55q-24 33 -24 80q0 92 90 160q81 60 181 60q86 0 148 -45q67 -50 67 -134
q0 -72 -65 -171l-121 -165q-65 -91 -65 -136q0 -18 12 -30t31 -12q51 0 172 146q47 57 98.5 130t110.5 164q101 159 132 224h6zM231 344q63 0 123.5 60.5t60.5 126.5t-68 66q-63 0 -114.5 -69.5t-51.5 -136.5q0 -18 6 -38l21 -6z" />
    <glyph glyph-name="V" unicode="V" horiz-adv-x="797" 
d="M576 17q49 41 94 101q34 45 80 119l71 122q39 68 98 139l114 127q-21 6 -43 11.5t-50 10.5q-47 9 -89 9q-47 0 -85 -22q-46 -28 -46 -71q0 -34 23 -54q25 -19 61 -19l17 3q11 4 21 11h4l3 -2l2 -3q-7 -10 -23 -16l-32 -4q-36 0 -62 25q-24 26 -24 64q0 61 53 97.5
t117 36.5q18 0 32.5 -2t36.5 -9l112 -43q69 52 111 77q66 36 130 36q33 0 54 -11q29 -15 29 -44q0 -50 -64 -83q-24 -11 -52.5 -18t-57.5 -7q-16 0 -33.5 1t-37.5 4l-77 15q-50 -49 -110 -130l-97 -141l-76 -109q-24 -35 -28 -40q-11 -14 -54 -67t-87 -96l-36 -33l-39 -32
l-16 -13q-11 -8 -19 -10q-21 0 -35 20l-2 5q6 5 11 5q52 0 108 84q42 65 60 134q2 7 5.5 24t5.5 30l3 59q0 142 -78 243q-85 109 -223 109q-98 0 -161.5 -60.5t-63.5 -158.5q0 -17 2 -29.5t9 -28.5q12 -28 35 -52q12 74 72.5 123.5t135.5 49.5q57 0 100 -34t43 -89
q0 -68 -59 -108q-53 -36 -124 -36q-42 0 -90.5 18t-71.5 47l-1 -12q0 -77 55.5 -128.5t132.5 -51.5q53 0 93.5 23.5t60.5 72.5l6 15l10 -2l1 -4q0 -43 -64 -82q-59 -34 -105 -34q-88 0 -143.5 60t-55.5 149q-13 17 -18 25q-13 20 -21 40q-14 34 -14 75q0 108 83.5 184
t192.5 76q140 0 224 -94q79 -91 79 -234q0 -96 -33 -188.5t-94 -166.5zM1223 615q51 0 95 19q58 24 58 68q0 24 -22 36t-52 12q-25 0 -44.5 -4t-45.5 -16q-57 -24 -128 -89l71 -19q18 -3 34.5 -5t33.5 -2zM365 258q58 0 102 32q50 36 50 91q0 50 -43 82t-96 32
q-70 0 -132 -52t-62 -119q50 -34 85 -48q45 -18 96 -18z" />
    <glyph glyph-name="W" unicode="W" horiz-adv-x="923" 
d="M352 703q102 0 162 -70q56 -67 56 -171q0 -112 -46 -220q-39 -94 -118 -194l-3 -5l5 -1l32 3q55 46 102 125q33 55 73 145l20 45l12 30l18 56q23 72 43 115q30 65 67 102q8 9 19 17.5t26 17.5q30 18 55 18q9 0 13 -7l-1 -7l-21 -10q-24 -12 -39 -110q-10 -77 -10 -129
q0 -111 -17 -197.5t-63 -175.5l-16 -28l-12 -29l4 -2q5 1 11 7l7 7q63 61 122 163l91 175q54 105 108 168q17 20 21 24q17 19 32 33q-18 8 -57 15l-60 7q-43 0 -77.5 -22.5t-34.5 -64.5q0 -23 9 -37.5t34 -18.5q6 -3 7 -8l-3 -3l-3 -2h-5q-17 0 -35 24q-9 14 -12.5 23
t-3.5 20q0 54 47 98q23 21 49 32t55 11t67 -12q24 -7 63 -27q50 39 101 63t107 24q42 0 65 -10q34 -15 34 -52q0 -42 -54 -69q-22 -10 -45.5 -16t-47.5 -6q-33 0 -47 1.5t-41 6.5l-86 19q-42 -45 -98 -143l-52 -92q-38 -69 -70 -119q-40 -63 -77.5 -112.5t-91.5 -103.5
l-45 -41q-19 -14 -31 -14q-8 0 -18 3.5t-10 10.5l11 8q55 27 76 133l16 165q0 101 16 191q21 119 62 179l22 31l-3 5h-4q-45 0 -91 -80q-18 -31 -54 -120l-43 -106l-66 -201q-54 -124 -139 -142q-28 -23 -61 -42q-43 -23 -69 -23q-3 1 -6 2.5t-11 7.5q-12 9 -12 14q0 8 11 9
l14 2q56 9 98 58q51 61 79 143q14 43 21 82t7 84q0 108 -50 186q-59 94 -159 94q-70 0 -116.5 -46t-46.5 -115q28 23 60.5 36t66.5 13q66 0 115 -37q53 -41 53 -105q0 -45 -37 -72q-33 -24 -79 -24q-73 0 -123 45.5t-68 120.5l-22 -37q-18 -33 -18 -67q0 -54 35 -97.5
t88 -43.5q24 0 39.5 9.5t30.5 34.5l4 2q5 -5 7 -9q0 -17 -28 -35q-29 -16 -48 -16q-59 0 -98.5 43.5t-39.5 103.5q0 16 3 32.5t10 34.5q12 32 37 56v7q0 90 66 148t158 58zM1314 588q24 0 42.5 3t36.5 11q47 18 47 58q0 30 -33 42q-22 8 -60 8q-50 0 -100 -25
q-42 -21 -85 -61l74 -24q42 -12 78 -12zM334 331q38 0 64 20t26 57q0 55 -46 93.5t-104 38.5q-43 0 -69 -10.5t-64 -39.5q0 -68 64 -117q54 -42 129 -42z" />
    <glyph glyph-name="X" unicode="X" horiz-adv-x="923" 
d="M647 295q-71 0 -107 -13q-61 -21 -61 -80q0 -21 16 -36q18 -13 40 -13q7 -1 9 -2.5t3 -2.5l-2 -6l-16 -3q-23 0 -41.5 20.5t-18.5 44.5q0 27 18 51t42 39t66 21t83 6l73 -1q29 47 51 109t22 115q0 76 -49 120.5t-128 44.5q-87 0 -165 -85t-78 -173q0 -42 27.5 -69
t71.5 -27q64 0 130 65q34 34 50.5 66t16.5 65q0 27 -14 44q-12 17 -41 17q-39 0 -79 -37t-40 -78l2 -10l6 -10l-2 -3h-4q-6 0 -12 10l-3 18q0 43 42.5 81t87.5 38q34 0 56 -22.5t22 -58.5q0 -74 -66 -135t-143 -61q-60 0 -99 43.5t-39 104.5q0 104 90 170q81 57 191 57
q96 0 156.5 -59.5t60.5 -156.5q0 -46 -16 -95q51 81 102 138q67 75 135 118q81 49 162 49q19 0 33 -1t23 -4q34 -9 34 -39q0 -12 -9.5 -24.5t-24.5 -12.5q-13 0 -18.5 6.5t-5.5 31.5q0 13 -15 19t-32 8q-74 0 -161 -69q-69 -56 -139 -153q-51 -72 -94 -158h51q41 0 64 6
q40 11 40 40l-1 10q2 11 8 12l4 -3l3 -13l-2 -9l-4 -11q-15 -31 -59 -47q-35 -12 -78 -12l-36 3q-24 -59 -36 -106q-8 -32 -12 -58t-4 -53q0 -31 10.5 -52.5t38.5 -21.5q37 0 69 50l63 111l3 -2l2 -4q0 -6 -10 -26l-12 -24q-27 -53 -47 -77q-33 -41 -77 -41q-33 0 -54 40
q-17 34 -17 71q0 38 7 72q4 24 7.5 37.5t12.5 37.5q-84 -115 -182 -179q-114 -73 -242 -73q-94 0 -165 39q-86 48 -86 135q0 64 50 107t115 43q47 0 84 -17q51 -23 51 -62q0 -15 -12 -27q-11 -9 -28 -11q-11 0 -23 9q-8 9 -10 22q3 8 5 12l14 27q-6 17 -28 26t-43 9
q-56 0 -99 -43t-43 -99q0 -75 61 -118q53 -36 133 -36q124 0 235 89q86 68 170 194z" />
    <glyph glyph-name="Y" unicode="Y" horiz-adv-x="859" 
d="M435 508q58 0 102 -29q51 -33 51 -89q0 -68 -59 -111q-54 -39 -125 -39q-45 0 -90.5 17t-71.5 45v-18q0 -72 56 -122t129 -50q49 0 95 26q55 31 55 75l4 6l7 1l6 -6q-4 -46 -63 -81q-51 -30 -103 -30q-93 0 -146 59t-53 153q-22 28 -37 61q-5 14 -9 33t-4 35
q0 114 81 190.5t196 76.5q130 0 209 -98q72 -90 72 -226q0 -124 -39.5 -227.5t-124.5 -194.5q89 66 176 200l144 234q92 134 198 207l-97 26q-60 15 -99 15q-52 0 -85 -23q-20 -14 -30 -32t-10 -44q0 -30 26.5 -49.5t56.5 -19.5q24 0 32 8l19 20l5 -1l2 -3v-5
q-4 -14 -22 -23q-19 -7 -36 -7q-43 0 -69 25.5t-26 66.5q0 53 54 94q49 35 107 35q51 0 131 -28l77 -28q91 57 140 75t93 18q34 0 60.5 -14.5t26.5 -47.5q0 -45 -62 -72q-49 -20 -104 -20q-27 0 -40 1.5t-42 6.5q-50 8 -81 19q-73 -74 -130 -143q-34 -41 -61 -76.5
t-56 -78.5q-96 -143 -153 -212q-95 -116 -190 -176q-117 -73 -249 -73q-88 0 -152 41q-75 48 -75 131q0 52 37.5 88t91.5 36q42 0 80.5 -22.5t38.5 -64.5q0 -18 -12.5 -33.5t-32.5 -15.5q-13 0 -26 12t-13 27q0 9 16.5 18t17.5 24q0 21 -24 33t-50 12q-38 0 -67 -32t-29 -69
q0 -81 74 -130q63 -42 151 -42q168 0 285 151q108 140 108 314q0 135 -77 233q-84 107 -216 107q-88 0 -151.5 -54.5t-63.5 -144.5q0 -66 42 -114q24 76 74 119.5t129 43.5zM1307 589q44 0 80 15q48 20 48 58q0 28 -21.5 40.5t-52.5 12.5q-21 0 -43 -4t-46 -13
q-46 -17 -123 -73q39 -16 78 -27q39 -9 80 -9zM413 265q63 0 110 31q53 36 53 97q0 48 -46 76.5t-95 28.5q-76 0 -127 -45q-44 -40 -65 -119q41 -32 82 -52q40 -17 88 -17z" />
    <glyph glyph-name="Z" unicode="Z" horiz-adv-x="587" 
d="M424 180q-32 12 -47 25q-20 18 -20 48q0 54 79 79q57 18 125 18l84 108q28 35 52.5 63.5t45.5 48.5q58 58 106 84h-11q-51 0 -153 15t-153 15q-105 0 -187 -41q-105 -51 -105 -146q0 -45 30 -77q31 -29 77 -29q62 0 126.5 49.5t64.5 111.5q0 26 -15.5 42.5t-42.5 16.5
q-36 0 -70 -30t-34 -67l6 -18l7 -13l-4 -5l-4 -1q-8 3 -13 12l-4 21q0 42 36 75t81 33q34 0 57.5 -24.5t23.5 -58.5q0 -65 -63 -118q-59 -48 -128 -48q-63 0 -105.5 40.5t-42.5 103.5q0 104 83 169q77 60 184 60q25 0 56 -4t65 -13l118 -33l64 -15q23 -4 32.5 -4.5
t21.5 -0.5q33 0 52 25q0 11 5 15l11 5l7 -5q9 -14 9 -22q0 -13 -6.5 -18.5t-25.5 -12.5q-40 -15 -55 -24.5t-44 -44.5q-50 -57 -97.5 -116.5t-92.5 -125.5l36 -2l36 -2q27 0 36.5 1.5t25.5 7.5t31 36q5 10 12 17l4 1l4 -2l2 -3l-2 -10q-33 -45 -55 -62q-32 -24 -79 -24
l-46 3q-31 3 -35 5l-73 -82l-47 -47h15q34 0 74.5 15t57.5 41l8 15l6 14l4 2q9 -2 9 -11l-2 -5l-3 -6q-24 -41 -78 -61q-42 -13 -101 -13l-74 -70q69 -55 140 -123l100 -92q65 -55 119 -84q70 -38 128 -38q39 0 69.5 19.5t30.5 58.5q0 18 -24 27.5t-27 29.5q6 28 36 28
q21 0 33.5 -15.5t12.5 -36.5q0 -63 -62 -103q-56 -34 -121 -34q-105 0 -213 81q-33 24 -172 160l-36 32l-63 54q-69 -43 -92 -55q-55 -26 -103 -26q-31 0 -52 14q-26 17 -26 47q0 52 59 84q51 28 106 28q37 0 72 -13q23 -8 67 -31l33 30zM535 317l-20 2h-17q-46 0 -81 -12
q-50 -17 -50 -55q0 -25 18 -42q18 -15 45 -21zM183 133q-41 0 -77 -20q-43 -25 -43 -63q0 -24 19.5 -37t44.5 -13q48 0 99 24q21 10 42.5 23.5t44.5 32.5q-40 26 -61 36q-37 17 -69 17z" />
    <glyph glyph-name="bracketleft" unicode="[" horiz-adv-x="420" 
d="M370 603l-8 13l1 3l3 2l4 1l29 -6l36 -1l58 2l44 2q9 0 13 -5q-1 -3 -1.5 -5t-5.5 -8l-10 -2l-16 2q-52 0 -73 -17q-15 -12 -43 -64l-259 -487l-42 -81q-32 -64 -36 -80q3 -8 13 -14q7 -3 23 -5l21 1l21 1q8 0 12 -7v-4l-1 -4l-4 -4l-5 -2l-106 2l-37 -1h-14t-21 -4l-6 2
l-2 5l4 6l15 8q20 15 42 52l33 61l266 505l31 66q21 48 21 67z" />
    <glyph glyph-name="backslash" unicode="\" horiz-adv-x="266" 
d="M-16 705h63l235 -723h-64z" />
    <glyph glyph-name="bracketright" unicode="]" horiz-adv-x="420" 
d="M406 587q0 10 -13 14l-25 3l-42 -2l-8 6v5l1 4l4 4l21 4l25 1l58 -2l44 -2h19q9 0 20 4l4 -6l-6 -7l-11 -7q-8 -3 -21 -22l-19 -30l-104 -192l-101 -194l-101 -195l-28 -59q-19 -46 -19 -61l9 -11l-2 -5l-7 -4l-30 6l-35 1l-58 -2l-43 -2l-12 2l-2 4v5l7 9l10 2l20 -2
q50 0 74 21q15 12 42 67l309 589l13 29z" />
    <glyph glyph-name="asciicircum" unicode="^" horiz-adv-x="0" 
d="M346 760l-7 6l29 16q38 15 61 41l21 27l12 12l5 -4l1 -4l-2 -16l-2 -16q0 -18 2.5 -27t10.5 -16l9 -7l8 -7l-8 -4q-18 0 -32 11q-9 6 -22 26q-12 -11 -39.5 -24.5t-46.5 -13.5z" />
    <glyph glyph-name="underscore" unicode="_" horiz-adv-x="532" 
d="M0 -119v47h532v-47h-532z" />
    <glyph glyph-name="grave" unicode="`" horiz-adv-x="0" 
d="M112 486q15 0 40 -46q12 -24 32 -28l12 -1q8 -1 8 -7v-4l-7 -3q-33 0 -67 17q-41 18 -41 48q0 7 7.5 15.5t15.5 8.5z" />
    <glyph glyph-name="a" unicode="a" 
d="M353 345l4 -1v-5v-6q5 -4 18 -7l16 3l20 15l6 -2q-38 -51 -87.5 -143t-69.5 -149l-9 -30q0 -9 10 -16l9 -2q24 0 66 66l30 48l6 1l3 -5q0 -21 -42.5 -69t-65.5 -48q-18 0 -24 19.5t-6 42.5q0 35 18 86l20 51q-27 -49 -81 -114q-68 -82 -100 -82q-16 0 -24 18q-7 21 -7 39
q0 92 67 183q72 98 160 98q11 0 20 -9.5t9 -31.5l-3 -21zM98 7q37 0 124.5 125.5t87.5 169.5q0 26 -26 26q-33 0 -118 -131.5t-85 -172.5q0 -17 17 -17z" />
    <glyph glyph-name="b" unicode="b" horiz-adv-x="315" 
d="M321 331q21 0 30.5 -21.5t9.5 -46.5q0 -84 -74 -174q-78 -96 -159 -96q-30 0 -50 18.5t-20 51.5q0 29 53 131q13 26 30 56.5t44 77.5l97 172q63 100 125 149q81 63 184 63q24 0 41.5 -5.5t17.5 -26.5q0 -6 -10 -15.5t-19 -9.5q-12 0 -24.5 22t-46.5 22q-68 0 -145 -99
q-26 -35 -100 -162l-155 -273q33 48 78 98q62 68 93 68zM119 2q47 0 131 124.5t84 175.5q-1 5 -2 6l-2 5q-4 6 -15 8q-38 0 -131.5 -124t-93.5 -168q0 -10 9 -19q8 -6 20 -8z" />
    <glyph glyph-name="c" unicode="c" horiz-adv-x="272" 
d="M294 337q54 0 54 -51q0 -27 -17 -58t-43 -31q-8 0 -16 8q-5 8 -7 18q0 33 32 42l33 9q6 8 6 22q0 33 -34 33q-53 0 -130 -111.5t-77 -169.5q0 -19 11 -30t30 -11q37 0 73 40l70 90l4 -6q0 -29 -56.5 -81.5t-87.5 -52.5q-36 0 -54.5 29t-18.5 68q0 83 72.5 163t155.5 80z
" />
    <glyph glyph-name="d" unicode="d" horiz-adv-x="356" 
d="M750 713q26 0 39.5 -6t15.5 -18q0 -9 -10 -19t-21 -12q-10 0 -27 21q-15 21 -40 21q-53 0 -115 -66q-44 -47 -100 -142l-70 -127l-94 -170q-72 -135 -72 -161q0 -27 16 -28q23 0 50 37l55 78l3 -6l-6 -12l-17 -27q-16 -27 -36 -49q-27 -29 -50 -29q-17 0 -26 19
q-6 18 -6 45q0 21 1.5 30.5t6.5 26.5l19 55q-34 -59 -74 -106q-61 -73 -94 -73q-19 0 -28.5 23t-9.5 46q0 83 72 173q76 94 158 94q15 0 23 -10.5t8 -26.5l-2 -14q0 -6 -5 -14l101 194q66 115 135 176q91 77 200 77zM101 3q37 0 123.5 126.5t86.5 169.5q0 24 -22 24
q-39 0 -122.5 -124t-83.5 -169q0 -27 18 -27z" />
    <glyph glyph-name="e" unicode="e" horiz-adv-x="252" 
d="M90 47q0 -18 10.5 -30.5t28.5 -12.5q46 0 99 71l45 61l4 2l4 -1l1 -3l2 -3l-12 -20l-13 -20q-25 -35 -57 -62q-42 -34 -76 -34q-31 0 -49 31q-8 17 -12 32.5t-4 34.5q0 75 75 159t152 84q32 0 32 -34q0 -58 -64 -103q-60 -40 -121 -40q-27 -50 -36 -72.5t-9 -39.5z
M151 169q41 0 97.5 48t56.5 91q0 21 -21 21q-26 0 -80 -66q-46 -56 -63 -94h10z" />
    <glyph glyph-name="f" unicode="f" horiz-adv-x="189" 
d="M111 321l3 5l31 2l25 -1h24l89 167q60 99 121 151q79 65 172 65q26 0 41 -6q11 -6 13 -18q0 -11 -10.5 -20t-22.5 -11q-10 0 -19 13q-18 29 -38 29q-52 0 -115 -75q-41 -49 -101 -158l-72 -135h49l23 -1q12 0 12 -6t-9.5 -9t-27.5 -3l-53 3l-82 -162l-85 -162
q-55 -101 -91 -146q-69 -87 -136 -87h-9q-21 0 -41 8t-20 28q0 11 7.5 17t18.5 8q16 0 21.5 -25.5t32.5 -25.5q31 0 90 90q35 55 98 182l67 137l69 139l-28 -2l-20 -2q-12 0 -18.5 1.5t-8.5 9.5z" />
    <glyph glyph-name="g" unicode="g" horiz-adv-x="356" 
d="M108 -4q-25 0 -38 25q-11 25 -11 55q0 86 78.5 171.5t164.5 85.5q40 0 40 -40l-3 -21l44 64l11 -3l16 -2l27 2l27 2l3 -2v-7l-2 -2l-5 -2h-10q-21 0 -75 -88q-39 -65 -97 -176q-31 -62 -48 -94q-7 -14 -17 -32q-49 -90 -101 -134q-67 -56 -156 -56q-40 0 -71 14
q-43 18 -43 53q0 16 10 26.5t25 10.5q11 0 19 -8t8 -19q0 -6 -8.5 -17t-8.5 -18q0 -16 25 -26q17 -6 39 -6q86 0 164 105q22 29 103 181l42 71q7 13 20 40q10 22 15 35q-57 -83 -83 -111q-66 -77 -104 -77zM113 5q22 0 75.5 60.5t99 132.5t45.5 96q0 30 -26 30
q-45 0 -132.5 -120.5t-87.5 -170.5q0 -10 7 -20q6 -6 19 -8z" />
    <glyph glyph-name="h" unicode="h" 
d="M583 710q20 0 31.5 -3.5t13.5 -18.5q0 -30 -32 -30q-3 2 -5 4q-6 6 -13 14q-14 18 -39 18q-47 0 -97 -50q-34 -34 -68 -91l-61 -109l-58 -107l-43 -79l-70 -134q39 62 89 121q74 91 102 91q20 0 30 -25q7 -21 7 -42q0 -43 -64.5 -136t-64.5 -112v-6q6 -12 16 -12
q23 0 52 41l42 60l5 2q5 -4 6 -8q0 -17 -45 -61t-62 -44q-19 0 -29 20q-4 11 -6 21t-2 25q0 54 62.5 139t62.5 113q0 13 -10 14q-27 0 -97 -89q-75 -96 -161 -240l-5 1l-3 8q-5 3 -14 5q-8 0 -16 -3.5t-15 -10.5l-6 1l94 169l90 170l90 168q57 96 117 144q79 62 176 62z" />
    <glyph glyph-name="i" unicode="i" horiz-adv-x="189" 
d="M307 490q23 0 23 -26q0 -17 -18.5 -37t-37.5 -20t-19 22q0 18 18 39.5t34 21.5zM205 313q0 14 -18 14t-44 -32l-53 -64l-4 5q13 22 23.5 37t21.5 28q33 36 64 36q15 0 26 -21q9 -21 9 -41q0 -40 -66 -126.5t-66 -120.5q0 -7 5.5 -14.5t15.5 -9.5q21 0 52 40l43 58l7 -4
q-6 -23 -44.5 -63t-60.5 -40q-19 0 -31 22q-5 11 -8 22t-3 24q0 52 65.5 139t65.5 111z" />
    <glyph glyph-name="j" unicode="j" horiz-adv-x="169" 
d="M240 436q0 15 17 34.5t33 19.5q5 0 14 -6q6 -6 6 -13q0 -16 -17.5 -38t-33.5 -22q-9 0 -13 4.5t-6 20.5zM-195 -180q17 0 22.5 -26.5t28.5 -26.5q14 0 37 18q10 8 11 9q8 8 19 23l28 40l26 43q98 167 153.5 275.5t55.5 135.5q0 16 -20 16q-18 0 -40 -28l-62 -78l-3 3
l2 10q51 67 63 79q26 24 50 24q18 0 27 -18.5t9 -39.5q0 -22 -7 -48.5t-25 -66.5q-24 -57 -70 -137l-66 -109q-46 -66 -85 -102q-62 -57 -117 -57q-22 0 -39 6q-24 9 -24 28q0 11 6 18t20 9z" />
    <glyph glyph-name="k" unicode="k" horiz-adv-x="356" 
d="M592 711q22 0 38 -4.5t16 -23.5q0 -9 -9.5 -18.5t-21.5 -9.5q-4 2 -6 4q-7 6 -16 16q-15 21 -40 21q-68 0 -142 -93q-15 -20 -39.5 -60.5t-55.5 -95.5l-147 -268q45 56 97 102q75 67 114 67q33 0 33 -33q0 -50 -77 -90q-57 -29 -123 -40q32 -13 46 -32.5t14 -54.5l-3 -57
q0 -14 5 -25.5t17 -11.5q17 0 35 28l24 44h6l3 -4l1 -4l-7 -16q-11 -23 -28 -38q-22 -19 -42 -19q-26 0 -46.5 21.5t-20.5 49.5q0 21 2 31l7 51q0 15 -11 25q-9 10 -26 16q-32 -37 -64 -90.5t-55 -107.5l-7 13q-5 4 -15 4q-9 0 -17 -5l-16 -14l69 127l68 127l68 129
q65 122 88 155q57 87 116 130q74 54 168 54zM216 195q40 0 91 27q59 32 59 68q0 9 -6 15.5t-16 8.5q-24 0 -77 -46q-45 -39 -66 -69z" />
    <glyph glyph-name="l" unicode="l" horiz-adv-x="189" 
d="M592 712q22 0 31 -5q11 -3 11 -21q0 -10 -8 -18t-19 -8q-6 0 -23 18q-15 18 -37 18q-23 0 -54.5 -17t-50.5 -38l-36 -39q-24 -26 -104 -159q-75 -129 -133 -242q-66 -132 -66 -165q0 -13 5.5 -22.5t18.5 -10.5q17 0 54 44t37 60l7 4l4 -5q0 -20 -40 -66.5t-59 -46.5
q-28 0 -40.5 21.5t-12.5 53.5q0 50 37 137q32 75 82 163q34 60 79 128q65 96 129 148q85 68 180 68h8z" />
    <glyph glyph-name="m" unicode="m" horiz-adv-x="483" 
d="M186 311q2 11 -8 16l-9 3q-17 -4 -44 -40l-52 -75l-4 5q0 18 42.5 67.5t63.5 49.5q15 0 21.5 -15.5t6.5 -35.5q0 -25 -15 -69q-7 -24 -28 -69l71 108q59 80 88 80q18 0 26 -30l3 -27q0 -18 -15 -66q-13 -48 -25 -68l78 110q63 81 92 81q18 0 28 -14.5t10 -33.5
q0 -54 -58 -143.5t-58 -109.5q0 -12 6 -21t19 -9q16 0 43 33l48 72l6 -5q0 -22 -40 -65.5t-62 -43.5q-20 0 -32.5 25.5t-12.5 48.5q0 43 57 134.5t59 108.5q0 16 -17 16q-23 0 -78 -74q-23 -33 -45 -66q-18 -28 -53 -84q-49 -83 -63 -112l-4 9l-1 4q-8 6 -17 6q-6 0 -17 -7
l-16 -13l-4 2l89 160q66 125 66 156q0 7 -6 12l-13 4q-20 0 -84 -92q-69 -100 -151 -242q-6 12 -13 15h-9q-8 0 -16.5 -4t-16.5 -12l-6 1l97 161q73 129 73 158z" />
    <glyph glyph-name="n" unicode="n" 
d="M184 304q0 21 -16 21q-19 0 -42 -30l-49 -67l-4 8l41 60q31 37 58 37q17 0 24 -15t7 -31t-3 -34t-11 -39q-3 -10 -10 -27t-19 -42q57 89 104.5 139.5t69.5 50.5q12 0 21.5 -14t9.5 -43q0 -52 -57.5 -136t-57.5 -110q0 -9 5.5 -16.5t16.5 -9.5q21 0 47 35l34 54q9 0 9 -6
q0 -16 -37 -54.5t-55 -38.5q-19 0 -31 25q-10 27 -10 49q0 24 8.5 49t26.5 54q78 125 78 139q-2 7 -4 9.5t-7 4.5q-34 0 -132 -144q-69 -102 -113 -186l-4 1q-4 10 -14 14h-8q-10 0 -19 -5q-9 -3 -17 -11h-4q39 57 94 155q35 63 52.5 101t17.5 53z" />
    <glyph glyph-name="o" unicode="o" horiz-adv-x="315" 
d="M286 340q39 0 57 -34q13 -26 13 -70q0 -80 -71.5 -161.5t-152.5 -81.5q-38 0 -56 34q-3 7 -8 25.5t-5 44.5q0 82 70.5 162.5t152.5 80.5zM131 2q52 0 126 123q69 117 69 176q0 16 -11 24.5t-26 8.5q-53 0 -128 -124q-68 -116 -68 -178q0 -11 12 -22q10 -6 26 -8z" />
    <glyph glyph-name="p" unicode="p" 
d="M184 306q0 9 -6.5 15t-12.5 6q-24 0 -55 -49l-41 -70l-5 -1q-3 4 -3 8q0 20 41 70.5t60 50.5q21 0 30 -18.5t9 -40.5q0 -17 -1 -26t-7 -29l-16 -54q15 25 31.5 49.5t37.5 51.5q58 70 90 70q22 0 33.5 -25t11.5 -50q0 -61 -24.5 -113.5t-73.5 -97.5q-24 -21 -50 -38
q-33 -21 -58 -21q-19 0 -32.5 15.5t-13.5 35.5q0 12 2 19l3 14l-81 -144l-49 -88l-29 -52l-13 -26t-13 -29h-5l-1 7q-2 10 -15 10q-10 0 -18 -5l-16 -12h-7l99 171q94 166 132 239q66 128 66 157zM171 5q35 0 109 127.5t74 170.5q0 25 -23 25q-40 0 -115.5 -117.5
t-75.5 -163.5q0 -19 6.5 -30.5t24.5 -11.5z" />
    <glyph glyph-name="q" unicode="q" 
d="M267 159q-29 -47 -73 -95q-59 -66 -90 -66q-22 0 -33.5 19.5t-11.5 44.5q0 94 70 182q74 92 168 92q38 0 38 -40l-2 -14q0 -7 -5 -15l39 72h4l2 -6l8 -4h5l29 3l29 3q5 0 7 -6l-3 -3q-22 -3 -34 -14l-23 -28q-27 -38 -68 -116l-38 -73l-186 -353h-4l-4 11l-15 5
q-9 0 -17 -4t-15 -11h-5zM84 30q0 -24 22 -24q41 0 129.5 123.5t88.5 170.5q0 10 -6 17t-17 9q-46 0 -131.5 -123t-85.5 -173z" />
    <glyph glyph-name="r" unicode="r" horiz-adv-x="252" 
d="M186 311l-1 7l-5 9l-6 3q-23 0 -65 -54l-41 -55q-6 0 -4 9q8 22 47.5 64t62.5 42q14 0 20 -10t6 -27q0 -18 -1 -27t-6 -27l-33 -88l82 104q66 77 93 77q16 0 22 -5.5t6 -21.5q0 -19 -14 -40.5t-31 -21.5l-7 1l-4 4l-5 26l-5 6l-3 2q-33 -4 -115 -130q-38 -58 -100 -165
l-3 9q-3 9 -15 9q-10 0 -19 -5q-9 -3 -18 -12h-6q38 56 96 159q72 128 72 158z" />
    <glyph glyph-name="s" unicode="s" horiz-adv-x="252" 
d="M122 225l2 3q14 27 95.5 85t109.5 58q23 0 23 -18q0 -8 -11.5 -23.5t-21.5 -15.5q-6 0 -15.5 10t-22.5 12q-25 0 -46.5 -31t-21.5 -60q0 -26 23.5 -70t23.5 -68q0 -47 -45 -82q-41 -30 -93 -30q-34 0 -59.5 19t-25.5 52q0 30 19.5 61t48.5 31q13 0 21 -6.5t10 -18.5
q0 -12 -9.5 -25t-20.5 -14q-17 8 -31 10q-11 0 -20 -17q-5 -13 -7 -30q0 -19 18.5 -33.5t39.5 -14.5q48 0 75 43q23 37 23 88l-2 56l-2 43l3 24q3 9 5 14.5t12 24.5l-49 -42l-44 -40z" />
    <glyph glyph-name="t" unicode="t" horiz-adv-x="189" 
d="M122 316l-2 3l2 5l10 4l58 -1l89 160q8 -17 23 -17q10 0 18 4l17 15l-90 -162l42 2h15q12 -1 13 -7q0 -5 -10 -8l-23 -2l-44 3l-62 -106q-69 -116 -99 -181l1 -7q0 -18 21 -18q19 0 47 31l55 76q4 -2 5 -4l2 -6q-16 -29 -48 -64q-39 -42 -64 -42q-20 0 -30 17
q-10 20 -10 39q0 48 69 171l55 93l-36 -1q-16 0 -24 3z" />
    <glyph glyph-name="u" unicode="u" 
d="M357 340l-1 -3q2 -8 4 -10l14 -4q9 0 17 3.5t19 13.5h6q-51 -83 -91 -155q-34 -62 -50.5 -100t-16.5 -54q0 -7 5 -15q6 -5 13 -7q28 0 53 43l30 55q6 -3 8 -5q0 -17 -35.5 -60t-52.5 -43q-21 0 -30 15.5t-9 39.5q0 34 11 68t30 72q-35 -58 -77 -113q-65 -86 -92 -86
q-21 0 -32.5 21.5t-11.5 44.5q0 55 65.5 144.5t65.5 110.5q0 5 -5 9.5t-14 6.5l-9 -2q-14 -8 -49 -51q-15 -19 -27 -27l-6 -1l-3 6q0 15 40 49t56 34q19 0 28.5 -17t9.5 -40q0 -52 -64.5 -141.5t-64.5 -113.5q0 -5 6 -13t12 -10q26 0 82 74q20 27 44 63.5t54 84.5
q42 71 64 113h4z" />
    <glyph glyph-name="v" unicode="v" horiz-adv-x="293" 
d="M171 338q20 0 31.5 -22t11.5 -45q0 -45 -50.5 -126.5t-50.5 -108.5q0 -11 9 -23q9 -9 23 -10q46 0 106 94q56 89 56 140q0 15 -9 33t-9 23q0 11 18 29q17 15 31 17q23 0 23 -24q0 -68 -77 -189q-81 -131 -142 -131q-29 0 -46 24q-16 26 -16 56q0 39 52 124.5t52 109.5
q0 7 -5 13q-3 6 -10 7q-19 0 -43 -30l-54 -75q-4 5 -4 7q0 18 40.5 62.5t62.5 44.5z" />
    <glyph glyph-name="w" unicode="w" horiz-adv-x="462" 
d="M357 346l1 -11q8 -6 18 -6q20 0 33 16h4q-18 -33 -38 -72.5t-37 -79.5q-49 -113 -49 -155q0 -10 6 -22q6 -8 18 -10q45 0 104 98q55 93 55 143q0 10 -10 30q-6 12 -6 17l1 9l15 22q14 15 39 15q7 0 12 -6l4 -14q0 -66 -78 -192q-83 -134 -144 -134q-21 0 -32 15
q-9 15 -9 39q0 37 13 88q6 25 13 47t16 40q-50 -88 -82 -133q-68 -96 -104 -96q-21 0 -30 18t-9 42q0 51 35 111q78 135 78 141q0 9 -5 15q-3 7 -12 7q-18 0 -42 -30l-48 -68l-5 8l40 58q32 40 53 40q18 0 28 -13q15 -18 15 -52q0 -51 -58 -140.5t-58 -104.5q0 -8 5 -17
q5 -6 15 -8q28 0 82 75q38 53 92 153q39 74 57 117h4z" />
    <glyph glyph-name="x" unicode="x" horiz-adv-x="293" 
d="M109 171l-9 -5l-8 5l1 5l15 7l19 2l29 -1l33 63q11 22 17 39t6 26q0 18 -18 18q-19 0 -44 -34l-49 -70l-3 2l-2 4q9 32 41 66q36 42 61 42q17 0 28.5 -16t11.5 -35q0 -26 -5.5 -48t-19.5 -57q39 62 66 93q51 62 87 62q23 0 23 -22q0 -13 -11 -30q-9 -17 -23 -18l-12 12
q-6 8 -15 10q-19 0 -57 -45q-30 -36 -45 -66l27 -1l28 3q2 -1 3.5 -2.5l2.5 -2.5l-3 -5l-15 -3l-14 -1l-37 1l-35 -69q-23 -49 -23 -71q0 -27 26 -27q27 0 67 53l39 54l5 -5q0 -20 -45 -66t-67 -46q-21 0 -35 18q-11 19 -11 42q0 22 9 60l18 60q-40 -75 -88 -140
q-72 -98 -118 -98q-25 0 -25 23q1 2 2 4.5t4 6.5l14 10l8 1q11 -12 22 -13q31 0 94 87q50 69 72 120h-20z" />
    <glyph glyph-name="y" unicode="y" 
d="M122 -7q-28 0 -39 17t-11 46q0 54 63 140.5t63 112.5q0 8 -9 19l-9 2q-22 0 -60 -53l-26 -39l-6 -1l-6 4q5 21 41.5 58.5t56.5 37.5q21 0 30.5 -18.5t9.5 -43.5q0 -55 -62.5 -143.5t-62.5 -105.5q0 -8 5.5 -14.5t15.5 -8.5q35 0 102 89q31 42 70.5 104t85.5 144
q12 -7 21 -9l28 3l31 3q12 0 12 -7l-7 -4l-6 1l-5 1q-16 0 -24 -8l-18 -24q-33 -51 -78 -138l-121 -236q-51 -88 -97 -126q-63 -52 -148 -52q-40 0 -68 14q-37 19 -37 54q0 12 8.5 23t23.5 12q13 0 21 -7.5t8 -19.5q0 -5 -6 -16l-10 -12l-2 -5q2 -16 16.5 -24.5t49.5 -8.5
q88 0 188 164l73 135l75 141q-49 -74 -82 -116q-67 -85 -98 -85z" />
    <glyph glyph-name="z" unicode="z" horiz-adv-x="293" 
d="M172 138h-16l-12 -4l-33 -7l-3 1l-3 3l-1 3l8 8l25 5l32 1h34l11 1q29 29 62 68l36 44h-5q-21 0 -51 6q-68 14 -84 14q-30 0 -48 -18q-9 -9 -26 -47l-7 -2l-4 2l-2 4q12 12 33 57q33 70 79 70q32 0 60.5 -37.5t47.5 -37.5q12 0 20.5 10t8.5 23q0 8 -6 16l-13 13l-2 6
q9 26 42 26q18 0 18 -22q0 -27 -59 -99l-83 -95h26l41 1q11 2 17 8h5l7 -5l-2 -6q-6 -5 -32 -8l-29 -2h-23l-20 1l-72 -64l-74 -62l21 5l22 2q50 0 123.5 -72t98.5 -72l9 3v14l6 9l5 2q9 0 13 -10v-4q0 -15 -21 -23.5t-40 -8.5q-62 0 -126.5 74.5t-90.5 74.5
q-30 0 -60.5 -32t-41.5 -32q-8 0 -15.5 3.5t-8.5 11.5q0 8 16 18l24 12q49 24 101 68l91 82h-29z" />
    <glyph glyph-name="braceleft" unicode="{" horiz-adv-x="319" 
d="M40 281q53 0 69 64q3 14 5 40.5t2 66.5v41q0 92 11 126q21 71 88 71h64v-62h-42q-23 0 -35 -25q-9 -24 -9 -53l1 -109l-1 -53q0 -21 -5 -39.5t-18 -40.5q-25 -45 -61 -55q54 -16 73 -80q12 -39 12 -113l-2 -81q0 -48 4 -64q9 -40 41 -40h42v-62h-63q-46 0 -72 38t-26 85
v164q0 45 -17 79q-21 45 -61 45v57z" />
    <glyph glyph-name="bar" unicode="|" horiz-adv-x="249" 
d="M90 705h70v-723h-70v723z" />
    <glyph glyph-name="braceright" unicode="}" horiz-adv-x="319" 
d="M279 224q-39 0 -60 -45q-17 -37 -17 -80v-163q0 -47 -24 -83q-28 -40 -74 -40h-64v62h42q30 0 40 40q5 23 5 64l-1 82q0 71 12 112q18 62 72 78q-36 11 -60 53.5t-24 83.5v162q0 39 -11.5 58.5t-32.5 19.5h-42v62h64q60 0 84 -61q8 -22 12 -50.5t4 -71.5l-1 -29v-26
q0 -79 7 -106q15 -65 69 -65v-57z" />
    <glyph glyph-name="asciitilde" unicode="~" horiz-adv-x="0" 
d="M407 825q14 0 56 -13l35 -7q10 0 17.5 6t16.5 19l4 2q4 -4 5 -6l-6 -14q-9 -18 -29 -31q-4 -3 -15 -8t-22 -5q-17 0 -35 5q-45 12 -58 12q-7 0 -12 -4l-8 -10l-6 -2l-4 6q0 14 22.5 32t38.5 18z" />
    <glyph glyph-name="quotesinglbase" unicode="&#x201a;" horiz-adv-x="147" 
d="M-13 -111l2 3q27 13 50 30.5t36 43.5l7 17v4q-3 9 -16.5 17.5t-15.5 24.5q0 21 17 44q19 22 40 22q33 0 33 -37q0 -35 -55 -106t-90 -71q-7 0 -8 8z" />
    <glyph glyph-name="florin" unicode="&#x192;" horiz-adv-x="534" 
d="M504 0h-471v52h471v-52zM504 329l-471 -218v58l410 189l-410 188v59l471 -218v-58z" />
    <glyph glyph-name="quotedblbase" unicode="&#x201e;" horiz-adv-x="252" 
d="M52 28q0 22 17 40.5t38 18.5q13 0 20.5 -9t9.5 -25q0 -36 -49.5 -93.5t-88.5 -69.5l-7 6l13 9q24 12 47 35q30 27 30 48q0 6 -6 11.5t-15 8.5q-9 15 -9 20zM107 -105l9 8q26 12 50 35q30 27 30 50q-3 4 -5 6q-6 7 -10 10q-15 11 -15 21q0 20 16.5 40.5t37.5 20.5
q15 0 21.5 -10.5t7.5 -26.5q0 -35 -53 -97t-87 -62z" />
    <glyph glyph-name="ellipsis" unicode="&#x2026;" horiz-adv-x="956" 
d="M209 0h-99v101h99v-101zM528 0h-100v101h100v-101zM846 0h-99v101h99v-101z" />
    <glyph glyph-name="dagger" unicode="&#x2020;" horiz-adv-x="525" 
d="M203 319q-12 0 -23 9q-6 8 -8 25q0 17 15 30.5t32 13.5q29 0 73 -12l82 -23l25 53q17 62 31 98q26 68 60 68h13q8 0 17.5 -9t11.5 -17q0 -15 -31 -52l-85 -97l-29 -43q14 0 33.5 3t48.5 11q56 14 80 14q13 0 21.5 -8t8.5 -20q0 -18 -15 -32q-14 -11 -36 -11q-25 0 -72 16
q-11 3 -34.5 9.5t-39.5 6.5q-12 -24 -25 -53q-7 -16 -22 -52l-30 -75l-42 -106q-36 -72 -76 -72q-14 0 -24.5 8.5t-12.5 25.5q0 22 75 124l98 131l44 69l-32 -3z" />
    <glyph glyph-name="daggerdbl" unicode="&#x2021;" horiz-adv-x="801" 
d="M676 3q0 -45 23 -61t69 -16v-22h-290v22q49 0 67 14q24 17 24 63v656h-339l1 -656q0 -45 23 -61t68 -16v-22h-290v22q47 0 67 14q24 17 24 63l1 593q0 93 -91 93v21h732l-1 -20q-44 0 -66 -25t-22 -69v-593z" />
    <glyph glyph-name="circumflex" unicode="&#x2c6;" horiz-adv-x="0" 
d="M90 391l-7 6l4 4q44 15 63.5 31t50.5 55q5 3 7 3l2 -2l-2 -15l-2 -17q0 -20 5.5 -33.5t19.5 -20.5q2 -1 5 -5q0 -1 1 -2l-6 -3q-19 0 -32 8q-11 9 -23 26l-43 -22q-19 -8 -43 -13z" />
    <glyph glyph-name="perthousand" unicode="&#x2030;" horiz-adv-x="267" 
d="M61 -101q-18 0 -37 18t-19 38q0 14 12 29q13 13 29 13q11 0 28 -15t24 -16q14 0 20 33l5 61q0 15 -1 51t-1 58l-5 183v217q0 105 12 173q23 125 85 125q24 0 44.5 -14.5t20.5 -39.5q0 -18 -14.5 -29.5t-33.5 -11.5q-11 0 -31 15q-8 6 -17 8q-10 0 -13.5 -7t-3.5 -21
q0 -24 1 -53t4 -61q0 -57 3.5 -100.5t8.5 -89.5l2 -104q0 -146 -8 -227q-15 -165 -54 -209q-8 -8 -28 -17q-16 -5 -33 -7z" />
    <glyph glyph-name="guilsinglleft" unicode="&#x2039;" horiz-adv-x="318" 
d="M234 103l-150 118v88l150 117v-84l-100 -77l100 -78v-84z" />
    <glyph glyph-name="OE" unicode="&#x152;" horiz-adv-x="1091" 
d="M702 702q46 0 72 -36q22 -33 22 -81q0 -44 -18 -103q-6 -21 -14 -43t-24 -56q35 14 74 24l79 14q-25 14 -47 48q-20 34 -20 65q0 89 95 139q78 42 177 42q61 0 108 -24q57 -30 57 -87q0 -58 -46 -96t-106 -38q-40 0 -73 20q-41 24 -41 60q0 15 7.5 26.5t22.5 20.5
q4 -1 6.5 -3t3.5 -3l-4 -5q-12 -4 -18 -12t-8 -20q0 -26 30 -43q24 -12 56 -12q52 0 99 33q51 36 51 88q0 40 -38 60.5t-82 20.5q-89 0 -166.5 -67t-77.5 -156q0 -29 27 -55l46 2l48 2q38 0 63 -3.5t29 -19.5q-3 -8 -16 -14l-24 -3q-74 0 -143 26l-32 -8q-83 -18 -150 -107
q-33 -43 -50 -87t-17 -88q0 -57 42.5 -95t101.5 -38q86 0 180.5 91.5t94.5 176.5q0 32 -23.5 53t-58.5 21q-59 0 -118.5 -60.5t-59.5 -119.5q0 -25 15 -43q16 -16 42 -16q8 0 20 6l20 13q5 -1 7 -6l-2 -6l-21 -12l-25 -4q-34 0 -58 27q-22 28 -22 63q0 70 66 121
q61 46 133 46q49 0 80 -31.5t31 -80.5q0 -101 -96 -181q-91 -74 -196 -74q-80 0 -142 48q-65 51 -65 131l3 29q-61 -78 -138 -129q-90 -60 -176 -60q-76 0 -127.5 56t-51.5 133q0 29 3 54.5t11 54.5q15 56 43 105q55 102 157 184q114 93 217 93l17 -1l34 -4l49 23
q30 11 55 11zM655 601q0 -47 -40.5 -81.5t-89.5 -34.5q-15 0 -16 10l3 4l4 3l12 -3l12 -3q29 0 61.5 31.5t32.5 60.5q0 20 -5.5 37t-23.5 25q-77 -49 -166 -171q-94 -132 -94 -213q0 -24 16.5 -48.5t40.5 -24.5q10 0 18 4l17 9l4 -2l2 -3l-2 -4q-5 -5 -16 -10l-21 -2
q-38 0 -59.5 38.5t-21.5 79.5q0 94 86 205q78 102 172 151l-27 1q-76 0 -175 -102q-88 -91 -154 -217.5t-66 -204.5q0 -55 33 -93.5t90 -38.5q38 0 77.5 15.5t65.5 43.5l23 23q49 49 121 149q77 108 134 209q64 119 64 170q0 34 -11 52q-14 25 -44 25q-9 0 -19 -0.5
t-28 -7.5q-11 -3 -21.5 -8.5t-23.5 -14.5l25 -25q10 -13 10 -34z" />
    <glyph glyph-name="quoteleft" unicode="&#x2018;" horiz-adv-x="356" 
d="M560 703l4 -7q-41 -25 -66.5 -49t-25.5 -52l6 -10l19 -11q6 -6 8 -21q0 -21 -18.5 -42t-40.5 -21q-14 0 -21 10t-9 27q0 36 55 106t89 70z" />
    <glyph glyph-name="quoteright" unicode="&#x2019;" horiz-adv-x="356" 
d="M393 506q34 15 55 33t39 53v4q0 8 -5 16q-12 5 -18.5 10.5t-8.5 18.5q0 22 16.5 43.5t39.5 21.5q14 0 23.5 -10.5t10.5 -26.5q0 -42 -51 -101t-95 -73l-5 1l-3 4z" />
    <glyph glyph-name="quotedblleft" unicode="&#x201c;" horiz-adv-x="483" 
d="M566 701l-2 -5q-28 -12 -54 -37q-34 -31 -34 -53q0 -5 15 -16q16 -8 16 -25q0 -21 -17 -39q-15 -18 -36 -18q-16 0 -24 11q-7 14 -7 29q0 32 54 95t85 63zM535 545q0 33 54 96t86 63l3 -1l2 -4l-6 -6q-25 -14 -52 -36q-33 -29 -33 -50q0 -9 14.5 -17t16.5 -25
q0 -20 -15.5 -38.5t-36.5 -18.5q-33 0 -33 37z" />
    <glyph glyph-name="quotedblright" unicode="&#x201d;" horiz-adv-x="483" 
d="M400 515l11 7l12 5q20 9 37 29q6 7 13 17q4 6 13 22l1 9l-2 6l-19 13q-8 6 -10 21q0 19 15.5 39t35.5 20q12 0 21.5 -9.5t10.5 -23.5q0 -46 -46 -96q-36 -41 -88 -68l-7 5zM513 515q21 12 34 21.5t19 14.5q34 29 34 51l-2 8l-3 5q-14 7 -19.5 11.5t-6.5 19.5
q0 18 16.5 38t34.5 20q14 0 23 -9.5t9 -26.5q0 -37 -51.5 -99.5t-86.5 -62.5l-4 4z" />
    <glyph glyph-name="bullet" unicode="&#x2022;" horiz-adv-x="318" 
d="M284 337q0 -52 -35 -88t-88 -36q-50 0 -88 36.5t-38 87.5t38.5 88t88.5 37q49 0 85.5 -36.5t36.5 -88.5z" />
    <glyph glyph-name="endash" unicode="&#x2013;" horiz-adv-x="356" 
d="M84 197l3 4l19 6l23 2h29t52 -4q46 0 79 -3.5t58 -5.5q18 0 39 6l4 -1l4 -4q-3 -10 -10 -14.5t-25 -4.5h-47q-24 3 -36 4q-47 0 -81 3t-58 6l-3 1q-23 0 -40 -9h-4l-7 6v4z" />
    <glyph glyph-name="emdash" unicode="&#x2014;" horiz-adv-x="483" 
d="M53 194h409v-29h-409v29z" />
    <glyph glyph-name="tilde" unicode="&#x2dc;" horiz-adv-x="0" 
d="M186 417q-13 0 -53 10l-33 5q-12 0 -19.5 -7.5t-13.5 -9.5l-4 4q0 15 22 34t39 21q17 0 35 -5q45 -12 58 -12q11 0 22 12.5t15 13.5l3 -6q-12 -24 -28 -40q-20 -20 -43 -20z" />
    <glyph glyph-name="trademark" unicode="&#x2122;" horiz-adv-x="867" 
d="M329 637l3 -92l-17 -1l-1 7q0 32 -19.5 48.5t-52.5 16.5h-36v-295q0 -16 13 -22q13 -4 19.5 -4.5t14.5 -0.5v-17h-151v17q26 0 38 6q8 6 10 21v295h-35q-72 0 -72 -72l-17 1l3 92h300zM467 637l125 -273l119 273h105v-18l-8 1q-18 0 -27 -3.5t-10 -19.5l-1 -276
q0 -16 13 -22q13 -4 19.5 -4.5t14.5 -0.5v-17h-151v17q22 0 31 3q18 6 18 24v262l-127 -306h-17l-136 291v-247q0 -16 14 -22q13 -4 19.5 -4.5t14.5 -0.5v-17h-123v17q22 0 31 3q18 6 18 24v266q0 16 -6.5 24t-31.5 8h-13v18h109z" />
    <glyph glyph-name="guilsinglright" unicode="&#x203a;" horiz-adv-x="318" 
d="M84 187l101 78l-101 77v84l150 -117v-88l-150 -118v84z" />
    <glyph glyph-name="oe" unicode="&#x153;" horiz-adv-x="462" 
d="M488 335q17 0 28 -8t11 -25q0 -58 -60 -101.5t-122 -43.5l-16 1l-30 -56q-16 -38 -16 -61q0 -17 14 -28t31 -11q49 0 105 66l54 67l3 -6q-1 -7 -12 -22l-19 -24q-38 -50 -70 -71q-32 -19 -58 -19q-29 0 -45 16.5t-27 47.5q-11 -9 -32 -23q-16 -11 -28 -18
q-38 -21 -69 -21q-33 0 -50 33q-11 25 -11 65q0 88 65.5 166t151.5 78q27 0 43 -22q11 -15 18 -49q38 30 65 46q41 23 76 23zM129 2q48 0 121 124q69 117 69 172q0 14 -9 21.5t-26 9.5q-53 0 -123 -118q-66 -111 -66 -170q0 -39 34 -39zM357 166q43 0 76 26q27 21 55 62
q11 15 17 28t6 23q0 14 -5.5 17.5t-22.5 5.5q-39 0 -105 -91q-12 -16 -23.5 -34.5t-19.5 -34.5z" />
    <glyph glyph-name="Ydieresis" unicode="&#x178;" horiz-adv-x="859" 
d="M821 843q10 0 16 -8.5t6 -21.5q0 -12 -18.5 -29.5t-31.5 -17.5q-9 0 -14 5.5t-5 15.5q0 16 15 36t32 20zM937 843q23 0 23 -22q0 -16 -18.5 -35.5t-34.5 -19.5q-9 0 -15 9l-4 19q0 14 17.5 31.5t31.5 17.5zM435 508q58 0 102 -29q51 -33 51 -89q0 -68 -59 -111
q-54 -39 -125 -39q-45 0 -90.5 17t-71.5 45v-18q0 -72 56 -122t129 -50q49 0 95 26q55 31 55 75l4 6l7 1l6 -6q-4 -46 -63 -81q-51 -30 -103 -30q-93 0 -146 59t-53 153q-22 28 -37 61q-5 14 -9 33t-4 35q0 114 81 190.5t196 76.5q130 0 209 -98q72 -90 72 -226
q0 -124 -39.5 -227.5t-124.5 -194.5q89 66 176 200l144 234q92 134 198 207l-97 26q-60 15 -99 15q-52 0 -85 -23q-20 -14 -30 -32t-10 -44q0 -30 26.5 -49.5t56.5 -19.5q24 0 32 8l19 20l5 -1l2 -3v-5q-4 -14 -22 -23q-19 -7 -36 -7q-43 0 -69 25.5t-26 66.5q0 53 54 94
q49 35 107 35q51 0 131 -28l77 -28q91 57 140 75t93 18q34 0 60.5 -14.5t26.5 -47.5q0 -45 -62 -72q-49 -20 -104 -20q-27 0 -40 1.5t-42 6.5q-50 8 -81 19q-73 -74 -130 -143q-34 -41 -61 -76.5t-56 -78.5q-96 -143 -153 -212q-95 -116 -190 -176q-117 -73 -249 -73
q-88 0 -152 41q-75 48 -75 131q0 52 37.5 88t91.5 36q42 0 80.5 -22.5t38.5 -64.5q0 -18 -12.5 -33.5t-32.5 -15.5q-13 0 -26 12t-13 27q0 9 16.5 18t17.5 24q0 21 -24 33t-50 12q-38 0 -67 -32t-29 -69q0 -81 74 -130q63 -42 151 -42q168 0 285 151q108 140 108 314
q0 135 -77 233q-84 107 -216 107q-88 0 -151.5 -54.5t-63.5 -144.5q0 -66 42 -114q24 76 74 119.5t129 43.5zM1307 589q44 0 80 15q48 20 48 58q0 28 -21.5 40.5t-52.5 12.5q-21 0 -43 -4t-46 -13q-46 -17 -123 -73q39 -16 78 -27q39 -9 80 -9zM413 265q63 0 110 31
q53 36 53 97q0 48 -46 76.5t-95 28.5q-76 0 -127 -45q-44 -40 -65 -119q41 -32 82 -52q40 -17 88 -17z" />
    <glyph glyph-name="nonbreakingspace" unicode="&#xa0;" horiz-adv-x="252" 
 />
    <glyph glyph-name="exclamdown" unicode="&#xa1;" horiz-adv-x="315" 
d="M437 619q12 0 21 -9t9 -22q0 -21 -16 -43t-37 -22q-17 0 -24 10.5t-7 26.5q0 21 17.5 40t36.5 19zM371 479l6 2l4 -2l3 -7l-12 -27l-19 -33l-54 -105l-47 -96l-71 -165q-12 -31 -26 -42t-47 -11q-9 0 -15.5 7.5t-7.5 17.5q0 8 57 98l147 221l42 71z" />
    <glyph glyph-name="cent" unicode="&#xa2;" horiz-adv-x="272" 
d="M427 424l-3 -5l-8 -1q-7 5 -20 4q-20 0 -50 -34l-37 -52q39 -8 39 -51q0 -27 -17 -57.5t-43 -30.5q-8 0 -16 8q-5 8 -7 18q0 36 35.5 41.5t35.5 31.5q0 14 -8 23t-23 9l-61 -106q-22 -41 -30 -56q-21 -39 -32 -56q-38 -65 -68 -99l10 -4l13 -1q45 0 79 50q46 69 57 80
l6 1l4 -6q0 -29 -56.5 -81.5t-87.5 -52.5q-18 0 -31 7q-21 -24 -40 -38q-29 -19 -52 -19q-24 0 -46 22l-2 7l11 11l5 -4q3 -8 10 -15t16 -9q23 0 45 14t43 37q-16 13 -25 36q-3 13 -5 23.5t-2 23.5q0 83 73.5 163.5t156.5 80.5q23 41 45 64q33 36 66 36q19 0 20 -13z
M290 327q-54 -15 -124 -118t-70 -160q0 -19 10 -30l15 19l57 101l40 71z" />
    <glyph glyph-name="sterling" unicode="&#xa3;" horiz-adv-x="545" 
d="M290 239l-58 1q-21 0 -33.5 -4.5t-9.5 -22.5q-2 -6 -9 -6q-8 0 -10 12q0 20 21 28q11 3 22.5 5t26.5 2l53 -3q27 115 71 169q59 75 161 75q41 0 64 -20t23 -60q0 -37 -16 -70q-20 -42 -52 -42q-12 0 -21 9q-6 8 -7 23q0 26 13 34.5t42 8.5q16 0 23 25l3 23q0 28 -19 44
t-49 16q-61 0 -117 -92q-25 -42 -70 -146l47 -2l37 -2q15 0 32 11l4 2q6 -4 6 -6q0 -9 -10 -16q-7 -3 -20 -5l-47 1l-56 6q-12 -39 -46 -82q-21 -28 -64 -71l130 -87q93 -61 133 -61q22 0 37.5 13.5t15.5 34.5q0 24 -26.5 43t-51.5 19q-26 0 -39 -22l-6 -4l-9 7
q0 10 16.5 17t33.5 9q35 0 64.5 -20.5t29.5 -55.5q0 -29 -36 -52q-30 -18 -66 -18q-58 0 -135 57q-101 76 -123 89q-45 -33 -74 -46q-28 -11 -52 -11q-14 0 -27 9t-13 25q0 34 36 55t74 21q21 0 36 -5q12 -2 17.5 -3.5t22.5 -9.5q18 20 37 54q15 30 40 97zM110 81
q-29 0 -51 -14q-23 -12 -23 -37q0 -9 10 -18q10 -6 23 -7q34 0 72 25l39 27q-6 4 -13.5 8t-23.5 10t-33 6z" />
    <glyph glyph-name="section" unicode="&#xa7;" horiz-adv-x="378" 
d="M288 482q0 54 37.5 88.5t92.5 34.5q38 0 69.5 -23.5t31.5 -61.5q0 -21 -12 -36t-33 -15q-12 0 -23 8q-9 9 -9 21q0 16 21.5 24.5t21.5 26.5l-2 7l-4 11q-6 13 -22 19t-35 6q-35 0 -59 -24q-21 -23 -21 -61q0 -39 19 -90q42 -114 42 -147q0 -50 -42 -85q-34 -28 -91 -40
q4 -15 6 -26.5t2 -26.5q0 -53 -41.5 -91.5t-97.5 -38.5q-35 0 -62 20q-30 23 -30 57q0 20 12.5 36.5t34.5 16.5q10 0 19.5 -8.5t11.5 -21.5q0 -15 -18.5 -23.5t-18.5 -25.5q0 -18 18 -29t38 -11q35 0 59 27q22 28 22 66t-29.5 111.5t-29.5 110.5q0 53 40 89q33 27 91 42
l-6 31zM347 246q0 30 -17 81q-6 19 -12.5 38t-16.5 43q-36 -8 -57 -26q-27 -23 -27 -55q0 -26 19 -84q5 -15 15 -43q7 -20 16 -41q80 11 80 87z" />
    <glyph glyph-name="dieresis" unicode="&#xa8;" horiz-adv-x="0" 
d="M139 483q9 0 17 -8q5 -7 7 -19q0 -16 -17 -33.5t-33 -17.5q-5 0 -11.5 5.5t-9.5 14.5q3 18 16.5 38t30.5 20zM207 428q0 15 17.5 35t33.5 20q10 0 15 -8q6 -5 7 -16q0 -14 -17.5 -34t-32.5 -20q-9 0 -15 6.5t-8 16.5z" />
    <glyph glyph-name="copyright" unicode="&#xa9;" horiz-adv-x="770" 
d="M382 639q135 0 231.5 -95.5t96.5 -230.5t-96.5 -231.5t-231.5 -96.5t-231 96t-96 232q0 132 96 229t231 97zM382 24q119 0 204 85t85 204q0 117 -85 202.5t-204 85.5t-203.5 -84.5t-84.5 -203.5q0 -118 84.5 -203.5t203.5 -85.5zM523 490l4 -121h-20q-6 41 -39 70
q-16 14 -33.5 21t-40.5 7q-61 0 -94.5 -50t-33.5 -113q0 -65 32 -105.5t97 -40.5q40 0 63.5 10t59.5 40l10 -17q-33 -35 -64.5 -52t-75.5 -17q-82 0 -132.5 51t-50.5 131q0 79 50.5 134t127.5 55q17 0 50 -9.5t49 -9.5q17 0 23 16h18z" />
    <glyph glyph-name="guillemotleft" unicode="&#xab;" horiz-adv-x="252" 
d="M159 122q0 -20 -10.5 -41.5t-27.5 -29.5q-5 1 -7 6q2 2 8 11t8.5 14.5t4.5 18.5q0 35 -21 50l-38 27l-1 4l3 6l15 4l20 5q25 6 48 28t35 47l6 2l4 -2l3 -4l1 -5q0 -17 -31 -47q-10 -9 -24 -19t-26 -17q12 -12 21 -27t9 -31zM248 115q0 -16 -9.5 -36.5t-23.5 -28.5l-6 -2
l-3 -1q-5 3 -4 10l14 20q3 7 5 24q0 21 -15 41q-9 12 -35 28l-2 4l3 6l28 13q26 11 40 22q10 6 28 29l22 24l5 -2l4 -8q0 -16 -31 -44.5t-50 -38.5q14 -15 22 -29t8 -31z" />
    <glyph glyph-name="logicalnot" unicode="&#xac;" horiz-adv-x="695" 
d="M21 272h629v-272h-52v221h-577v51z" />
    <glyph glyph-name="registered" unicode="&#xae;" horiz-adv-x="770" 
d="M381 -19q-134 0 -229.5 96.5t-95.5 230.5q0 135 95 230t230 95q136 0 231.5 -95t95.5 -230t-96 -231t-231 -96zM380 597q-118 0 -202.5 -84.5t-84.5 -205.5q0 -120 84 -204t204 -84q119 0 204 85t85 204t-85 204t-205 85zM334 186q0 -15 12.5 -21t31.5 -6v-18h-151l1 18
q18 0 31 4.5t14 20.5l-1 273q0 16 -5.5 22t-17.5 6h-18v17h162q55 0 86 -17q43 -23 43 -71q0 -39 -28 -67.5t-68 -28.5l113 -146q5 -6 13 -11l22 -2v-18h-90l-126 169h-24v-124zM334 332q51 0 81 12q43 18 43 63q0 39 -16.5 54t-58.5 20l-31 2q-6 0 -14 -6q-3 -3 -5 -13z
" />
    <glyph glyph-name="degree" unicode="&#xb0;" horiz-adv-x="389" 
d="M193 364q-58 0 -99.5 42t-41.5 100q0 59 41 100t101 41q57 0 99 -41.5t42 -100.5q0 -56 -41.5 -98.5t-100.5 -42.5zM193 610q-42 0 -72.5 -30.5t-30.5 -74.5q0 -41 30 -72t74 -31q41 0 73 30t32 74q0 42 -31.5 73t-74.5 31z" />
    <glyph glyph-name="plusminus" unicode="&#xb1;" horiz-adv-x="534" 
d="M240 386v225h52v-225h224v-52h-224v-224h-52v224h-225v52h225zM15 0v52h501v-52h-501z" />
    <glyph glyph-name="acute" unicode="&#xb4;" horiz-adv-x="0" 
d="M119 406l32 9q15 6 29 20l21 30q15 20 28 20q8 0 15.5 -4t8.5 -12q0 -32 -49 -54q-44 -19 -78 -19q-8 0 -10 6z" />
    <glyph glyph-name="mu" unicode="&#xb5;" horiz-adv-x="561" 
d="M145 473v-314q0 -49 19 -77q23 -33 71 -33q30 0 60.5 21t44.5 52v351h83l-1 -362q0 -28 12 -55q13 -25 39 -25q29 0 41 31l10 35h18q-12 -50 -36 -79q-31 -34 -78 -34q-41 0 -62 27q-14 18 -24 67q-23 -37 -66.5 -66t-83.5 -29q-31 0 -61 21l-33 27l-1 -22q0 -27 16 -78
t16 -74q0 -25 -11 -46.5t-36 -21.5q-22 0 -33.5 21.5t-11.5 45.5q0 19 1.5 28t6.5 29q18 75 18 96v464h82z" />
    <glyph glyph-name="paragraph" unicode="&#xb6;" horiz-adv-x="638" 
d="M515 675v-52h-32v-783h-56v783h-137v-783h-56v465q-71 11 -110.5 59t-39.5 121q0 90 59 140t152 50h220z" />
    <glyph glyph-name="periodcentered" unicode="&#xb7;" horiz-adv-x="169" 
d="M116 212q31 0 31 -32v-7q0 -10 -9.5 -17t-21.5 -9q-10 0 -20 8t-12 18v7q0 11 9 21t23 11z" />
    <glyph glyph-name="periodcentered" unicode="&#x2219;" horiz-adv-x="169" 
d="M116 212q31 0 31 -32v-7q0 -10 -9.5 -17t-21.5 -9q-10 0 -20 8t-12 18v7q0 11 9 21t23 11z" />
    <glyph glyph-name="cedilla" unicode="&#xb8;" horiz-adv-x="0" 
d="M-84 -102q2 3 21.5 15t24.5 29l-3 5l-17 7q-6 2 -6 12q0 11 9.5 20.5t19.5 9.5q28 0 28 -26q0 -19 -27 -49t-43 -30l-5 2z" />
    <glyph glyph-name="guillemotright" unicode="&#xbb;" horiz-adv-x="252" 
d="M74 215q0 18 11 38t27 30l9 -4q-2 -9 -11 -21t-9 -24q0 -23 15 -44q10 -12 36 -32v-4l-5 -6q-41 -5 -66 -32l-47 -53h-4l-4 3l-2 4q0 18 31 48l49 39l-16 19q-14 19 -14 39zM162 210q0 24 17 50q10 16 22 19q5 0 8 -7l-2 -5l-15 -20q-3 -6 -5 -19q0 -33 29 -54.5
t31 -26.5l-2 -4l-8 -2q-45 -12 -67 -26.5t-42 -53.5l-5 -4l-10 5q0 21 27.5 49t52.5 39l-21 27q-10 17 -10 33z" />
    <glyph glyph-name="questiondown" unicode="&#xbf;" horiz-adv-x="462" 
d="M503 614q15 0 21.5 -9t8.5 -25q0 -22 -14 -41.5t-36 -19.5q-10 0 -21 9q-8 9 -10 22q0 21 15.5 42.5t35.5 21.5zM438 445q0 6 -9 14l-11 8l-1 3q0 9 7.5 15.5t17.5 7.5q11 0 17 -7.5t8 -19.5q0 -33 -84 -99q-63 -49 -102.5 -82t-53.5 -48q-84 -84 -84 -166q0 -29 22 -50
q24 -19 54 -19q34 0 69 23q40 26 40 57q0 12 -9 21q-18 19 -20 29q0 17 17 34t35 17q13 0 25.5 -14t12.5 -28q0 -60 -58 -105q-53 -41 -116 -41q-52 0 -90.5 33t-38.5 86q0 77 91 144q17 13 169 97q92 51 92 90z" />
    <glyph glyph-name="Agrave" unicode="&#xc0;" horiz-adv-x="923" 
d="M816 847q12 0 28 -29t36 -39l23 -8l6 -4l-3 -6l-4 -2h-7q-30 0 -63 17q-39 20 -39 46q0 9 6 16t17 9zM707 298l94 107q26 28 53.5 54.5t50.5 44.5q56 44 109 73q60 32 124 44l26 4q9 3 9 9l-3 5q-14 0 -25 4l-43 12q-99 24 -201 24q-116 0 -221 -48q-130 -60 -130 -164
q0 -33 24 -54q12 -10 26 -15t32 -5q53 0 110 44t57 97q0 9 -7 17l-17 13l-4 7l3 4l4 2q11 0 23 -21q8 -20 10 -37q0 -57 -52.5 -98t-111.5 -41q-51 0 -88.5 36t-37.5 86q0 98 108 155q87 45 198 45q59 0 118.5 -7t118.5 -22l72 -19q44 -11 74 -11q9 0 23 6l26 14q6 -4 8 -6
l3 -10q0 -17 -12 -26q-12 -6 -32 -6l-24 1q-56 0 -121 -52q-41 -33 -95 -98l-41 -57l-61 -102q47 0 81 10q56 15 56 47q0 6 -6 12l-10 12q0 11 7.5 17t19.5 8q19 0 19 -24q0 -50 -66 -76q-48 -18 -110 -18q-17 -34 -28 -59.5t-17 -44.5q-19 -60 -19 -112q0 -31 7 -49
q11 -28 36 -28q31 0 54 38l34 62l6 3l4 -2l2 -3q-8 -32 -37 -67q-34 -40 -64 -40q-40 0 -67 59q-21 48 -21 96q0 29 2 41t9 33l27 70l-72 -2l-83 -109q-42 -52 -84 -90q-52 -45 -116 -75q21 -20 46 -30.5t51 -10.5q33 0 51.5 11t35.5 38l5 2l3 -1l2 -3l1 -5l-2 -8
q-22 -22 -42.5 -33.5t-49.5 -11.5q-15 0 -29.5 3t-31.5 10q-27 11 -53 36l-51 -12l-36 -2q-94 0 -156 50q-70 55 -70 146q0 95 84 163q78 63 178 63q66 0 114 -32q56 -36 56 -98q36 3 73.5 5t79.5 2zM813 304q24 57 82 121q70 76 196 161l7 4q8 6 10 12l-26 -6
q-31 -10 -64.5 -28t-64.5 -43q-51 -39 -113 -107q-34 -38 -95 -115zM393 144q-45 9 -63 19q-34 19 -34 52q0 13 6 22t15 17l8 2l3 -1l4 -6l-16 -16q-9 -8 -11 -19q0 -30 34 -43q24 -9 60 -9q17 55 49.5 81.5t89.5 41.5l1 14q0 46 -39 73q-35 22 -84 22q-91 0 -180 -68
q-97 -73 -97 -160q0 -65 59 -108q54 -39 122 -39h29q12 3 17 4q23 5 48 16q-22 44 -22 81zM695 287h-58l-48 -3l-34 -4q-15 -66 -48.5 -93t-104.5 -42l-3 -25q0 -17 6 -39.5t17 -36.5q67 26 146 108zM533 274l1 9q-3 3 -5 3q-18 0 -74 -50.5t-56 -66.5q0 -5 11 -4
q93 21 123 109z" />
    <glyph glyph-name="Aacute" unicode="&#xc1;" horiz-adv-x="923" 
d="M824 771l30 6q7 2 23 15l25 34q16 22 34 22q9 0 15 -5q7 -3 8 -11q0 -28 -44 -51q-40 -20 -70 -20h-17l-8 4zM707 298l94 107q26 28 53.5 54.5t50.5 44.5q56 44 109 73q60 32 124 44l26 4q9 3 9 9l-3 5q-14 0 -25 4l-43 12q-99 24 -201 24q-116 0 -221 -48
q-130 -60 -130 -164q0 -33 24 -54q12 -10 26 -15t32 -5q53 0 110 44t57 97q0 9 -7 17l-17 13l-4 7l3 4l4 2q11 0 23 -21q8 -20 10 -37q0 -57 -52.5 -98t-111.5 -41q-51 0 -88.5 36t-37.5 86q0 98 108 155q87 45 198 45q59 0 118.5 -7t118.5 -22l72 -19q44 -11 74 -11
q9 0 23 6l26 14q6 -4 8 -6l3 -10q0 -17 -12 -26q-12 -6 -32 -6l-24 1q-56 0 -121 -52q-41 -33 -95 -98l-41 -57l-61 -102q47 0 81 10q56 15 56 47q0 6 -6 12l-10 12q0 11 7.5 17t19.5 8q19 0 19 -24q0 -50 -66 -76q-48 -18 -110 -18q-17 -34 -28 -59.5t-17 -44.5
q-19 -60 -19 -112q0 -31 7 -49q11 -28 36 -28q31 0 54 38l34 62l6 3l4 -2l2 -3q-8 -32 -37 -67q-34 -40 -64 -40q-40 0 -67 59q-21 48 -21 96q0 29 2 41t9 33l27 70l-72 -2l-83 -109q-42 -52 -84 -90q-52 -45 -116 -75q21 -20 46 -30.5t51 -10.5q33 0 51.5 11t35.5 38l5 2
l3 -1l2 -3l1 -5l-2 -8q-22 -22 -42.5 -33.5t-49.5 -11.5q-15 0 -29.5 3t-31.5 10q-27 11 -53 36l-51 -12l-36 -2q-94 0 -156 50q-70 55 -70 146q0 95 84 163q78 63 178 63q66 0 114 -32q56 -36 56 -98q36 3 73.5 5t79.5 2zM813 304q24 57 82 121q70 76 196 161l7 4
q8 6 10 12l-26 -6q-31 -10 -64.5 -28t-64.5 -43q-51 -39 -113 -107q-34 -38 -95 -115zM393 144q-45 9 -63 19q-34 19 -34 52q0 13 6 22t15 17l8 2l3 -1l4 -6l-16 -16q-9 -8 -11 -19q0 -30 34 -43q24 -9 60 -9q17 55 49.5 81.5t89.5 41.5l1 14q0 46 -39 73q-35 22 -84 22
q-91 0 -180 -68q-97 -73 -97 -160q0 -65 59 -108q54 -39 122 -39h29q12 3 17 4q23 5 48 16q-22 44 -22 81zM695 287h-58l-48 -3l-34 -4q-15 -66 -48.5 -93t-104.5 -42l-3 -25q0 -17 6 -39.5t17 -36.5q67 26 146 108zM533 274l1 9q-3 3 -5 3q-18 0 -74 -50.5t-56 -66.5
q0 -5 11 -4q93 21 123 109z" />
    <glyph glyph-name="Acircumflex" unicode="&#xc2;" horiz-adv-x="923" 
d="M804 760l-7 6l14 9l19 9l30 16q13 9 25.5 22t17.5 22q12 17 16 18l5 -4l1 -4l-2 -16l-2 -16q0 -18 2.5 -27t10.5 -16l9 -7l8 -7l-9 -4q-19 0 -31 11q-10 7 -21 26q-16 -12 -42 -25t-44 -13zM707 298l94 107q26 28 53.5 54.5t50.5 44.5q56 44 109 73q60 32 124 44l26 4
q9 3 9 9l-3 5q-14 0 -25 4l-43 12q-99 24 -201 24q-116 0 -221 -48q-130 -60 -130 -164q0 -33 24 -54q12 -10 26 -15t32 -5q53 0 110 44t57 97q0 9 -7 17l-17 13l-4 7l3 4l4 2q11 0 23 -21q8 -20 10 -37q0 -57 -52.5 -98t-111.5 -41q-51 0 -88.5 36t-37.5 86q0 98 108 155
q87 45 198 45q59 0 118.5 -7t118.5 -22l72 -19q44 -11 74 -11q9 0 23 6l26 14q6 -4 8 -6l3 -10q0 -17 -12 -26q-12 -6 -32 -6l-24 1q-56 0 -121 -52q-41 -33 -95 -98l-41 -57l-61 -102q47 0 81 10q56 15 56 47q0 6 -6 12l-10 12q0 11 7.5 17t19.5 8q19 0 19 -24
q0 -50 -66 -76q-48 -18 -110 -18q-17 -34 -28 -59.5t-17 -44.5q-19 -60 -19 -112q0 -31 7 -49q11 -28 36 -28q31 0 54 38l34 62l6 3l4 -2l2 -3q-8 -32 -37 -67q-34 -40 -64 -40q-40 0 -67 59q-21 48 -21 96q0 29 2 41t9 33l27 70l-72 -2l-83 -109q-42 -52 -84 -90
q-52 -45 -116 -75q21 -20 46 -30.5t51 -10.5q33 0 51.5 11t35.5 38l5 2l3 -1l2 -3l1 -5l-2 -8q-22 -22 -42.5 -33.5t-49.5 -11.5q-15 0 -29.5 3t-31.5 10q-27 11 -53 36l-51 -12l-36 -2q-94 0 -156 50q-70 55 -70 146q0 95 84 163q78 63 178 63q66 0 114 -32q56 -36 56 -98
q36 3 73.5 5t79.5 2zM813 304q24 57 82 121q70 76 196 161l7 4q8 6 10 12l-26 -6q-31 -10 -64.5 -28t-64.5 -43q-51 -39 -113 -107q-34 -38 -95 -115zM393 144q-45 9 -63 19q-34 19 -34 52q0 13 6 22t15 17l8 2l3 -1l4 -6l-16 -16q-9 -8 -11 -19q0 -30 34 -43q24 -9 60 -9
q17 55 49.5 81.5t89.5 41.5l1 14q0 46 -39 73q-35 22 -84 22q-91 0 -180 -68q-97 -73 -97 -160q0 -65 59 -108q54 -39 122 -39h29q12 3 17 4q23 5 48 16q-22 44 -22 81zM695 287h-58l-48 -3l-34 -4q-15 -66 -48.5 -93t-104.5 -42l-3 -25q0 -17 6 -39.5t17 -36.5
q67 26 146 108zM533 274l1 9q-3 3 -5 3q-18 0 -74 -50.5t-56 -66.5q0 -5 11 -4q93 21 123 109z" />
    <glyph glyph-name="Atilde" unicode="&#xc3;" horiz-adv-x="923" 
d="M864 825q7 0 20 -3t36 -10l34 -7q10 0 19 6t17 19l4 2q4 -4 5 -6l-5 -14q-9 -16 -30 -31q-8 -5 -18.5 -9t-19.5 -4q-15 0 -28 3t-20 5q-30 9 -44 9q-13 0 -20 -14l-6 -2l-5 5q0 16 22 33.5t39 17.5zM707 298l94 107q26 28 53.5 54.5t50.5 44.5q56 44 109 73q60 32 124 44
l26 4q9 3 9 9l-3 5q-14 0 -25 4l-43 12q-99 24 -201 24q-116 0 -221 -48q-130 -60 -130 -164q0 -33 24 -54q12 -10 26 -15t32 -5q53 0 110 44t57 97q0 9 -7 17l-17 13l-4 7l3 4l4 2q11 0 23 -21q8 -20 10 -37q0 -57 -52.5 -98t-111.5 -41q-51 0 -88.5 36t-37.5 86
q0 98 108 155q87 45 198 45q59 0 118.5 -7t118.5 -22l72 -19q44 -11 74 -11q9 0 23 6l26 14q6 -4 8 -6l3 -10q0 -17 -12 -26q-12 -6 -32 -6l-24 1q-56 0 -121 -52q-41 -33 -95 -98l-41 -57l-61 -102q47 0 81 10q56 15 56 47q0 6 -6 12l-10 12q0 11 7.5 17t19.5 8
q19 0 19 -24q0 -50 -66 -76q-48 -18 -110 -18q-17 -34 -28 -59.5t-17 -44.5q-19 -60 -19 -112q0 -31 7 -49q11 -28 36 -28q31 0 54 38l34 62l6 3l4 -2l2 -3q-8 -32 -37 -67q-34 -40 -64 -40q-40 0 -67 59q-21 48 -21 96q0 29 2 41t9 33l27 70l-72 -2l-83 -109
q-42 -52 -84 -90q-52 -45 -116 -75q21 -20 46 -30.5t51 -10.5q33 0 51.5 11t35.5 38l5 2l3 -1l2 -3l1 -5l-2 -8q-22 -22 -42.5 -33.5t-49.5 -11.5q-15 0 -29.5 3t-31.5 10q-27 11 -53 36l-51 -12l-36 -2q-94 0 -156 50q-70 55 -70 146q0 95 84 163q78 63 178 63
q66 0 114 -32q56 -36 56 -98q36 3 73.5 5t79.5 2zM813 304q24 57 82 121q70 76 196 161l7 4q8 6 10 12l-26 -6q-31 -10 -64.5 -28t-64.5 -43q-51 -39 -113 -107q-34 -38 -95 -115zM393 144q-45 9 -63 19q-34 19 -34 52q0 13 6 22t15 17l8 2l3 -1l4 -6l-16 -16q-9 -8 -11 -19
q0 -30 34 -43q24 -9 60 -9q17 55 49.5 81.5t89.5 41.5l1 14q0 46 -39 73q-35 22 -84 22q-91 0 -180 -68q-97 -73 -97 -160q0 -65 59 -108q54 -39 122 -39h29q12 3 17 4q23 5 48 16q-22 44 -22 81zM695 287h-58l-48 -3l-34 -4q-15 -66 -48.5 -93t-104.5 -42l-3 -25
q0 -17 6 -39.5t17 -36.5q67 26 146 108zM533 274l1 9q-3 3 -5 3q-18 0 -74 -50.5t-56 -66.5q0 -5 11 -4q93 21 123 109z" />
    <glyph glyph-name="Adieresis" unicode="&#xc4;" horiz-adv-x="923" 
d="M1136 843q24 0 24 -21q0 -18 -16 -37t-34 -19q-7 0 -13.5 6.5t-6.5 15.5q0 19 14 37t32 18zM1252 844l11 -2q12 -7 14 -22q0 -14 -19 -33.5t-31 -19.5q-9 0 -17 7q-5 7 -7 18q0 16 17.5 33.5t31.5 18.5zM706 299l94 107q26 28 53.5 54.5t50.5 44.5q56 44 109 73
q60 32 124 44l26 4q9 3 9 9l-3 5q-14 0 -25 4l-43 12q-99 24 -201 24q-116 0 -221 -48q-130 -60 -130 -164q0 -33 24 -54q12 -10 26 -15t32 -5q53 0 110 44t57 97q0 9 -7 17l-17 13l-4 7l3 4l4 2q11 0 23 -21q8 -20 10 -37q0 -57 -52.5 -98t-111.5 -41q-51 0 -88.5 36
t-37.5 86q0 98 108 155q87 45 198 45q59 0 118.5 -7t118.5 -22l72 -19q44 -11 74 -11q9 0 23 6l26 14q6 -4 8 -6l3 -10q0 -17 -12 -26q-12 -6 -32 -6l-24 1q-56 0 -121 -52q-41 -33 -95 -98l-41 -57l-61 -102q47 0 81 10q56 15 56 47q0 6 -6 12l-10 12q0 11 7.5 17t19.5 8
q19 0 19 -24q0 -50 -66 -76q-48 -18 -110 -18q-17 -34 -28 -59.5t-17 -44.5q-19 -60 -19 -112q0 -31 7 -49q11 -28 36 -28q31 0 54 38l34 62l6 3l4 -2l2 -3q-8 -32 -37 -67q-34 -40 -64 -40q-40 0 -67 59q-21 48 -21 96q0 29 2 41t9 33l27 70l-72 -2l-83 -109
q-42 -52 -84 -90q-52 -45 -116 -75q21 -20 46 -30.5t51 -10.5q33 0 51.5 11t35.5 38l5 2l3 -1l2 -3l1 -5l-2 -8q-22 -22 -42.5 -33.5t-49.5 -11.5q-15 0 -29.5 3t-31.5 10q-27 11 -53 36l-51 -12l-36 -2q-94 0 -156 50q-70 55 -70 146q0 95 84 163q78 63 178 63
q66 0 114 -32q56 -36 56 -98q36 3 73.5 5t79.5 2zM812 305q24 57 82 121q70 76 196 161l7 4q8 6 10 12l-26 -6q-31 -10 -64.5 -28t-64.5 -43q-51 -39 -113 -107q-34 -38 -95 -115zM392 145q-45 9 -63 19q-34 19 -34 52q0 13 6 22t15 17l8 2l3 -1l4 -6l-16 -16q-9 -8 -11 -19
q0 -30 34 -43q24 -9 60 -9q17 55 49.5 81.5t89.5 41.5l1 14q0 46 -39 73q-35 22 -84 22q-91 0 -180 -68q-97 -73 -97 -160q0 -65 59 -108q54 -39 122 -39h29q12 3 17 4q23 5 48 16q-22 44 -22 81zM694 288h-58l-48 -3l-34 -4q-15 -66 -48.5 -93t-104.5 -42l-3 -25
q0 -17 6 -39.5t17 -36.5q67 26 146 108zM532 275l1 9q-3 3 -5 3q-18 0 -74 -50.5t-56 -66.5q0 -5 11 -4q93 21 123 109z" />
    <glyph glyph-name="Aring" unicode="&#xc5;" horiz-adv-x="923" 
d="M1199 855q17 0 27 -13t10 -30q0 -24 -21 -45q-21 -19 -46 -19q-13 0 -25 12q-8 11 -10 28q0 25 20 46t45 21zM1225 815q0 10 -8 19t-19 9q-21 0 -37 -19t-16 -43q0 -9 7.5 -15t18.5 -8q21 0 37.5 18t16.5 39zM706 297l94 107q26 28 53.5 54.5t50.5 44.5q56 44 109 73
q60 32 124 44l26 4q9 3 9 9l-3 5q-14 0 -25 4l-43 12q-99 24 -201 24q-116 0 -221 -48q-130 -60 -130 -164q0 -33 24 -54q12 -10 26 -15t32 -5q53 0 110 44t57 97q0 9 -7 17l-17 13l-4 7l3 4l4 2q11 0 23 -21q8 -20 10 -37q0 -57 -52.5 -98t-111.5 -41q-51 0 -88.5 36
t-37.5 86q0 98 108 155q87 45 198 45q59 0 118.5 -7t118.5 -22l72 -19q44 -11 74 -11q9 0 23 6l26 14q6 -4 8 -6l3 -10q0 -17 -12 -26q-12 -6 -32 -6l-24 1q-56 0 -121 -52q-41 -33 -95 -98l-41 -57l-61 -102q47 0 81 10q56 15 56 47q0 6 -6 12l-10 12q0 11 7.5 17t19.5 8
q19 0 19 -24q0 -50 -66 -76q-48 -18 -110 -18q-17 -34 -28 -59.5t-17 -44.5q-19 -60 -19 -112q0 -31 7 -49q11 -28 36 -28q31 0 54 38l34 62l6 3l4 -2l2 -3q-8 -32 -37 -67q-34 -40 -64 -40q-40 0 -67 59q-21 48 -21 96q0 29 2 41t9 33l27 70l-72 -2l-83 -109
q-42 -52 -84 -90q-52 -45 -116 -75q21 -20 46 -30.5t51 -10.5q33 0 51.5 11t35.5 38l5 2l3 -1l2 -3l1 -5l-2 -8q-22 -22 -42.5 -33.5t-49.5 -11.5q-15 0 -29.5 3t-31.5 10q-27 11 -53 36l-51 -12l-36 -2q-94 0 -156 50q-70 55 -70 146q0 95 84 163q78 63 178 63
q66 0 114 -32q56 -36 56 -98q36 3 73.5 5t79.5 2zM812 303q24 57 82 121q70 76 196 161l7 4q8 6 10 12l-26 -6q-31 -10 -64.5 -28t-64.5 -43q-51 -39 -113 -107q-34 -38 -95 -115zM392 143q-45 9 -63 19q-34 19 -34 52q0 13 6 22t15 17l8 2l3 -1l4 -6l-16 -16q-9 -8 -11 -19
q0 -30 34 -43q24 -9 60 -9q17 55 49.5 81.5t89.5 41.5l1 14q0 46 -39 73q-35 22 -84 22q-91 0 -180 -68q-97 -73 -97 -160q0 -65 59 -108q54 -39 122 -39h29q12 3 17 4q23 5 48 16q-22 44 -22 81zM694 286h-58l-48 -3l-34 -4q-15 -66 -48.5 -93t-104.5 -42l-3 -25
q0 -17 6 -39.5t17 -36.5q67 26 146 108zM532 273l1 9q-3 3 -5 3q-18 0 -74 -50.5t-56 -66.5q0 -5 11 -4q93 21 123 109z" />
    <glyph glyph-name="AE" unicode="&#xc6;" horiz-adv-x="1238" 
d="M688 304l141 162q60 63 127 112q50 37 143 89l-118 18q-68 10 -106 10q-118 0 -219 -49q-128 -60 -128 -164q0 -35 23 -59t58 -24q50 0 106 48.5t56 98.5q0 14 -9 22l-8 11l4 2q17 -3 24.5 -19.5t7.5 -35.5q0 -53 -55.5 -95.5t-111.5 -42.5q-54 0 -91 37t-37 92
q0 110 114 163q85 38 211 38q42 0 59 -1.5t51 -6t106 -21.5l42 -9l37 -2h6q82 38 168 38q62 0 107 -21q57 -27 57 -85q0 -59 -49 -100t-111 -41q-46 0 -75 20q-34 23 -34 68q0 19 20 35q11 9 19.5 12.5t21.5 3.5l27 -3q12 -3 13 -13l-5 -4l-5 1q-12 10 -29 10
q-22 0 -36.5 -14t-14.5 -36q0 -24 27 -41q21 -12 51 -12q56 0 107 33q57 36 57 91q0 41 -43 65q-35 18 -82 18q-84 0 -164 -69.5t-80 -152.5q0 -19 6 -35t23 -23l62 4l43 1h33q13 -3 27 -5t20 -15q-3 -10 -17 -14l-30 -3q-68 0 -128 18l-29 -5q-96 -18 -171.5 -99.5
t-75.5 -178.5q0 -58 39 -98.5t96 -40.5q83 0 176 87t93 173q0 33 -22.5 53t-57.5 20q-56 0 -110.5 -51.5t-54.5 -108.5q0 -66 65 -66q13 0 21.5 4.5t19.5 17.5l3 -4l2 -7q0 -5 -16 -14q-18 -7 -34 -7q-36 0 -60.5 26.5t-24.5 63.5q0 63 55.5 110.5t120.5 47.5q54 0 86 -30.5
t32 -84.5q0 -97 -82 -171.5t-182 -74.5q-96 0 -160.5 60t-64.5 156q0 29 4 52.5t16 56.5l-76 -2l-81 -110q-46 -58 -91 -96q-49 -42 -115 -74q29 -21 51 -30.5t50 -9.5q33 0 48.5 9t38.5 40l3 1l7 -3l1 -4q-8 -25 -37.5 -39.5t-56.5 -14.5q-32 0 -63.5 11.5t-52.5 35.5
l-48 -11l-39 -4q-94 0 -159 52q-71 57 -71 149q0 100 86 168q80 63 183 63q70 0 114 -31q52 -37 52 -103l83 8zM797 308q45 81 99 150q51 65 122 133l20 20l25 19q-72 -33 -135 -87q-48 -40 -105 -111l-100 -126zM1079 420q-30 17 -49 51t-19 73l-57 -77q-61 -82 -82 -139
q54 41 89.5 56t117.5 36zM371 147q-35 0 -62 15q-31 19 -31 52q0 22 18 31l4 -1l4 -2l1 -4l-7 -8q-6 -9 -8 -21q0 -23 30 -38q24 -11 51 -11q22 52 58.5 84t90.5 44l3 22q0 46 -44 72q-38 22 -87 22q-86 0 -177 -76q-95 -80 -95 -164q0 -66 59 -110q54 -39 123 -39
q26 0 46 4.5t47 14.5l-20 43q-6 20 -6 43zM676 292q-30 0 -43 -1q-29 -5 -46 -6l-54 -4q-12 -62 -51 -94q-32 -26 -101 -41l-2 -25q0 -27 5.5 -47.5t20.5 -35.5q52 21 112 75q52 48 159 179zM516 275l1 8l-3 4q-18 0 -80.5 -54t-62.5 -71l2 -3l9 1q47 13 81 41t53 74z" />
    <glyph glyph-name="Ccedilla" unicode="&#xc7;" horiz-adv-x="608" 
d="M648 704q57 0 95.5 -33t38.5 -91q0 -69 -57 -131.5t-126 -62.5q-46 0 -75.5 25.5t-29.5 69.5q0 43 36.5 79.5t82.5 36.5q15 0 28 -4.5t16 -16.5l-5 -7l-3 1q-6 9 -14 13l-15 4q-40 0 -73 -42q-15 -21 -23 -42t-8 -44q0 -25 17 -42t43 -17q60 0 118.5 72t58.5 134
q0 43 -26 63q-25 22 -67 22q-85 0 -183 -82q-42 -35 -82.5 -79.5t-82.5 -102.5q-64 -89 -109 -180q-18 -39 -35 -89t-17 -87q0 -51 27 -89.5t75 -55.5q6 5 11 16l-4 6l-15 4q-7 4 -8 14q0 10 9 20t22 10q12 0 18.5 -7.5t6.5 -20.5q0 -10 -7.5 -22.5t-17.5 -24.5q12 -2 32 -2
q97 0 193 124q89 118 89 218q0 36 -20.5 60t-57.5 24q-68 0 -126.5 -74.5t-58.5 -144.5q0 -26 15 -45t43 -19q25 0 40 14l37 60l4 3l3 -1q6 -3 6 -8l-13 -20q-15 -27 -32 -40q-22 -17 -49 -17q-35 0 -59 31q-22 33 -22 71q0 73 63.5 136.5t139.5 63.5q54 0 87 -38.5
t33 -94.5q0 -114 -96 -215.5t-210 -101.5l-25 1q-8 0 -26 6l-15 -13q-10 -6 -20 -8l-5 5l25 20q-59 21 -94 80.5t-35 127.5q0 112 85.5 250t204.5 230q130 100 244 100z" />
    <glyph glyph-name="Egrave" unicode="&#xc8;" horiz-adv-x="608" 
d="M660 847q13 0 24 -17l37 -51l20 -6q9 -1 11 -9l-3 -3l-4 -2h-6q-30 0 -64 17q-40 20 -40 46q0 9 7.5 16.5t17.5 8.5zM394 530q0 92 99 139q76 35 181 35q59 0 102 -23q56 -29 56 -81q0 -58 -55 -95q-49 -32 -111 -32q-38 0 -71 15q-41 20 -41 55q0 30 29 50q32 19 63 19
q21 0 28 -2q11 -1 19 -10l1 -3l-1 -4l-3 -2l-3 -1l-19 6q-14 6 -24 6q-30 0 -53.5 -14.5t-23.5 -42.5q0 -19 17.5 -32.5t54.5 -13.5q56 0 112 27q67 34 67 85q0 38 -41 59q-18 8 -35.5 12t-40.5 4q-83 0 -169 -61q-94 -67 -94 -146q0 -39 31 -57l25 2h22h28q51 0 74.5 -5
t33.5 -16l2 -5q0 -10 -23 -14l-45 -2q-30 0 -53 5.5t-32 8.5t-28 13q-110 0 -211.5 -106t-101.5 -219q0 -65 43.5 -100.5t111.5 -35.5q90 0 187.5 94.5t97.5 184.5q0 36 -25.5 55t-63.5 19q-63 0 -125.5 -64t-62.5 -126q0 -25 15 -44t42 -19q28 0 45.5 15.5t26.5 44.5l4 4
l4 1l7 -5q-15 -32 -35 -50t-51 -18q-33 0 -57 24.5t-24 58.5q0 72 69 130t142 58q50 0 84 -34t34 -84q0 -101 -99 -182q-93 -75 -201 -75q-93 0 -157.5 58t-64.5 151q0 120 117 198q95 63 229 78q-25 16 -42 47.5t-17 61.5z" />
    <glyph glyph-name="Eacute" unicode="&#xc9;" horiz-adv-x="608" 
d="M668 771q42 6 79 55q16 22 33 22q24 0 24 -19q0 -26 -45 -49q-41 -19 -70 -19h-17l-7 4zM393 528q0 92 99 139q76 35 181 35q59 0 102 -23q56 -29 56 -81q0 -58 -55 -95q-49 -32 -111 -32q-38 0 -71 15q-41 20 -41 55q0 30 29 50q32 19 63 19q21 0 28 -2q11 -1 19 -10
l1 -3l-1 -4l-3 -2l-3 -1l-19 6q-14 6 -24 6q-30 0 -53.5 -14.5t-23.5 -42.5q0 -19 17.5 -32.5t54.5 -13.5q56 0 112 27q67 34 67 85q0 38 -41 59q-18 8 -35.5 12t-40.5 4q-83 0 -169 -61q-94 -67 -94 -146q0 -39 31 -57l25 2h22h28q51 0 74.5 -5t33.5 -16l2 -5
q0 -10 -23 -14l-45 -2q-30 0 -53 5.5t-32 8.5t-28 13q-110 0 -211.5 -106t-101.5 -219q0 -65 43.5 -100.5t111.5 -35.5q90 0 187.5 94.5t97.5 184.5q0 36 -25.5 55t-63.5 19q-63 0 -125.5 -64t-62.5 -126q0 -25 15 -44t42 -19q28 0 45.5 15.5t26.5 44.5l4 4l4 1l7 -5
q-15 -32 -35 -50t-51 -18q-33 0 -57 24.5t-24 58.5q0 72 69 130t142 58q50 0 84 -34t34 -84q0 -101 -99 -182q-93 -75 -201 -75q-93 0 -157.5 58t-64.5 151q0 120 117 198q95 63 229 78q-25 16 -42 47.5t-17 61.5z" />
    <glyph glyph-name="Ecircumflex" unicode="&#xca;" horiz-adv-x="608" 
d="M647 760l-6 5q7 7 19 13l24 11q31 15 56 44l10 13l10 13l3 2l4 -3l2 -7l-3 -30q0 -16 2 -23.5t10 -18.5l11 -7q5 -3 6 -8l-7 -3q-18 0 -30.5 9.5t-23.5 28.5l-45 -28q-22 -11 -42 -11zM393 529q0 92 99 139q76 35 181 35q59 0 102 -23q56 -29 56 -81q0 -58 -55 -95
q-49 -32 -111 -32q-38 0 -71 15q-41 20 -41 55q0 30 29 50q32 19 63 19q21 0 28 -2q11 -1 19 -10l1 -3l-1 -4l-3 -2l-3 -1l-19 6q-14 6 -24 6q-30 0 -53.5 -14.5t-23.5 -42.5q0 -19 17.5 -32.5t54.5 -13.5q56 0 112 27q67 34 67 85q0 38 -41 59q-18 8 -35.5 12t-40.5 4
q-83 0 -169 -61q-94 -67 -94 -146q0 -39 31 -57l25 2h22h28q51 0 74.5 -5t33.5 -16l2 -5q0 -10 -23 -14l-45 -2q-30 0 -53 5.5t-32 8.5t-28 13q-110 0 -211.5 -106t-101.5 -219q0 -65 43.5 -100.5t111.5 -35.5q90 0 187.5 94.5t97.5 184.5q0 36 -25.5 55t-63.5 19
q-63 0 -125.5 -64t-62.5 -126q0 -25 15 -44t42 -19q28 0 45.5 15.5t26.5 44.5l4 4l4 1l7 -5q-15 -32 -35 -50t-51 -18q-33 0 -57 24.5t-24 58.5q0 72 69 130t142 58q50 0 84 -34t34 -84q0 -101 -99 -182q-93 -75 -201 -75q-93 0 -157.5 58t-64.5 151q0 120 117 198
q95 63 229 78q-25 16 -42 47.5t-17 61.5z" />
    <glyph glyph-name="Edieresis" unicode="&#xcb;" horiz-adv-x="608" 
d="M698 843q9 0 15 -9.5t6 -19.5q0 -13 -18.5 -30.5t-31.5 -17.5q-6 0 -13 6t-7 15q0 17 15.5 36.5t33.5 19.5zM813 843q22 0 22 -22q0 -17 -17.5 -36t-34.5 -19q-10 0 -15 8l-4 20q0 11 18 30t31 19zM393 530q0 92 99 139q76 35 181 35q59 0 102 -23q56 -29 56 -81
q0 -58 -55 -95q-49 -32 -111 -32q-38 0 -71 15q-41 20 -41 55q0 30 29 50q32 19 63 19q21 0 28 -2q11 -1 19 -10l1 -3l-1 -4l-3 -2l-3 -1l-19 6q-14 6 -24 6q-30 0 -53.5 -14.5t-23.5 -42.5q0 -19 17.5 -32.5t54.5 -13.5q56 0 112 27q67 34 67 85q0 38 -41 59
q-18 8 -35.5 12t-40.5 4q-83 0 -169 -61q-94 -67 -94 -146q0 -39 31 -57l25 2h22h28q51 0 74.5 -5t33.5 -16l2 -5q0 -10 -23 -14l-45 -2q-30 0 -53 5.5t-32 8.5t-28 13q-110 0 -211.5 -106t-101.5 -219q0 -65 43.5 -100.5t111.5 -35.5q90 0 187.5 94.5t97.5 184.5
q0 36 -25.5 55t-63.5 19q-63 0 -125.5 -64t-62.5 -126q0 -25 15 -44t42 -19q28 0 45.5 15.5t26.5 44.5l4 4l4 1l7 -5q-15 -32 -35 -50t-51 -18q-33 0 -57 24.5t-24 58.5q0 72 69 130t142 58q50 0 84 -34t34 -84q0 -101 -99 -182q-93 -75 -201 -75q-93 0 -157.5 58t-64.5 151
q0 120 117 198q95 63 229 78q-25 16 -42 47.5t-17 61.5z" />
    <glyph glyph-name="Igrave" unicode="&#xcc;" horiz-adv-x="776" 
d="M743 847q11 0 24 -17l38 -51l19 -6q5 -1 10 -5l2 -2q-4 -6 -8 -7h-5q-30 0 -64 17q-40 20 -40 46q0 6 4 13q8 12 20 12zM342 380q68 0 117 -31q58 -37 58 -101q0 -56 -44.5 -93.5t-100.5 -37.5q-40 0 -71 20q-37 25 -37 61q0 17 14.5 28.5t34.5 16.5l14 -6l1 -3
q-4 -5 -6 -6h-15q-13 0 -23 -9t-11 -23q0 -26 25 -44q27 -16 55 -16q51 0 99 36q26 20 39 41t13 47q0 44 -38 66.5t-86 22.5q-83 0 -156 -52q-81 -57 -81 -137q0 -75 77 -119q66 -37 146 -37q124 0 225 94q71 65 159 208q107 175 139 215q46 58 109 97l68 36l1 3q-3 3 -14 6
l-37 11q-42 11 -97.5 19t-97.5 8q-127 0 -233 -56q-130 -70 -130 -185q0 -41 36 -71q36 -27 81 -27q61 0 119 50t58 109q0 26 -18 46.5t-46 20.5q-37 0 -75 -32t-38 -68q0 -28 26 -35l4 -5l1 -3q-2 -4 -4 -4l-3 -1q-14 0 -25 14q-8 14 -10 30q0 41 40 76.5t85 35.5
q37 0 60 -26t23 -64q0 -65 -57 -112t-125 -47q-62 0 -112 44t-50 106q0 113 108 176q89 51 213 51q134 0 254 -33l41 -13q5 -1 19.5 -4t22.5 -4q12 0 26 10l25 16l5 -2q9 -5 9 -14q0 -17 -12 -26q-7 -4 -30 -9q-73 -12 -129 -59q-43 -36 -86 -108q-14 -23 -26.5 -48
t-38.5 -81q-59 -127 -99 -187q-57 -83 -135.5 -126.5t-203.5 -43.5q-104 0 -184 45q-95 54 -95 154q0 87 73 141q66 48 157 48z" />
    <glyph glyph-name="Iacute" unicode="&#xcd;" horiz-adv-x="776" 
d="M751 771q44 6 80 55q7 10 15 16t17 6q24 0 24 -19q0 -26 -45 -49q-41 -19 -70 -19h-16l-7 4zM342 378q68 0 117 -31q58 -37 58 -101q0 -56 -44.5 -93.5t-100.5 -37.5q-40 0 -71 20q-37 25 -37 61q0 17 14.5 28.5t34.5 16.5l14 -6l1 -3q-4 -5 -6 -6h-15q-13 0 -23 -9
t-11 -23q0 -26 25 -44q27 -16 55 -16q51 0 99 36q26 20 39 41t13 47q0 44 -38 66.5t-86 22.5q-83 0 -156 -52q-81 -57 -81 -137q0 -75 77 -119q66 -37 146 -37q124 0 225 94q71 65 159 208q107 175 139 215q46 58 109 97l68 36l1 3q-3 3 -14 6l-37 11q-42 11 -97.5 19
t-97.5 8q-127 0 -233 -56q-130 -70 -130 -185q0 -41 36 -71q36 -27 81 -27q61 0 119 50t58 109q0 26 -18 46.5t-46 20.5q-37 0 -75 -32t-38 -68q0 -28 26 -35l4 -5l1 -3q-2 -4 -4 -4l-3 -1q-14 0 -25 14q-8 14 -10 30q0 41 40 76.5t85 35.5q37 0 60 -26t23 -64
q0 -65 -57 -112t-125 -47q-62 0 -112 44t-50 106q0 113 108 176q89 51 213 51q134 0 254 -33l41 -13q5 -1 19.5 -4t22.5 -4q12 0 26 10l25 16l5 -2q9 -5 9 -14q0 -17 -12 -26q-7 -4 -30 -9q-73 -12 -129 -59q-43 -36 -86 -108q-14 -23 -26.5 -48t-38.5 -81
q-59 -127 -99 -187q-57 -83 -135.5 -126.5t-203.5 -43.5q-104 0 -184 45q-95 54 -95 154q0 87 73 141q66 48 157 48z" />
    <glyph glyph-name="Icircumflex" unicode="&#xce;" horiz-adv-x="776" 
d="M730 760l-6 4l2 5q7 2 12.5 3.5t21 8.5t36 25.5t38.5 40.5l6 9q2 3 7 5q4 -6 5 -10l-3 -30l1 -20q1 -8 12 -22l10 -7q6 -3 6 -8l-7 -3q-18 0 -30.5 9.5t-23.5 28.5q-15 -13 -41.5 -26t-45.5 -13zM341 379q68 0 117 -31q58 -37 58 -101q0 -56 -44.5 -93.5t-100.5 -37.5
q-40 0 -71 20q-37 25 -37 61q0 17 14.5 28.5t34.5 16.5l14 -6l1 -3q-4 -5 -6 -6h-15q-13 0 -23 -9t-11 -23q0 -26 25 -44q27 -16 55 -16q51 0 99 36q26 20 39 41t13 47q0 44 -38 66.5t-86 22.5q-83 0 -156 -52q-81 -57 -81 -137q0 -75 77 -119q66 -37 146 -37q124 0 225 94
q71 65 159 208q107 175 139 215q46 58 109 97l68 36l1 3q-3 3 -14 6l-37 11q-42 11 -97.5 19t-97.5 8q-127 0 -233 -56q-130 -70 -130 -185q0 -41 36 -71q36 -27 81 -27q61 0 119 50t58 109q0 26 -18 46.5t-46 20.5q-37 0 -75 -32t-38 -68q0 -28 26 -35l4 -5l1 -3
q-2 -4 -4 -4l-3 -1q-14 0 -25 14q-8 14 -10 30q0 41 40 76.5t85 35.5q37 0 60 -26t23 -64q0 -65 -57 -112t-125 -47q-62 0 -112 44t-50 106q0 113 108 176q89 51 213 51q134 0 254 -33l41 -13q5 -1 19.5 -4t22.5 -4q12 0 26 10l25 16l5 -2q9 -5 9 -14q0 -17 -12 -26
q-7 -4 -30 -9q-73 -12 -129 -59q-43 -36 -86 -108q-14 -23 -26.5 -48t-38.5 -81q-59 -127 -99 -187q-57 -83 -135.5 -126.5t-203.5 -43.5q-104 0 -184 45q-95 54 -95 154q0 87 73 141q66 48 157 48z" />
    <glyph glyph-name="Idieresis" unicode="&#xcf;" horiz-adv-x="776" 
d="M781 843q9 0 15.5 -9.5t6.5 -19.5q0 -12 -19 -31q-19 -17 -32 -17q-6 0 -13 6t-7 15q0 17 15.5 36.5t33.5 19.5zM896 843q11 0 17 -9l5 -16q0 -14 -17.5 -32.5t-34.5 -18.5q-5 0 -12 6t-7 13v9q0 12 18 30t31 18zM342 380q68 0 117 -31q58 -37 58 -101q0 -56 -44.5 -93.5
t-100.5 -37.5q-40 0 -71 20q-37 25 -37 61q0 17 14.5 28.5t34.5 16.5l14 -6l1 -3q-4 -5 -6 -6h-15q-13 0 -23 -9t-11 -23q0 -26 25 -44q27 -16 55 -16q51 0 99 36q26 20 39 41t13 47q0 44 -38 66.5t-86 22.5q-83 0 -156 -52q-81 -57 -81 -137q0 -75 77 -119q66 -37 146 -37
q124 0 225 94q71 65 159 208q107 175 139 215q46 58 109 97l68 36l1 3q-3 3 -14 6l-37 11q-42 11 -97.5 19t-97.5 8q-127 0 -233 -56q-130 -70 -130 -185q0 -41 36 -71q36 -27 81 -27q61 0 119 50t58 109q0 26 -18 46.5t-46 20.5q-37 0 -75 -32t-38 -68q0 -28 26 -35l4 -5
l1 -3q-2 -4 -4 -4l-3 -1q-14 0 -25 14q-8 14 -10 30q0 41 40 76.5t85 35.5q37 0 60 -26t23 -64q0 -65 -57 -112t-125 -47q-62 0 -112 44t-50 106q0 113 108 176q89 51 213 51q134 0 254 -33l41 -13q5 -1 19.5 -4t22.5 -4q12 0 26 10l25 16l5 -2q9 -5 9 -14q0 -17 -12 -26
q-7 -4 -30 -9q-73 -12 -129 -59q-43 -36 -86 -108q-14 -23 -26.5 -48t-38.5 -81q-59 -127 -99 -187q-57 -83 -135.5 -126.5t-203.5 -43.5q-104 0 -184 45q-95 54 -95 154q0 87 73 141q66 48 157 48z" />
    <glyph glyph-name="Ntilde" unicode="&#xd1;" horiz-adv-x="987" 
d="M896 825q7 0 20 -3t36 -10l34 -7q9 0 18 6t17 19l5 2l5 -6q0 -16 -28 -38q-28 -20 -45 -20q-18 0 -34 5q-45 12 -58 12q-7 0 -16 -8l-11 -8l-6 6q0 16 23 33t40 17zM691 698l151 -4l140 -3l43 1q12 1 17.5 2.5t19.5 6.5t21 25q3 7 14 11q7 0 13 -9v-4q-1 -2 -2 -4.5
t-4 -6.5l-12 -11q-18 -15 -66 -21q-43 -4 -66.5 -4.5t-37.5 -0.5h-13h-11h-36l-30 1q-146 0 -220 -20q-121 -30 -177 -120q-11 -17 -18 -37t-7 -41q0 -42 32.5 -73.5t75.5 -31.5q67 0 122 52.5t55 120.5q0 26 -15.5 43t-42.5 17q-42 0 -78 -36.5t-36 -80.5q0 -18 4 -22
l19 -12l1 -6l-7 -3q-14 0 -26 19q-10 22 -10 37q0 41 40.5 77t83.5 36q39 0 64 -26.5t25 -65.5q0 -65 -56.5 -114t-122.5 -49t-112.5 45t-46.5 109q0 108 107 162q84 41 205 41zM295 342q61 0 107 -28q54 -33 54 -93q0 -53 -43 -92.5t-99 -39.5q-38 0 -68 17q-37 22 -37 57
q0 20 11 32t34 25h5q6 0 9 -8l-30 -16q-15 -11 -15 -29q0 -29 24 -46q21 -13 52 -13q53 0 97 31q49 35 49 86q0 45 -43 70q-18 10 -38.5 15t-47.5 5q-78 0 -145 -43q-77 -48 -77 -123q0 -66 63 -110q56 -37 127 -37q56 0 102 19.5t95 57.5q30 24 61 54t64 66q54 60 109 134
l101 141l91 123l29 39q22 27 34 29q14 0 18 -17l4 -37q0 -62 -25 -141q-21 -69 -56 -145l-61 -134q-24 -53 -37 -96q-4 -17 -7 -34.5t-3 -29.5l4 -18l5 -4l7 4q18 21 45 78l39 86q84 170 114 222q79 135 162 211q105 94 220 94q24 0 37 -5.5t13 -15.5q0 -8 -9 -17
q-8 -6 -20 -7l-3 2l-12 14q-12 12 -29 12q-81 0 -177 -97q-71 -71 -157 -208q-45 -72 -108 -189l-61 -111l-19 -36l-23 -36l-8 -10q-5 -6 -12 -8q-18 0 -25 35q-4 33 -4.5 47t-0.5 23q0 63 20 132q16 60 49 132q23 51 30 66q19 36 29 56q34 67 49 103.5t15 56.5l-2 5
q-5 0 -16 -9q-45 -57 -116 -163l-109 -167q-65 -98 -118 -163q-61 -76 -131 -117q-82 -50 -168 -50q-89 0 -156 46q-76 52 -76 137q0 80 68 132q63 48 146 48z" />
    <glyph glyph-name="Ograve" unicode="&#xd2;" horiz-adv-x="650" 
d="M682 847q15 0 33 -35t54 -41q5 -1 4 -7l-2 -3l-4 -2h-6q-31 0 -64 17q-40 20 -40 46q0 9 6.5 16t18.5 9zM727 687q42 0 67 -32.5t25 -77.5q0 -108 -84.5 -247t-205.5 -231q-130 -101 -240 -101q-75 0 -124 60t-49 135q0 152 153 314q77 80 153 120t154 40q28 0 47 -8
l53 19q27 9 51 9zM676 597q0 -57 -50 -92q-44 -30 -104 -30q-11 0 -15 11q4 5 12 7l6 -2q9 -6 18 -6q39 0 76.5 38.5t37.5 77.5q0 30 -25 42q-89 -68 -172 -168q-103 -127 -103 -209q0 -30 14 -51.5t42 -21.5q13 0 22 8l12 8l6 -5v-4q-14 -16 -35 -16q-39 0 -65 33
q-11 16 -17 35t-6 41q0 95 96 209q84 99 184 150l-20 2q-74 0 -181 -100q-97 -91 -174 -217.5t-77 -198.5q0 -54 34.5 -91.5t88.5 -37.5q67 0 144 58q49 38 115 111q50 58 99 127q67 94 102 163q47 92 47 146q0 27 -17.5 45t-45.5 18q-21 0 -40.5 -6.5t-41.5 -19.5
q33 -20 33 -54z" />
    <glyph glyph-name="Oacute" unicode="&#xd3;" horiz-adv-x="650" 
d="M686 767l3 4q40 6 79 55q16 20 33 22q23 0 23 -17q0 -29 -43 -51q-38 -19 -70 -19h-17q-6 0 -8 6zM728 686q42 0 67 -32.5t25 -77.5q0 -108 -84.5 -247t-205.5 -231q-130 -101 -240 -101q-75 0 -124 60t-49 135q0 152 153 314q77 80 153 120t154 40q28 0 47 -8l53 19
q27 9 51 9zM677 596q0 -57 -50 -92q-44 -30 -104 -30q-11 0 -15 11q4 5 12 7l6 -2q9 -6 18 -6q39 0 76.5 38.5t37.5 77.5q0 30 -25 42q-89 -68 -172 -168q-103 -127 -103 -209q0 -30 14 -51.5t42 -21.5q13 0 22 8l12 8l6 -5v-4q-14 -16 -35 -16q-39 0 -65 33q-11 16 -17 35
t-6 41q0 95 96 209q84 99 184 150l-20 2q-74 0 -181 -100q-97 -91 -174 -217.5t-77 -198.5q0 -54 34.5 -91.5t88.5 -37.5q67 0 144 58q49 38 115 111q50 58 99 127q67 94 102 163q47 92 47 146q0 27 -17.5 45t-45.5 18q-21 0 -40.5 -6.5t-41.5 -19.5q33 -20 33 -54z" />
    <glyph glyph-name="Ocircumflex" unicode="&#xd4;" horiz-adv-x="650" 
d="M668 760l-6 6q6 6 19 12l19 9q31 13 52 36l22 27l12 12l5 -5l-5 -36q0 -22 9 -36l20 -20l-6 -4q-18 0 -32 11q-9 6 -22 26l-41 -25q-26 -13 -46 -13zM728 686q42 0 67 -32.5t25 -77.5q0 -108 -84.5 -247t-205.5 -231q-130 -101 -240 -101q-75 0 -124 60t-49 135
q0 152 153 314q77 80 153 120t154 40q28 0 47 -8l53 19q27 9 51 9zM677 596q0 -57 -50 -92q-44 -30 -104 -30q-11 0 -15 11q4 5 12 7l6 -2q9 -6 18 -6q39 0 76.5 38.5t37.5 77.5q0 30 -25 42q-89 -68 -172 -168q-103 -127 -103 -209q0 -30 14 -51.5t42 -21.5q13 0 22 8l12 8
l6 -5v-4q-14 -16 -35 -16q-39 0 -65 33q-11 16 -17 35t-6 41q0 95 96 209q84 99 184 150l-20 2q-74 0 -181 -100q-97 -91 -174 -217.5t-77 -198.5q0 -54 34.5 -91.5t88.5 -37.5q67 0 144 58q49 38 115 111q50 58 99 127q67 94 102 163q47 92 47 146q0 27 -17.5 45t-45.5 18
q-21 0 -40.5 -6.5t-41.5 -19.5q33 -20 33 -54z" />
    <glyph glyph-name="Otilde" unicode="&#xd5;" horiz-adv-x="650" 
d="M729 825q7 0 20 -3t36 -10l34 -7q13 0 30 18q5 6 7 7t3 2q5 -4 6 -7q-16 -27 -29 -39q-18 -18 -43 -18q-17 0 -35 5q-45 12 -58 12l-11 -3l-16 -13l-5 5q0 16 23 33.5t38 17.5zM727 686q42 0 67 -32.5t25 -77.5q0 -108 -84.5 -247t-205.5 -231q-130 -101 -240 -101
q-75 0 -124 60t-49 135q0 152 153 314q77 80 153 120t154 40q28 0 47 -8l53 19q27 9 51 9zM676 596q0 -57 -50 -92q-44 -30 -104 -30q-11 0 -15 11q4 5 12 7l6 -2q9 -6 18 -6q39 0 76.5 38.5t37.5 77.5q0 30 -25 42q-89 -68 -172 -168q-103 -127 -103 -209q0 -30 14 -51.5
t42 -21.5q13 0 22 8l12 8l6 -5v-4q-14 -16 -35 -16q-39 0 -65 33q-11 16 -17 35t-6 41q0 95 96 209q84 99 184 150l-20 2q-74 0 -181 -100q-97 -91 -174 -217.5t-77 -198.5q0 -54 34.5 -91.5t88.5 -37.5q67 0 144 58q49 38 115 111q50 58 99 127q67 94 102 163q47 92 47 146
q0 27 -17.5 45t-45.5 18q-21 0 -40.5 -6.5t-41.5 -19.5q33 -20 33 -54z" />
    <glyph glyph-name="Odieresis" unicode="&#xd6;" horiz-adv-x="650" 
d="M674 793q0 15 16.5 32t33.5 17q20 0 20 -24q0 -19 -15.5 -36t-34.5 -17q-10 0 -14 7.5t-6 20.5zM833 842h7q7 0 13.5 -6.5t6.5 -16.5q0 -12 -17.5 -33.5t-31.5 -21.5q-9 0 -15.5 6.5t-7.5 17.5q0 13 14.5 32.5t30.5 21.5zM723 685q45 0 69.5 -30.5t24.5 -78.5
q0 -106 -84 -245.5t-203 -232.5q-128 -102 -237 -102q-78 0 -129 58.5t-51 138.5q0 159 156.5 315.5t319.5 156.5l16 -2l19 -4l48 17q30 9 51 9zM675 591q0 -55 -53 -87q-46 -29 -104 -29l-8 3l-3 7l2 4l4 2l15 -4l16 -4q36 0 74 39q17 18 27 39t10 40q0 27 -26 41l-18 -15
l-33 -24q-69 -52 -141 -153q-83 -116 -83 -185q0 -28 14.5 -50.5t39.5 -22.5q12 0 23 7l14 8l5 -5l-1 -5q-1 -6 -13 -10l-21 -4q-42 0 -66 34q-22 35 -22 80q0 92 98 205q83 95 182 149l-26 2q-70 0 -177 -102q-95 -92 -172 -219q-39 -65 -57.5 -113t-18.5 -84
q0 -53 36.5 -90.5t89.5 -37.5q37 0 78.5 19.5t73.5 46.5q58 49 140 148q44 54 79 104.5t67 103.5q67 117 67 183q0 29 -18.5 46.5t-48.5 17.5q-13 0 -20 -1t-21 -7l-39 -19q35 -20 35 -58z" />
    <glyph glyph-name="Oslash" unicode="&#xd8;" horiz-adv-x="650" 
d="M131 126l-6 33l-2 37q0 150 156 306t306 156l26 -3l25 -3q17 11 46 18q16 3 28.5 5t24.5 2q43 0 63 -22t29 -67l74 51q58 39 69 41q7 0 8 -8q0 -11 -67 -54l-83 -52q0 -109 -84.5 -243.5t-205.5 -228.5q-129 -99 -241 -99q-57 0 -97 31q-32 26 -62 82l-65 -48
q-45 -31 -68 -40l-7 2l-3 3l-1 4q0 6 61 48zM793 565l4 26l1 17q0 24 -18 43t-45 19q-21 0 -40 -8q-19 -6 -41 -19q15 -10 24 -23t9 -32q0 -52 -48 -88q-44 -32 -100 -32l-14 2q-5 3 -7 9l3 5l5 2l16 -6l16 -2q34 0 72 39.5t38 75.5q0 28 -25 43q-99 -76 -167 -156
q-83 -98 -111 -199zM338 264l-1 22q0 102 97 211q77 88 188 149l-16 1q-92 0 -218 -126q-99 -100 -161 -211q-10 -18 -19.5 -37.5t-18 -40t-16.5 -47.5t-10 -37zM284 8q43 0 79 16t74 46q90 73 200 216q114 150 147 252l-419 -278q3 -28 13 -46q14 -24 39 -24q8 0 19 6l17 9
l5 -4l1 -7q-15 -12 -34 -12q-30 0 -50 17q-17 17 -32 49l-180 -121q12 -55 38 -84q30 -35 83 -35z" />
    <glyph glyph-name="Ugrave" unicode="&#xd9;" horiz-adv-x="756" 
d="M734 847q12 0 31 -35t55 -41q4 -2 4 -4l1 -3l-2 -3l-5 -2h-6q-30 0 -63 17q-39 20 -39 46q0 9 6 16.5t18 8.5zM889 671l-1 -3q0 -10 7 -14t20 -6q8 0 19 7l19 15l6 1l-109 -188q-89 -157 -135 -254q-67 -140 -67 -182q0 -16 7.5 -26.5t23.5 -11.5q28 0 60 47l40 72l13 19
l10 -6q-9 -32 -49 -86q-45 -59 -74 -59q-30 0 -46 31q-12 24 -12 58q0 57 45 164q7 18 28.5 62.5t48.5 96.5l-102 -145q-86 -116 -146 -179q-85 -88 -131 -88q-32 0 -50 37q-13 31 -13 67q0 69 63 159l117 151q63 89 63 161q0 51 -43 82t-98 31q-97 0 -183 -74
q-92 -78 -92 -173q0 -23 12 -44q12 -17 35 -35q-1 5 -2 19t-1 15q0 75 52.5 143.5t125.5 68.5q39 0 62 -26t23 -65q0 -71 -61.5 -126.5t-133.5 -55.5q-15 0 -23 2l-28 8q9 -32 34 -58q27 -25 58 -25q24 0 41 14.5t21 41.5l6 4l6 -3l2 -5q-7 -26 -28 -44q-21 -16 -48 -16
q-36 0 -66 30q-24 25 -37 65q-41 26 -62 55q-24 33 -24 80q0 92 90 160q81 60 181 60q86 0 148 -45q67 -50 67 -134q0 -72 -65 -171l-121 -165q-65 -91 -65 -136q0 -18 12 -30t31 -12q51 0 172 146q47 57 98.5 130t110.5 164q101 159 132 224h6zM232 344q63 0 123.5 60.5
t60.5 126.5t-68 66q-63 0 -114.5 -69.5t-51.5 -136.5q0 -18 6 -38l21 -6z" />
    <glyph glyph-name="Uacute" unicode="&#xda;" horiz-adv-x="756" 
d="M738 767l2 3q43 6 70 42t43 36q24 0 24 -16q0 -28 -44 -51q-40 -20 -70 -20h-17q-6 0 -8 6zM888 671l-1 -3q0 -10 7 -14t20 -6q8 0 19 7l19 15l6 1l-109 -188q-89 -157 -135 -254q-67 -140 -67 -182q0 -16 7.5 -26.5t23.5 -11.5q28 0 60 47l40 72l13 19l10 -6
q-9 -32 -49 -86q-45 -59 -74 -59q-30 0 -46 31q-12 24 -12 58q0 57 45 164q7 18 28.5 62.5t48.5 96.5l-102 -145q-86 -116 -146 -179q-85 -88 -131 -88q-32 0 -50 37q-13 31 -13 67q0 69 63 159l117 151q63 89 63 161q0 51 -43 82t-98 31q-97 0 -183 -74q-92 -78 -92 -173
q0 -23 12 -44q12 -17 35 -35q-1 5 -2 19t-1 15q0 75 52.5 143.5t125.5 68.5q39 0 62 -26t23 -65q0 -71 -61.5 -126.5t-133.5 -55.5q-15 0 -23 2l-28 8q9 -32 34 -58q27 -25 58 -25q24 0 41 14.5t21 41.5l6 4l6 -3l2 -5q-7 -26 -28 -44q-21 -16 -48 -16q-36 0 -66 30
q-24 25 -37 65q-41 26 -62 55q-24 33 -24 80q0 92 90 160q81 60 181 60q86 0 148 -45q67 -50 67 -134q0 -72 -65 -171l-121 -165q-65 -91 -65 -136q0 -18 12 -30t31 -12q51 0 172 146q47 57 98.5 130t110.5 164q101 159 132 224h6zM231 344q63 0 123.5 60.5t60.5 126.5
t-68 66q-63 0 -114.5 -69.5t-51.5 -136.5q0 -18 6 -38l21 -6z" />
    <glyph glyph-name="Ucircumflex" unicode="&#xdb;" horiz-adv-x="756" 
d="M720 760q-5 4 -6 8l6 3l20 8l35 18q15 10 29 25l21 28l12 12l5 -5l-2 -16l-1 -20l3 -25q3 -10 9 -16l12 -9l6 -6l-9 -4q-16 0 -29.5 10t-22.5 27l-41 -25q-5 -3 -20 -8t-27 -5zM887 671l-1 -3q0 -10 7 -14t20 -6q8 0 19 7l19 15l6 1l-109 -188q-89 -157 -135 -254
q-67 -140 -67 -182q0 -16 7.5 -26.5t23.5 -11.5q28 0 60 47l40 72l13 19l10 -6q-9 -32 -49 -86q-45 -59 -74 -59q-30 0 -46 31q-12 24 -12 58q0 57 45 164q7 18 28.5 62.5t48.5 96.5l-102 -145q-86 -116 -146 -179q-85 -88 -131 -88q-32 0 -50 37q-13 31 -13 67q0 69 63 159
l117 151q63 89 63 161q0 51 -43 82t-98 31q-97 0 -183 -74q-92 -78 -92 -173q0 -23 12 -44q12 -17 35 -35q-1 5 -2 19t-1 15q0 75 52.5 143.5t125.5 68.5q39 0 62 -26t23 -65q0 -71 -61.5 -126.5t-133.5 -55.5q-15 0 -23 2l-28 8q9 -32 34 -58q27 -25 58 -25q24 0 41 14.5
t21 41.5l6 4l6 -3l2 -5q-7 -26 -28 -44q-21 -16 -48 -16q-36 0 -66 30q-24 25 -37 65q-41 26 -62 55q-24 33 -24 80q0 92 90 160q81 60 181 60q86 0 148 -45q67 -50 67 -134q0 -72 -65 -171l-121 -165q-65 -91 -65 -136q0 -18 12 -30t31 -12q51 0 172 146q47 57 98.5 130
t110.5 164q101 159 132 224h6zM230 344q63 0 123.5 60.5t60.5 126.5t-68 66q-63 0 -114.5 -69.5t-51.5 -136.5q0 -18 6 -38l21 -6z" />
    <glyph glyph-name="Udieresis" unicode="&#xdc;" horiz-adv-x="755" 
d="M711 793q0 14 15 32t31 18q9 0 15.5 -6t8.5 -16q0 -21 -15.5 -38t-38.5 -17q-7 0 -12 9zM825 792q0 13 17.5 31t31.5 19q23 0 23 -25q0 -13 -17 -32t-32 -20q-23 0 -23 27zM887 669q0 -22 21 -22q11 0 23.5 6.5t20.5 16.5l6 -1l-108 -187q-81 -144 -136 -255
q-33 -68 -50 -113t-17 -66q0 -17 8 -28.5t25 -11.5q20 0 40 23t48 78l9 19q6 11 13 17l6 1l3 -1l2 -4q0 -25 -47 -86t-75 -61t-44 26q-14 28 -14 60q0 62 44 166q21 50 76 160l-102 -145q-81 -110 -147 -179q-85 -88 -130 -88q-29 0 -47 35q-15 36 -15 71q0 66 63 158
l117 154q63 90 63 157q0 51 -46 85q-41 29 -95 29q-97 0 -184 -74q-91 -79 -91 -173q0 -23 12 -44q13 -19 35 -36l-3 46q0 67 55 134t122 67q39 0 63 -26.5t24 -66.5q0 -70 -62.5 -125t-134.5 -55l-24 3l-26 7q15 -39 34 -58q25 -25 60 -25q19 0 40.5 17.5t18.5 38.5l7 4
l6 -3l2 -6q-9 -26 -27 -43q-6 -5 -17 -10.5t-29 -5.5q-37 0 -65 27t-40 69q-35 16 -62 52q-25 36 -25 74q0 99 89 167q82 62 184 62q88 0 147 -46q66 -51 66 -136q0 -76 -65 -174l-121 -159q-65 -88 -65 -135q0 -19 11 -31.5t30 -12.5q16 0 37 13t57 49q81 82 160 185
q70 91 139 203q54 87 122 213h5zM230 342q63 0 124.5 62.5t61.5 125.5q0 26 -18 47q-19 19 -47 19q-62 0 -116.5 -66.5t-54.5 -131.5q0 -19 2 -28l3 -19l22 -6z" />
    <glyph glyph-name="germandbls" unicode="&#xdf;" horiz-adv-x="378" 
d="M187 337l90 185q56 92 151 135l46 16q14 3 24.5 5t22.5 2q38 0 63 -21t25 -60q0 -58 -77 -120l-143 -98q-77 -54 -77 -96q0 -23 60 -107q29 -40 29 -71q0 -45 -40 -78.5t-89 -33.5q-43 0 -69.5 24t-26.5 67q0 20 18 43.5t42 23.5q33 0 33 -35q0 -15 -4 -20.5t-19 -7.5
l-24 2q-12 0 -18.5 -10t-6.5 -23q0 -21 18 -38q19 -14 42 -14q37 0 64 36q23 32 23 72q0 23 -30 103q-14 37 -14 62q0 45 65 101l122 101q66 63 66 121q0 25 -17 42q-16 19 -40 19q-60 0 -130 -95q-50 -68 -109 -199l-72 -167q-74 -159 -111 -230q-84 -155 -144 -199
q-32 -23 -74 -23q-20 0 -37 6q-22 9 -22 28q0 10 6.5 17.5t19.5 9.5q12 0 19 -11q0 -17 8 -28q5 -10 22 -10q11 0 22 7l20 15q22 21 74.5 120.5t93.5 190.5q7 16 35 81q20 48 27 64l9 29q6 18 6 28q0 14 -12 22q-4 2 -13 3t-16 1l-6 2l-4 5l4 4l14 1l22 1h39z" />
    <glyph glyph-name="agrave" unicode="&#xe0;" 
d="M278 486q13 0 40 -46q12 -24 32 -27.5t21 -8.5q-4 -6 -7 -7q-41 5 -66 16q-42 18 -42 47q0 8 6 17t16 9zM353 345l4 -1v-5v-6q5 -4 18 -7l16 3l20 15l6 -2q-38 -51 -87.5 -143t-69.5 -149l-9 -30q0 -9 10 -16l9 -2q24 0 66 66l30 48l6 1l3 -5q0 -21 -42.5 -69t-65.5 -48
q-18 0 -24 19.5t-6 42.5q0 35 18 86l20 51q-27 -49 -81 -114q-68 -82 -100 -82q-16 0 -24 18q-7 21 -7 39q0 92 67 183q72 98 160 98q11 0 20 -9.5t9 -31.5l-3 -21zM98 7q37 0 124.5 125.5t87.5 169.5q0 26 -26 26q-33 0 -118 -131.5t-85 -172.5q0 -17 17 -17z" />
    <glyph glyph-name="aacute" unicode="&#xe1;" 
d="M396 485q9 0 16.5 -4t8.5 -14q0 -29 -50 -53q-41 -18 -78 -18q-9 0 -10 7l2 3l26 7q20 6 35 22l21 30q15 20 29 20zM353 345l4 -1v-5v-6q5 -4 18 -7l16 3l20 15l6 -2q-38 -51 -87.5 -143t-69.5 -149l-9 -30q0 -9 10 -16l9 -2q24 0 66 66l30 48l6 1l3 -5q0 -21 -42.5 -69
t-65.5 -48q-18 0 -24 19.5t-6 42.5q0 35 18 86l20 51q-27 -49 -81 -114q-68 -82 -100 -82q-16 0 -24 18q-7 21 -7 39q0 92 67 183q72 98 160 98q11 0 20 -9.5t9 -31.5l-3 -21zM98 7q37 0 124.5 125.5t87.5 169.5q0 26 -26 26q-33 0 -118 -131.5t-85 -172.5q0 -17 17 -17z
" />
    <glyph glyph-name="acircumflex" unicode="&#xe2;" 
d="M256 391l-7 4l5 6l33 13q26 12 45 31l36 42l7 3l2 -2l-4 -20v-17q0 -35 24 -50l7 -7l-4 -2q-19 0 -26.5 3t-31.5 32l-43 -22q-18 -9 -43 -14zM353 345l4 -1v-5v-6q5 -4 18 -7l16 3l20 15l6 -2q-38 -51 -87.5 -143t-69.5 -149l-9 -30q0 -9 10 -16l9 -2q24 0 66 66l30 48
l6 1l3 -5q0 -21 -42.5 -69t-65.5 -48q-18 0 -24 19.5t-6 42.5q0 35 18 86l20 51q-27 -49 -81 -114q-68 -82 -100 -82q-16 0 -24 18q-7 21 -7 39q0 92 67 183q72 98 160 98q11 0 20 -9.5t9 -31.5l-3 -21zM98 7q37 0 124.5 125.5t87.5 169.5q0 26 -26 26q-33 0 -118 -131.5
t-85 -172.5q0 -17 17 -17z" />
    <glyph glyph-name="atilde" unicode="&#xe3;" 
d="M352 416q-12 0 -18.5 1.5t-22 6t-25.5 6.5t-19 2q-8 0 -18 -9t-16 -9l-2 4q0 14 22 34.5t38 20.5q13 0 19.5 -1.5t26 -7t40.5 -7.5q24 0 39 25l5 1l4 -8q-8 -14 -15 -23.5t-14 -16.5q-21 -19 -44 -19zM353 345l4 -1v-5v-6q5 -4 18 -7l16 3l20 15l6 -2q-38 -51 -87.5 -143
t-69.5 -149l-9 -30q0 -9 10 -16l9 -2q24 0 66 66l30 48l6 1l3 -5q0 -21 -42.5 -69t-65.5 -48q-18 0 -24 19.5t-6 42.5q0 35 18 86l20 51q-27 -49 -81 -114q-68 -82 -100 -82q-16 0 -24 18q-7 21 -7 39q0 92 67 183q72 98 160 98q11 0 20 -9.5t9 -31.5l-3 -21zM98 7
q37 0 124.5 125.5t87.5 169.5q0 26 -26 26q-33 0 -118 -131.5t-85 -172.5q0 -17 17 -17z" />
    <glyph glyph-name="adieresis" unicode="&#xe4;" 
d="M274 434q0 13 15.5 31.5t29.5 18.5q11 0 17.5 -6t8.5 -17q0 -19 -16 -36.5t-37 -17.5q-9 0 -14 8zM438 486q23 0 23 -26q0 -15 -17 -33.5t-32 -18.5q-8 0 -15 6t-9 16q0 17 16.5 36.5t33.5 19.5zM353 346l4 -1v-5v-6q5 -4 18 -7l16 3l20 15l6 -2q-38 -51 -87.5 -143
t-69.5 -149l-9 -30q0 -9 10 -16l9 -2q24 0 66 66l30 48l6 1l3 -5q0 -21 -42.5 -69t-65.5 -48q-18 0 -24 19.5t-6 42.5q0 35 18 86l20 51q-27 -49 -81 -114q-68 -82 -100 -82q-16 0 -24 18q-7 21 -7 39q0 92 67 183q72 98 160 98q11 0 20 -9.5t9 -31.5l-3 -21zM98 8
q37 0 124.5 125.5t87.5 169.5q0 26 -26 26q-33 0 -118 -131.5t-85 -172.5q0 -17 17 -17z" />
    <glyph glyph-name="aring" unicode="&#xe5;" 
d="M376 485q12 0 18.5 -9.5t7.5 -24.5q0 -17 -17.5 -38.5t-36.5 -21.5q-11 0 -21 9t-12 23q0 23 18.5 42.5t42.5 19.5zM348 399q15 0 29.5 17.5t16.5 34.5q0 24 -24 24q-14 0 -30 -17.5t-16 -32.5q0 -26 24 -26zM353 343l4 -1v-5v-6q5 -4 18 -7l16 3l20 15l6 -2
q-38 -51 -87.5 -143t-69.5 -149l-9 -30q0 -9 10 -16l9 -2q24 0 66 66l30 48l6 1l3 -5q0 -21 -42.5 -69t-65.5 -48q-18 0 -24 19.5t-6 42.5q0 35 18 86l20 51q-27 -49 -81 -114q-68 -82 -100 -82q-16 0 -24 18q-7 21 -7 39q0 92 67 183q72 98 160 98q11 0 20 -9.5t9 -31.5
l-3 -21zM98 5q37 0 124.5 125.5t87.5 169.5q0 26 -26 26q-33 0 -118 -131.5t-85 -172.5q0 -17 17 -17z" />
    <glyph glyph-name="ae" unicode="&#xe6;" horiz-adv-x="442" 
d="M358 327l4 -4q5 -3 21 -5q13 0 35.5 9.5t38.5 11.5q16 0 27 -11t11 -28q0 -57 -69 -101q-55 -34 -124 -43l-30 -52q-17 -34 -17 -58q0 -18 12.5 -29.5t29.5 -11.5q32 0 73 39l72 90l5 -1l2 -3q0 -7 -4 -15l-9 -14q-20 -32 -63 -67q-48 -39 -80 -39q-34 0 -50 29
q-14 30 -14 68l3 33q-17 -25 -31.5 -44t-29.5 -34q-48 -51 -79 -51q-16 0 -25 18q-4 9 -6 17.5t-2 20.5q0 67 33 131t88 107q25 19 55 33.5t56 14.5q36 0 36 -37q0 -20 -7 -35l20 29zM474 315l-3 10q-5 5 -18 5q-27 0 -80 -68l-65 -95q28 0 49 6.5t43 25.5q28 22 48 52
q26 37 26 64zM99 7q39 0 128 128t89 173q0 8 -5.5 14t-13.5 6q-38 0 -126.5 -126.5t-88.5 -173.5q0 -21 17 -21z" />
    <glyph glyph-name="ccedilla" unicode="&#xe7;" horiz-adv-x="272" 
d="M51 -102l27 18q14 10 20 26l-3 6q-2 2 -16 5q-9 5 -9 14q0 10 9.5 19.5t21.5 9.5q27 0 27 -26q0 -23 -23 -46q-13 -13 -43 -32l-6 -1q-5 0 -5 7zM294 337q54 0 54 -51q0 -27 -17 -58t-43 -31q-8 0 -16 8q-5 8 -7 18q0 33 32 42l33 9q6 8 6 22q0 33 -34 33
q-53 0 -130 -111.5t-77 -169.5q0 -19 11 -30t30 -11q37 0 73 40l70 90l4 -6q0 -29 -56.5 -81.5t-87.5 -52.5q-36 0 -54.5 29t-18.5 68q0 83 72.5 163t155.5 80z" />
    <glyph glyph-name="egrave" unicode="&#xe8;" horiz-adv-x="252" 
d="M237 486q17 -3 28 -23q27 -47 45 -52q8 0 12 -2q6 0 9 -5l-1 -3l-8 -4q-20 3 -36.5 7t-30.5 10q-41 17 -41 47q0 9 6 15t17 10zM90 47q0 -18 10.5 -30.5t28.5 -12.5q46 0 99 71l45 61l4 2l4 -1l1 -3l2 -3l-12 -20l-13 -20q-25 -35 -57 -62q-42 -34 -76 -34q-31 0 -49 31
q-8 17 -12 32.5t-4 34.5q0 75 75 159t152 84q32 0 32 -34q0 -58 -64 -103q-60 -40 -121 -40q-27 -50 -36 -72.5t-9 -39.5zM151 169q41 0 97.5 48t56.5 91q0 21 -21 21q-26 0 -80 -66q-46 -56 -63 -94h10z" />
    <glyph glyph-name="eacute" unicode="&#xe9;" horiz-adv-x="252" 
d="M243 406l32 9q18 6 30 20l21 30q15 20 28 20q7 0 15.5 -4t8.5 -12q0 -32 -49 -54q-44 -19 -78 -19q-8 0 -11 6zM90 48q0 -18 10.5 -30.5t28.5 -12.5q46 0 99 71l45 61l4 2l4 -1l1 -3l2 -3l-12 -20l-13 -20q-25 -35 -57 -62q-42 -34 -76 -34q-31 0 -49 31q-8 17 -12 32.5
t-4 34.5q0 75 75 159t152 84q32 0 32 -34q0 -58 -64 -103q-60 -40 -121 -40q-27 -50 -36 -72.5t-9 -39.5zM151 170q41 0 97.5 48t56.5 91q0 21 -21 21q-26 0 -80 -66q-46 -56 -63 -94h10z" />
    <glyph glyph-name="ecircumflex" unicode="&#xea;" horiz-adv-x="252" 
d="M215 391l-7 6l4 3q43 15 64 32t50 55q5 3 7 3l1 -5l-3 -29q0 -21 5 -33.5t19 -21.5l7 -6l-8 -3q-16 0 -25 5l-29 28l-42 -21q-19 -8 -43 -13zM90 46q0 -18 10.5 -30.5t28.5 -12.5q46 0 99 71l45 61l4 2l4 -1l1 -3l2 -3l-12 -20l-13 -20q-25 -35 -57 -62q-42 -34 -76 -34
q-31 0 -49 31q-8 17 -12 32.5t-4 34.5q0 75 75 159t152 84q32 0 32 -34q0 -58 -64 -103q-60 -40 -121 -40q-27 -50 -36 -72.5t-9 -39.5zM151 168q41 0 97.5 48t56.5 91q0 21 -21 21q-26 0 -80 -66q-46 -56 -63 -94h10z" />
    <glyph glyph-name="edieresis" unicode="&#xeb;" horiz-adv-x="252" 
d="M219 432q0 12 15.5 31.5t28.5 19.5q10 0 17 -6t9 -19q0 -14 -17.5 -33.5t-33.5 -19.5q-10 0 -15 8zM333 428q0 19 16.5 37t33.5 18q10 0 15 -8q6 -5 7 -16q0 -14 -17.5 -34t-31.5 -20q-8 0 -17 6q-6 6 -6 17zM90 48q0 -18 10.5 -30.5t28.5 -12.5q46 0 99 71l45 61l4 2
l4 -1l1 -3l2 -3l-12 -20l-13 -20q-25 -35 -57 -62q-42 -34 -76 -34q-31 0 -49 31q-8 17 -12 32.5t-4 34.5q0 75 75 159t152 84q32 0 32 -34q0 -58 -64 -103q-60 -40 -121 -40q-27 -50 -36 -72.5t-9 -39.5zM151 170q41 0 97.5 48t56.5 91q0 21 -21 21q-26 0 -80 -66
q-46 -56 -63 -94h10z" />
    <glyph glyph-name="igrave" unicode="&#xec;" horiz-adv-x="189" 
d="M205 486q16 0 27 -20q27 -49 45 -54l12 -1q9 -1 10 -7q-5 -6 -9 -8q-40 5 -66 17q-41 18 -41 47q0 8 6 17t16 9zM205 313q0 14 -18 14t-44 -32l-53 -64l-4 5q13 22 23.5 37t21.5 28q33 36 64 36q15 0 26 -21q9 -21 9 -41q0 -40 -66 -126.5t-66 -120.5q0 -7 5.5 -14.5
t15.5 -9.5q21 0 52 40l43 58l7 -4q-6 -23 -44.5 -63t-60.5 -40q-19 0 -31 22q-5 11 -8 22t-3 24q0 52 65.5 139t65.5 111z" />
    <glyph glyph-name="iacute" unicode="&#xed;" horiz-adv-x="189" 
d="M209 404q18 3 33.5 9t29.5 22l21 30q15 20 30 20q8 0 15.5 -4t8.5 -12q0 -32 -49 -54q-44 -19 -78 -19l-9 2zM205 313q0 14 -18 14t-44 -32l-53 -64l-4 5q13 22 23.5 37t21.5 28q33 36 64 36q15 0 26 -21q9 -21 9 -41q0 -40 -66 -126.5t-66 -120.5q0 -7 5.5 -14.5
t15.5 -9.5q21 0 52 40l43 58l7 -4q-6 -23 -44.5 -63t-60.5 -40q-19 0 -31 22q-5 11 -8 22t-3 24q0 52 65.5 139t65.5 111z" />
    <glyph glyph-name="icircumflex" unicode="&#xee;" horiz-adv-x="189" 
d="M184 391q-5 1 -7 6l2 3q64 18 106 75l6 10q2 4 11 5l2 -3l-4 -15l-1 -20q0 -36 26 -50q2 -1 5 -7l-6 -3q-23 0 -38 14l-18 20l-41 -22q-18 -8 -43 -13zM205 313q0 14 -18 14t-44 -32l-53 -64l-4 5q13 22 23.5 37t21.5 28q33 36 64 36q15 0 26 -21q9 -21 9 -41
q0 -40 -66 -126.5t-66 -120.5q0 -7 5.5 -14.5t15.5 -9.5q21 0 52 40l43 58l7 -4q-6 -23 -44.5 -63t-60.5 -40q-19 0 -31 22q-5 11 -8 22t-3 24q0 52 65.5 139t65.5 111z" />
    <glyph glyph-name="idieresis" unicode="&#xef;" horiz-adv-x="189" 
d="M232 483q11 0 17.5 -6t7.5 -20q0 -14 -17.5 -33t-32.5 -19q-9 0 -15 7l-6 14q3 17 15 38q13 19 31 19zM301 428q0 17 16.5 36t33.5 19q10 0 15 -8q6 -5 7 -16q0 -14 -17.5 -34t-31.5 -20q-9 0 -15 6.5t-8 16.5zM205 314q0 14 -18 14t-44 -32l-53 -64l-4 5q13 22 23.5 37
t21.5 28q33 36 64 36q15 0 26 -21q9 -21 9 -41q0 -40 -66 -126.5t-66 -120.5q0 -7 5.5 -14.5t15.5 -9.5q21 0 52 40l43 58l7 -4q-6 -23 -44.5 -63t-60.5 -40q-19 0 -31 22q-5 11 -8 22t-3 24q0 52 65.5 139t65.5 111z" />
    <glyph glyph-name="ntilde" unicode="&#xf1;" 
d="M352 416q-12 0 -18.5 1.5t-22 6t-25.5 6.5t-19 2q-8 0 -18 -9t-16 -9l-2 4q0 14 22 34.5t38 20.5q13 0 19.5 -1.5t26 -7t40.5 -7.5q24 0 39 25l5 1l4 -8q-8 -14 -15 -23.5t-14 -16.5q-21 -19 -44 -19zM184 304q0 21 -16 21q-19 0 -42 -30l-49 -67l-4 8l41 60q31 37 58 37
q17 0 24 -15t7 -31t-3 -34t-11 -39q-3 -10 -10 -27t-19 -42q57 89 104.5 139.5t69.5 50.5q12 0 21.5 -14t9.5 -43q0 -52 -57.5 -136t-57.5 -110q0 -9 5.5 -16.5t16.5 -9.5q21 0 47 35l34 54q9 0 9 -6q0 -16 -37 -54.5t-55 -38.5q-19 0 -31 25q-10 27 -10 49q0 24 8.5 49
t26.5 54q78 125 78 139q-2 7 -4 9.5t-7 4.5q-34 0 -132 -144q-69 -102 -113 -186l-4 1q-4 10 -14 14h-8q-10 0 -19 -5q-9 -3 -17 -11h-4q39 57 94 155q35 63 52.5 101t17.5 53z" />
    <glyph glyph-name="ograve" unicode="&#xf2;" horiz-adv-x="315" 
d="M267 486q9 0 18 -6l3 -5l7 -11q12 -30 27 -42l38 -16q0 -7 -7 -8q-18 0 -32 3.5t-34 11.5q-42 18 -42 47q0 8 6 17t16 9zM286 340q39 0 57 -34q13 -26 13 -70q0 -80 -71.5 -161.5t-152.5 -81.5q-38 0 -56 34q-3 7 -8 25.5t-5 44.5q0 82 70.5 162.5t152.5 80.5zM131 2
q52 0 126 123q69 117 69 176q0 16 -11 24.5t-26 8.5q-53 0 -128 -124q-68 -116 -68 -178q0 -11 12 -22q10 -6 26 -8z" />
    <glyph glyph-name="oacute" unicode="&#xf3;" horiz-adv-x="315" 
d="M384 485q9 0 16.5 -4t8.5 -14q0 -29 -50 -53q-41 -18 -77 -18q-9 0 -10 7l1 3l35 9q12 3 26 20l21 30q15 20 29 20zM286 340q39 0 57 -34q13 -26 13 -70q0 -80 -71.5 -161.5t-152.5 -81.5q-38 0 -56 34q-3 7 -8 25.5t-5 44.5q0 82 70.5 162.5t152.5 80.5zM131 2
q52 0 126 123q69 117 69 176q0 16 -11 24.5t-26 8.5q-53 0 -128 -124q-68 -116 -68 -178q0 -11 12 -22q10 -6 26 -8z" />
    <glyph glyph-name="ocircumflex" unicode="&#xf4;" horiz-adv-x="315" 
d="M246 391q-6 0 -6 6l1 4l25 8q48 21 82 65q8 14 13 17l4 -4l-2 -18l-2 -18q0 -35 26 -51l3 -2l3 -3l-7 -3q-19 0 -31 8.5t-22 25.5l-42 -21q-31 -14 -45 -14zM286 340q39 0 57 -34q13 -26 13 -70q0 -80 -71.5 -161.5t-152.5 -81.5q-38 0 -56 34q-3 7 -8 25.5t-5 44.5
q0 82 70.5 162.5t152.5 80.5zM131 2q52 0 126 123q69 117 69 176q0 16 -11 24.5t-26 8.5q-53 0 -128 -124q-68 -116 -68 -178q0 -11 12 -22q10 -6 26 -8z" />
    <glyph glyph-name="otilde" unicode="&#xf5;" horiz-adv-x="315" 
d="M341 417q-13 0 -53 10l-32 5q-8 0 -20 -9l-13 -8l-3 3q2 17 22.5 36t37.5 19q13 0 19.5 -1.5t26 -7t40.5 -7.5q16 0 24 8l20 18l4 -4q0 -17 -27.5 -39.5t-45.5 -22.5zM287 339q39 0 57 -34q13 -26 13 -70q0 -80 -71.5 -161.5t-152.5 -81.5q-38 0 -56 34q-3 7 -8 25.5
t-5 44.5q0 82 70.5 162.5t152.5 80.5zM132 1q52 0 126 123q69 117 69 176q0 16 -11 24.5t-26 8.5q-53 0 -128 -124q-68 -116 -68 -178q0 -11 12 -22q10 -6 26 -8z" />
    <glyph glyph-name="odieresis" unicode="&#xf6;" horiz-adv-x="315" 
d="M313 482q9 0 16 -11q3 -5 3 -11q0 -21 -15.5 -38t-37.5 -17q-7 0 -13 9l-5 17q0 18 16.5 34.5t35.5 16.5zM376 431q0 16 17.5 33.5t33.5 17.5q6 0 14 -7q5 -4 8 -15q0 -19 -17 -37t-37 -18q-7 0 -14 8q-3 6 -5 18zM285 340q39 0 56 -32q13 -26 13 -68q0 -88 -70 -167.5
t-156 -79.5q-33 0 -52 34q-14 28 -14 64q0 83 69.5 166t153.5 83zM130 1q51 0 126 123q70 119 70 175q0 14 -12 25q-12 9 -28 9q-54 0 -126 -123q-67 -116 -67 -177q0 -12 11 -23q12 -9 26 -9z" />
    <glyph glyph-name="divide" unicode="&#xf7;" horiz-adv-x="534" 
d="M15 275h498v-51h-498v51zM259 431q21 0 37 -15t16 -37q0 -21 -15 -37t-38 -16q-20 0 -38 15q-15 15 -15 37q0 20 15.5 36.5t37.5 16.5zM260 173q21 0 37 -16t16 -37t-15.5 -37t-37.5 -16q-21 0 -36.5 15.5t-15.5 38.5q0 21 15.5 36.5t36.5 15.5z" />
    <glyph glyph-name="oslash" unicode="&#xf8;" horiz-adv-x="315" 
d="M69 54l-5 44q0 84 71.5 163t154.5 79q23 0 34.5 -9.5t21.5 -32.5l32 29q26 21 32 23l3 -2l2 -4l-6 -10l-20 -16l-38 -34l4 -28l2 -23q0 -80 -71.5 -160t-152.5 -80q-23 0 -37 11.5t-24 38.5l-32 -31q-26 -24 -34 -24l-3 7q5 13 40 39zM328 283v11q0 18 -12 29
q-12 9 -33 9q-48 0 -111 -100q-47 -75 -70 -147zM98 64l-3 -26q0 -18 12.5 -26.5t31.5 -8.5q63 0 139 149q26 52 48 112z" />
    <glyph glyph-name="ugrave" unicode="&#xf9;" 
d="M278 486q13 0 40 -46q12 -24 32 -27.5t21 -8.5q-4 -6 -7 -7q-41 5 -66 16q-42 18 -42 47q0 8 6 17t16 9zM357 340l-1 -3q2 -8 4 -10l14 -4q9 0 17 3.5t19 13.5h6q-51 -83 -91 -155q-34 -62 -50.5 -100t-16.5 -54q0 -7 5 -15q6 -5 13 -7q28 0 53 43l30 55q6 -3 8 -5
q0 -17 -35.5 -60t-52.5 -43q-21 0 -30 15.5t-9 39.5q0 34 11 68t30 72q-35 -58 -77 -113q-65 -86 -92 -86q-21 0 -32.5 21.5t-11.5 44.5q0 55 65.5 144.5t65.5 110.5q0 5 -5 9.5t-14 6.5l-9 -2q-14 -8 -49 -51q-15 -19 -27 -27l-6 -1l-3 6q0 15 40 49t56 34q19 0 28.5 -17
t9.5 -40q0 -52 -64.5 -141.5t-64.5 -113.5q0 -5 6 -13t12 -10q26 0 82 74q20 27 44 63.5t54 84.5q42 71 64 113h4z" />
    <glyph glyph-name="uacute" unicode="&#xfa;" 
d="M396 485q9 0 16.5 -4t8.5 -14q0 -29 -50 -53q-41 -18 -78 -18q-9 0 -10 7l2 3l26 7q20 6 35 22l21 30q15 20 29 20zM357 340l-1 -3q2 -8 4 -10l14 -4q9 0 17 3.5t19 13.5h6q-51 -83 -91 -155q-34 -62 -50.5 -100t-16.5 -54q0 -7 5 -15q6 -5 13 -7q28 0 53 43l30 55
q6 -3 8 -5q0 -17 -35.5 -60t-52.5 -43q-21 0 -30 15.5t-9 39.5q0 34 11 68t30 72q-35 -58 -77 -113q-65 -86 -92 -86q-21 0 -32.5 21.5t-11.5 44.5q0 55 65.5 144.5t65.5 110.5q0 5 -5 9.5t-14 6.5l-9 -2q-14 -8 -49 -51q-15 -19 -27 -27l-6 -1l-3 6q0 15 40 49t56 34
q19 0 28.5 -17t9.5 -40q0 -52 -64.5 -141.5t-64.5 -113.5q0 -5 6 -13t12 -10q26 0 82 74q20 27 44 63.5t54 84.5q42 71 64 113h4z" />
    <glyph glyph-name="ucircumflex" unicode="&#xfb;" 
d="M256 391l-7 4l5 6l33 13q26 12 45 31l36 42l7 3l2 -2l-4 -20v-17q0 -35 24 -50l7 -7l-4 -2q-19 0 -26.5 3t-31.5 32l-43 -22q-18 -9 -43 -14zM357 340l-1 -3q2 -8 4 -10l14 -4q9 0 17 3.5t19 13.5h6q-51 -83 -91 -155q-34 -62 -50.5 -100t-16.5 -54q0 -7 5 -15
q6 -5 13 -7q28 0 53 43l30 55q6 -3 8 -5q0 -17 -35.5 -60t-52.5 -43q-21 0 -30 15.5t-9 39.5q0 34 11 68t30 72q-35 -58 -77 -113q-65 -86 -92 -86q-21 0 -32.5 21.5t-11.5 44.5q0 55 65.5 144.5t65.5 110.5q0 5 -5 9.5t-14 6.5l-9 -2q-14 -8 -49 -51q-15 -19 -27 -27l-6 -1
l-3 6q0 15 40 49t56 34q19 0 28.5 -17t9.5 -40q0 -52 -64.5 -141.5t-64.5 -113.5q0 -5 6 -13t12 -10q26 0 82 74q20 27 44 63.5t54 84.5q42 71 64 113h4z" />
    <glyph glyph-name="udieresis" unicode="&#xfc;" 
d="M268 429q0 15 14 35q16 19 30 19q11 0 18 -8q6 -5 8 -18q0 -17 -17 -34t-34 -17q-8 0 -12.5 5.5t-6.5 17.5zM382 431q0 15 17 34.5t33 19.5q9 0 15.5 -8t6.5 -18q0 -15 -19 -34q-19 -17 -34 -17q-8 0 -12.5 5.5t-6.5 17.5zM358 341l-1 -3q2 -8 4 -10l14 -4q9 0 17 3.5
t19 13.5h6q-77 -123 -117.5 -203t-40.5 -106q0 -7 5 -15q6 -5 13 -7q27 0 49 38l33 60q9 0 9 -6q0 -18 -35.5 -60t-53.5 -42q-17 0 -28 15q-9 15 -9 37q0 25 2 36.5t9 32.5q11 36 28 74q-31 -52 -77 -113q-65 -86 -91 -86q-22 0 -34 23q-11 25 -11 50q0 46 65.5 137
t65.5 110q0 6 -5 10.5t-13 6.5l-9 -1q-13 -6 -57 -58q-18 -21 -25 -22l-3 6q0 15 39 48t56 35q17 0 29 -18q10 -18 10 -38q0 -52 -64.5 -140.5t-64.5 -115.5q0 -5 9 -16q3 -3 5.5 -4.5t4.5 -1.5q25 0 81 74q39 50 98 148l64 112h4z" />
    <glyph glyph-name="ydieresis" unicode="&#xff;" 
d="M260 432q0 16 15.5 33.5t30.5 17.5q9 0 17 -8q7 -5 8 -17q0 -16 -17 -34t-34 -18q-10 0 -14 7t-6 19zM375 428q0 19 16.5 37t33.5 18q10 0 15 -8q6 -5 7 -16q0 -14 -17.5 -34t-31.5 -20q-8 0 -17 6q-6 6 -6 17zM122 -7q-28 0 -39 17t-11 46q0 54 63 140.5t63 112.5
q0 8 -9 19l-9 2q-22 0 -60 -53l-26 -39l-6 -1l-6 4q5 21 41.5 58.5t56.5 37.5q21 0 30.5 -18.5t9.5 -43.5q0 -55 -62.5 -143.5t-62.5 -105.5q0 -8 5.5 -14.5t15.5 -8.5q35 0 102 89q31 42 70.5 104t85.5 144q12 -7 21 -9l28 3l31 3q12 0 12 -7l-7 -4l-6 1l-5 1q-16 0 -24 -8
l-18 -24q-33 -51 -78 -138l-121 -236q-51 -88 -97 -126q-63 -52 -148 -52q-40 0 -68 14q-37 19 -37 54q0 12 8.5 23t23.5 12q13 0 21 -7.5t8 -19.5q0 -5 -6 -16l-10 -12l-2 -5q2 -16 16.5 -24.5t49.5 -8.5q88 0 188 164l73 135l75 141q-49 -74 -82 -116q-67 -85 -98 -85z
" />
    <glyph glyph-name="Scaron" unicode="&#x160;" horiz-adv-x="748" 
d="M318 0h-279v153l15 1q5 -31 18 -44.5t44 -13.5h149l-2 26q-95 27 -150 92.5t-55 162.5q0 126 95 203q88 71 219 71q129 0 218 -70q95 -75 95 -203q0 -96 -54.5 -162t-151.5 -94l-2 -26h149q30 0 43 13q13 11 20 44h15v-153h-280l15 143q74 31 107 95q27 54 27 143
q0 107 -46 169q-52 70 -156 70q-102 0 -156 -70q-47 -64 -47 -170q0 -87 29.5 -145.5t105.5 -91.5z" />
  </font>
</defs>
</svg>
